<?xml version="1.0" encoding="utf-8" standalone="no"?>
<!DOCTYPE svg PUBLIC "-//W3C//DTD SVG 1.1//EN"
  "http://www.w3.org/Graphics/SVG/1.1/DTD/svg11.dtd">
<svg xmlns:xlink="http://www.w3.org/1999/xlink" width="178.56pt" height="84.548783pt" viewBox="0 0 178.56 84.548783" xmlns="http://www.w3.org/2000/svg" version="1.1">
 <metadata>
  <rdf:RDF xmlns:dc="http://purl.org/dc/elements/1.1/" xmlns:cc="http://creativecommons.org/ns#" xmlns:rdf="http://www.w3.org/1999/02/22-rdf-syntax-ns#">
   <cc:Work>
    <dc:type rdf:resource="http://purl.org/dc/dcmitype/StillImage"/>
    <dc:date>2025-12-09T12:42:58.804785</dc:date>
    <dc:format>image/svg+xml</dc:format>
    <dc:creator>
     <cc:Agent>
      <dc:title>Matplotlib v3.10.3, https://matplotlib.org/</dc:title>
     </cc:Agent>
    </dc:creator>
   </cc:Work>
  </rdf:RDF>
 </metadata>
 <defs>
  <style type="text/css">*{stroke-linejoin: round; stroke-linecap: butt}</style>
 </defs>
 <g id="figure_1">
  <g id="patch_1">
   <path d="M 0 84.548783 
L 178.56 84.548783 
L 178.56 0 
L 0 0 
z
" style="fill: #ffffff"/>
  </g>
  <g id="axes_1">
   <g id="patch_2">
    <path d="M 0 70.441908 
L 43.026506 70.441908 
L 43.026506 2.185908 
L 0 2.185908 
z
" style="fill: #ffffff"/>
   </g>
   <g id="matplotlib.axis_1">
    <g id="xtick_1">
     <g id="line2d_1">
      <defs>
       <path id="mec9b0872e3" d="M 0 0 
L 0 4.8 
" style="stroke: #262626"/>
      </defs>
      <g>
       <use xlink:href="#mec9b0872e3" x="21.513253" y="70.441908" style="fill: #262626; stroke: #262626"/>
      </g>
     </g>
     <g id="text_1">
      <!-- 1 node -->
      <g style="fill: #262626" transform="translate(11.216691 83.300971) scale(0.06 -0.06)">
       <defs>
        <path id="DejaVuSerif-31" d="M 909 0 
L 909 331 
L 1722 331 
L 1722 4213 
L 781 3603 
L 781 4013 
L 1919 4750 
L 2350 4750 
L 2350 331 
L 3163 331 
L 3163 0 
L 909 0 
z
" transform="scale(0.015625)"/>
        <path id="DejaVuSerif-20" transform="scale(0.015625)"/>
        <path id="DejaVuSerif-6e" d="M 263 0 
L 263 331 
L 781 331 
L 781 2988 
L 231 2988 
L 231 3322 
L 1356 3322 
L 1356 2731 
Q 1516 3069 1770 3241 
Q 2025 3413 2363 3413 
Q 2913 3413 3172 3097 
Q 3431 2781 3431 2113 
L 3431 331 
L 3944 331 
L 3944 0 
L 2356 0 
L 2356 331 
L 2853 331 
L 2853 1931 
Q 2853 2541 2703 2767 
Q 2553 2994 2175 2994 
Q 1775 2994 1565 2701 
Q 1356 2409 1356 1850 
L 1356 331 
L 1856 331 
L 1856 0 
L 263 0 
z
" transform="scale(0.015625)"/>
        <path id="DejaVuSerif-6f" d="M 1925 219 
Q 2388 219 2623 584 
Q 2859 950 2859 1663 
Q 2859 2375 2623 2739 
Q 2388 3103 1925 3103 
Q 1463 3103 1227 2739 
Q 991 2375 991 1663 
Q 991 950 1228 584 
Q 1466 219 1925 219 
z
M 1925 -91 
Q 1200 -91 759 389 
Q 319 869 319 1663 
Q 319 2456 758 2934 
Q 1197 3413 1925 3413 
Q 2653 3413 3092 2934 
Q 3531 2456 3531 1663 
Q 3531 869 3092 389 
Q 2653 -91 1925 -91 
z
" transform="scale(0.015625)"/>
        <path id="DejaVuSerif-64" d="M 3359 331 
L 3909 331 
L 3909 0 
L 2784 0 
L 2784 519 
Q 2616 206 2355 57 
Q 2094 -91 1709 -91 
Q 1097 -91 708 395 
Q 319 881 319 1663 
Q 319 2444 706 2928 
Q 1094 3413 1709 3413 
Q 2094 3413 2355 3264 
Q 2616 3116 2784 2803 
L 2784 4531 
L 2241 4531 
L 2241 4863 
L 3359 4863 
L 3359 331 
z
M 2784 1497 
L 2784 1825 
Q 2784 2422 2554 2737 
Q 2325 3053 1888 3053 
Q 1444 3053 1217 2703 
Q 991 2353 991 1663 
Q 991 975 1217 622 
Q 1444 269 1888 269 
Q 2325 269 2554 583 
Q 2784 897 2784 1497 
z
" transform="scale(0.015625)"/>
        <path id="DejaVuSerif-65" d="M 3469 1600 
L 991 1600 
L 991 1575 
Q 991 903 1244 561 
Q 1497 219 1991 219 
Q 2369 219 2611 417 
Q 2853 616 2950 1006 
L 3413 1006 
Q 3275 459 2904 184 
Q 2534 -91 1931 -91 
Q 1203 -91 761 389 
Q 319 869 319 1663 
Q 319 2450 753 2931 
Q 1188 3413 1894 3413 
Q 2647 3413 3050 2948 
Q 3453 2484 3469 1600 
z
M 2791 1931 
Q 2772 2513 2545 2808 
Q 2319 3103 1894 3103 
Q 1497 3103 1269 2806 
Q 1041 2509 991 1931 
L 2791 1931 
z
" transform="scale(0.015625)"/>
       </defs>
       <use xlink:href="#DejaVuSerif-31"/>
       <use xlink:href="#DejaVuSerif-20" transform="translate(63.623047 0)"/>
       <use xlink:href="#DejaVuSerif-6e" transform="translate(95.410156 0)"/>
       <use xlink:href="#DejaVuSerif-6f" transform="translate(159.814453 0)"/>
       <use xlink:href="#DejaVuSerif-64" transform="translate(220.019531 0)"/>
       <use xlink:href="#DejaVuSerif-65" transform="translate(284.033203 0)"/>
      </g>
     </g>
    </g>
   </g>
   <g id="patch_3">
    <path d="M 1.95575 74.456967 
L 21.513253 74.456967 
L 21.513253 70.000505 
L 1.95575 70.000505 
z
" clip-path="url(#p62ff2ed0e3)" style="fill: #98d594; stroke: #98d594; stroke-width: 0.25; stroke-linejoin: miter"/>
   </g>
   <g id="patch_4">
    <path d="M 21.513253 74.456967 
L 41.070756 74.456967 
L 41.070756 68.061526 
L 21.513253 68.061526 
z
" clip-path="url(#p62ff2ed0e3)" style="fill: #4a98c9; stroke: #4a98c9; stroke-width: 0.25; stroke-linejoin: miter"/>
   </g>
   <g id="patch_5">
    <path d="M 0 70.441908 
L 43.026506 70.441908 
" style="fill: none; stroke: #262626; stroke-linejoin: miter; stroke-linecap: square"/>
   </g>
   <g id="text_2">
    <!-- x1.1 -->
    <g transform="translate(6.064502 68.727704) scale(0.06 -0.06)">
     <defs>
      <path id="ArialMT-78" d="M 47 0 
L 1259 1725 
L 138 3319 
L 841 3319 
L 1350 2541 
Q 1494 2319 1581 2169 
Q 1719 2375 1834 2534 
L 2394 3319 
L 3066 3319 
L 1919 1756 
L 3153 0 
L 2463 0 
L 1781 1031 
L 1600 1309 
L 728 0 
L 47 0 
z
" transform="scale(0.015625)"/>
      <path id="ArialMT-31" d="M 2384 0 
L 1822 0 
L 1822 3584 
Q 1619 3391 1289 3197 
Q 959 3003 697 2906 
L 697 3450 
Q 1169 3672 1522 3987 
Q 1875 4303 2022 4600 
L 2384 4600 
L 2384 0 
z
" transform="scale(0.015625)"/>
      <path id="ArialMT-2e" d="M 581 0 
L 581 641 
L 1222 641 
L 1222 0 
L 581 0 
z
" transform="scale(0.015625)"/>
     </defs>
     <use xlink:href="#ArialMT-78"/>
     <use xlink:href="#ArialMT-31" transform="translate(50 0)"/>
     <use xlink:href="#ArialMT-2e" transform="translate(105.615234 0)"/>
     <use xlink:href="#ArialMT-31" transform="translate(133.398438 0)"/>
    </g>
   </g>
   <g id="text_3">
    <!-- x1.6 -->
    <g transform="translate(25.622004 66.788724) scale(0.06 -0.06)">
     <defs>
      <path id="ArialMT-36" d="M 3184 3459 
L 2625 3416 
Q 2550 3747 2413 3897 
Q 2184 4138 1850 4138 
Q 1581 4138 1378 3988 
Q 1113 3794 959 3422 
Q 806 3050 800 2363 
Q 1003 2672 1297 2822 
Q 1591 2972 1913 2972 
Q 2475 2972 2870 2558 
Q 3266 2144 3266 1488 
Q 3266 1056 3080 686 
Q 2894 316 2569 119 
Q 2244 -78 1831 -78 
Q 1128 -78 684 439 
Q 241 956 241 2144 
Q 241 3472 731 4075 
Q 1159 4600 1884 4600 
Q 2425 4600 2770 4297 
Q 3116 3994 3184 3459 
z
M 888 1484 
Q 888 1194 1011 928 
Q 1134 663 1356 523 
Q 1578 384 1822 384 
Q 2178 384 2434 671 
Q 2691 959 2691 1453 
Q 2691 1928 2437 2201 
Q 2184 2475 1800 2475 
Q 1419 2475 1153 2201 
Q 888 1928 888 1484 
z
" transform="scale(0.015625)"/>
     </defs>
     <use xlink:href="#ArialMT-78"/>
     <use xlink:href="#ArialMT-31" transform="translate(50 0)"/>
     <use xlink:href="#ArialMT-2e" transform="translate(105.615234 0)"/>
     <use xlink:href="#ArialMT-36" transform="translate(133.398438 0)"/>
    </g>
   </g>
  </g>
  <g id="axes_2">
   <g id="patch_6">
    <path d="M 45.177831 70.441908 
L 88.204337 70.441908 
L 88.204337 2.185908 
L 45.177831 2.185908 
z
" style="fill: #ffffff"/>
   </g>
   <g id="matplotlib.axis_2">
    <g id="xtick_2">
     <g id="line2d_2">
      <g>
       <use xlink:href="#mec9b0872e3" x="66.691084" y="70.441908" style="fill: #262626; stroke: #262626"/>
      </g>
     </g>
     <g id="text_4">
      <!-- 2 nodes -->
      <g style="fill: #262626" transform="translate(54.855147 83.300971) scale(0.06 -0.06)">
       <defs>
        <path id="DejaVuSerif-32" d="M 819 3553 
L 469 3553 
L 469 4384 
Q 803 4563 1142 4656 
Q 1481 4750 1806 4750 
Q 2534 4750 2956 4397 
Q 3378 4044 3378 3438 
Q 3378 2753 2422 1800 
Q 2347 1728 2309 1691 
L 1131 513 
L 3078 513 
L 3078 1088 
L 3444 1088 
L 3444 0 
L 434 0 
L 434 341 
L 1850 1753 
Q 2319 2222 2519 2614 
Q 2719 3006 2719 3438 
Q 2719 3909 2473 4175 
Q 2228 4441 1797 4441 
Q 1350 4441 1106 4219 
Q 863 3997 819 3553 
z
" transform="scale(0.015625)"/>
        <path id="DejaVuSerif-73" d="M 359 184 
L 359 959 
L 691 959 
Q 703 588 923 403 
Q 1144 219 1575 219 
Q 1963 219 2166 364 
Q 2369 509 2369 788 
Q 2369 1006 2220 1140 
Q 2072 1275 1594 1428 
L 1178 1569 
Q 750 1706 558 1912 
Q 366 2119 366 2438 
Q 366 2894 700 3153 
Q 1034 3413 1625 3413 
Q 1888 3413 2178 3344 
Q 2469 3275 2778 3144 
L 2778 2419 
L 2447 2419 
Q 2434 2741 2221 2922 
Q 2009 3103 1644 3103 
Q 1281 3103 1095 2975 
Q 909 2847 909 2591 
Q 909 2381 1050 2254 
Q 1191 2128 1613 1997 
L 2069 1856 
Q 2541 1709 2748 1489 
Q 2956 1269 2956 922 
Q 2956 450 2595 179 
Q 2234 -91 1600 -91 
Q 1278 -91 972 -22 
Q 666 47 359 184 
z
" transform="scale(0.015625)"/>
       </defs>
       <use xlink:href="#DejaVuSerif-32"/>
       <use xlink:href="#DejaVuSerif-20" transform="translate(63.623047 0)"/>
       <use xlink:href="#DejaVuSerif-6e" transform="translate(95.410156 0)"/>
       <use xlink:href="#DejaVuSerif-6f" transform="translate(159.814453 0)"/>
       <use xlink:href="#DejaVuSerif-64" transform="translate(220.019531 0)"/>
       <use xlink:href="#DejaVuSerif-65" transform="translate(284.033203 0)"/>
       <use xlink:href="#DejaVuSerif-73" transform="translate(343.212891 0)"/>
      </g>
     </g>
    </g>
   </g>
   <g id="matplotlib.axis_3">
    <g id="ytick_1"/>
    <g id="ytick_2"/>
    <g id="ytick_3"/>
   </g>
   <g id="patch_7">
    <path d="M 47.133582 74.456967 
L 66.691084 74.456967 
L 66.691084 69.710877 
L 47.133582 69.710877 
z
" clip-path="url(#pd89fe4c0eb)" style="fill: #98d594; stroke: #98d594; stroke-width: 0.25; stroke-linejoin: miter"/>
   </g>
   <g id="patch_8">
    <path d="M 66.691084 74.456967 
L 86.248587 74.456967 
L 86.248587 61.305399 
L 66.691084 61.305399 
z
" clip-path="url(#pd89fe4c0eb)" style="fill: #4a98c9; stroke: #4a98c9; stroke-width: 0.25; stroke-linejoin: miter"/>
   </g>
   <g id="patch_9">
    <path d="M 45.177831 70.441908 
L 88.204337 70.441908 
" style="fill: none; stroke: #262626; stroke-linejoin: miter; stroke-linecap: square"/>
   </g>
   <g id="text_5">
    <!-- x1.2 -->
    <g transform="translate(51.242333 68.438075) scale(0.06 -0.06)">
     <defs>
      <path id="ArialMT-32" d="M 3222 541 
L 3222 0 
L 194 0 
Q 188 203 259 391 
Q 375 700 629 1000 
Q 884 1300 1366 1694 
Q 2113 2306 2375 2664 
Q 2638 3022 2638 3341 
Q 2638 3675 2398 3904 
Q 2159 4134 1775 4134 
Q 1369 4134 1125 3890 
Q 881 3647 878 3216 
L 300 3275 
Q 359 3922 746 4261 
Q 1134 4600 1788 4600 
Q 2447 4600 2831 4234 
Q 3216 3869 3216 3328 
Q 3216 3053 3103 2787 
Q 2991 2522 2730 2228 
Q 2469 1934 1863 1422 
Q 1356 997 1212 845 
Q 1069 694 975 541 
L 3222 541 
z
" transform="scale(0.015625)"/>
     </defs>
     <use xlink:href="#ArialMT-78"/>
     <use xlink:href="#ArialMT-31" transform="translate(50 0)"/>
     <use xlink:href="#ArialMT-2e" transform="translate(105.615234 0)"/>
     <use xlink:href="#ArialMT-32" transform="translate(133.398438 0)"/>
    </g>
   </g>
   <g id="text_6">
    <!-- x3.3 -->
    <g transform="translate(70.799836 60.032597) scale(0.06 -0.06)">
     <defs>
      <path id="ArialMT-33" d="M 269 1209 
L 831 1284 
Q 928 806 1161 595 
Q 1394 384 1728 384 
Q 2125 384 2398 659 
Q 2672 934 2672 1341 
Q 2672 1728 2419 1979 
Q 2166 2231 1775 2231 
Q 1616 2231 1378 2169 
L 1441 2663 
Q 1497 2656 1531 2656 
Q 1891 2656 2178 2843 
Q 2466 3031 2466 3422 
Q 2466 3731 2256 3934 
Q 2047 4138 1716 4138 
Q 1388 4138 1169 3931 
Q 950 3725 888 3313 
L 325 3413 
Q 428 3978 793 4289 
Q 1159 4600 1703 4600 
Q 2078 4600 2393 4439 
Q 2709 4278 2876 4000 
Q 3044 3722 3044 3409 
Q 3044 3113 2884 2869 
Q 2725 2625 2413 2481 
Q 2819 2388 3044 2092 
Q 3269 1797 3269 1353 
Q 3269 753 2831 336 
Q 2394 -81 1725 -81 
Q 1122 -81 723 278 
Q 325 638 269 1209 
z
" transform="scale(0.015625)"/>
     </defs>
     <use xlink:href="#ArialMT-78"/>
     <use xlink:href="#ArialMT-33" transform="translate(50 0)"/>
     <use xlink:href="#ArialMT-2e" transform="translate(105.615234 0)"/>
     <use xlink:href="#ArialMT-33" transform="translate(133.398438 0)"/>
    </g>
   </g>
  </g>
  <g id="axes_3">
   <g id="patch_10">
    <path d="M 90.355663 70.441908 
L 133.382169 70.441908 
L 133.382169 2.185908 
L 90.355663 2.185908 
z
" style="fill: #ffffff"/>
   </g>
   <g id="matplotlib.axis_4">
    <g id="xtick_3">
     <g id="line2d_3">
      <g>
       <use xlink:href="#mec9b0872e3" x="111.868916" y="70.441908" style="fill: #262626; stroke: #262626"/>
      </g>
     </g>
     <g id="text_7">
      <!-- 3 nodes -->
      <g style="fill: #262626" transform="translate(100.032978 83.300971) scale(0.06 -0.06)">
       <defs>
        <path id="DejaVuSerif-33" d="M 622 4469 
Q 988 4606 1323 4678 
Q 1659 4750 1953 4750 
Q 2638 4750 3022 4454 
Q 3406 4159 3406 3634 
Q 3406 3213 3140 2930 
Q 2875 2647 2388 2547 
Q 2963 2466 3280 2130 
Q 3597 1794 3597 1259 
Q 3597 606 3158 257 
Q 2719 -91 1894 -91 
Q 1528 -91 1179 -12 
Q 831 66 488 225 
L 488 1131 
L 838 1131 
Q 869 681 1141 450 
Q 1413 219 1906 219 
Q 2384 219 2661 495 
Q 2938 772 2938 1253 
Q 2938 1803 2653 2086 
Q 2369 2369 1819 2369 
L 1522 2369 
L 1522 2688 
L 1678 2688 
Q 2225 2688 2498 2914 
Q 2772 3141 2772 3597 
Q 2772 4006 2547 4223 
Q 2322 4441 1900 4441 
Q 1478 4441 1245 4241 
Q 1013 4041 972 3647 
L 622 3647 
L 622 4469 
z
" transform="scale(0.015625)"/>
       </defs>
       <use xlink:href="#DejaVuSerif-33"/>
       <use xlink:href="#DejaVuSerif-20" transform="translate(63.623047 0)"/>
       <use xlink:href="#DejaVuSerif-6e" transform="translate(95.410156 0)"/>
       <use xlink:href="#DejaVuSerif-6f" transform="translate(159.814453 0)"/>
       <use xlink:href="#DejaVuSerif-64" transform="translate(220.019531 0)"/>
       <use xlink:href="#DejaVuSerif-65" transform="translate(284.033203 0)"/>
       <use xlink:href="#DejaVuSerif-73" transform="translate(343.212891 0)"/>
      </g>
     </g>
    </g>
   </g>
   <g id="matplotlib.axis_5">
    <g id="ytick_4"/>
    <g id="ytick_5"/>
    <g id="ytick_6"/>
   </g>
   <g id="patch_11">
    <path d="M 92.311413 74.456967 
L 111.868916 74.456967 
L 111.868916 69.713779 
L 92.311413 69.713779 
z
" clip-path="url(#p11809997e4)" style="fill: #98d594; stroke: #98d594; stroke-width: 0.25; stroke-linejoin: miter"/>
   </g>
   <g id="patch_12">
    <path d="M 111.868916 74.456967 
L 131.426418 74.456967 
L 131.426418 35.654412 
L 111.868916 35.654412 
z
" clip-path="url(#p11809997e4)" style="fill: #4a98c9; stroke: #4a98c9; stroke-width: 0.25; stroke-linejoin: miter"/>
   </g>
   <g id="patch_13">
    <path d="M 90.355663 70.441908 
L 133.382169 70.441908 
" style="fill: none; stroke: #262626; stroke-linejoin: miter; stroke-linecap: square"/>
   </g>
   <g id="text_8">
    <!-- x1.2 -->
    <g transform="translate(96.420164 68.440978) scale(0.06 -0.06)">
     <use xlink:href="#ArialMT-78"/>
     <use xlink:href="#ArialMT-31" transform="translate(50 0)"/>
     <use xlink:href="#ArialMT-2e" transform="translate(105.615234 0)"/>
     <use xlink:href="#ArialMT-32" transform="translate(133.398438 0)"/>
    </g>
   </g>
   <g id="text_9">
    <!-- x9.7 -->
    <g transform="translate(115.977667 34.381611) scale(0.06 -0.06)">
     <defs>
      <path id="ArialMT-39" d="M 350 1059 
L 891 1109 
Q 959 728 1153 556 
Q 1347 384 1650 384 
Q 1909 384 2104 503 
Q 2300 622 2425 820 
Q 2550 1019 2634 1356 
Q 2719 1694 2719 2044 
Q 2719 2081 2716 2156 
Q 2547 1888 2255 1720 
Q 1963 1553 1622 1553 
Q 1053 1553 659 1965 
Q 266 2378 266 3053 
Q 266 3750 677 4175 
Q 1088 4600 1706 4600 
Q 2153 4600 2523 4359 
Q 2894 4119 3086 3673 
Q 3278 3228 3278 2384 
Q 3278 1506 3087 986 
Q 2897 466 2520 194 
Q 2144 -78 1638 -78 
Q 1100 -78 759 220 
Q 419 519 350 1059 
z
M 2653 3081 
Q 2653 3566 2395 3850 
Q 2138 4134 1775 4134 
Q 1400 4134 1122 3828 
Q 844 3522 844 3034 
Q 844 2597 1108 2323 
Q 1372 2050 1759 2050 
Q 2150 2050 2401 2323 
Q 2653 2597 2653 3081 
z
" transform="scale(0.015625)"/>
      <path id="ArialMT-37" d="M 303 3981 
L 303 4522 
L 3269 4522 
L 3269 4084 
Q 2831 3619 2401 2847 
Q 1972 2075 1738 1259 
Q 1569 684 1522 0 
L 944 0 
Q 953 541 1156 1306 
Q 1359 2072 1739 2783 
Q 2119 3494 2547 3981 
L 303 3981 
z
" transform="scale(0.015625)"/>
     </defs>
     <use xlink:href="#ArialMT-78"/>
     <use xlink:href="#ArialMT-39" transform="translate(50 0)"/>
     <use xlink:href="#ArialMT-2e" transform="translate(105.615234 0)"/>
     <use xlink:href="#ArialMT-37" transform="translate(133.398438 0)"/>
    </g>
   </g>
  </g>
  <g id="axes_4">
   <g id="patch_14">
    <path d="M 135.533494 70.441908 
L 178.56 70.441908 
L 178.56 2.185908 
L 135.533494 2.185908 
z
" style="fill: #ffffff"/>
   </g>
   <g id="matplotlib.axis_6">
    <g id="xtick_4">
     <g id="line2d_4">
      <g>
       <use xlink:href="#mec9b0872e3" x="157.046747" y="70.441908" style="fill: #262626; stroke: #262626"/>
      </g>
     </g>
     <g id="text_10">
      <!-- 4 nodes -->
      <g style="fill: #262626" transform="translate(145.210809 83.300971) scale(0.06 -0.06)">
       <defs>
        <path id="DejaVuSerif-34" d="M 2234 1581 
L 2234 4063 
L 641 1581 
L 2234 1581 
z
M 3609 0 
L 1484 0 
L 1484 331 
L 2234 331 
L 2234 1247 
L 197 1247 
L 197 1588 
L 2241 4750 
L 2859 4750 
L 2859 1581 
L 3750 1581 
L 3750 1247 
L 2859 1247 
L 2859 331 
L 3609 331 
L 3609 0 
z
" transform="scale(0.015625)"/>
       </defs>
       <use xlink:href="#DejaVuSerif-34"/>
       <use xlink:href="#DejaVuSerif-20" transform="translate(63.623047 0)"/>
       <use xlink:href="#DejaVuSerif-6e" transform="translate(95.410156 0)"/>
       <use xlink:href="#DejaVuSerif-6f" transform="translate(159.814453 0)"/>
       <use xlink:href="#DejaVuSerif-64" transform="translate(220.019531 0)"/>
       <use xlink:href="#DejaVuSerif-65" transform="translate(284.033203 0)"/>
       <use xlink:href="#DejaVuSerif-73" transform="translate(343.212891 0)"/>
      </g>
     </g>
    </g>
   </g>
   <g id="matplotlib.axis_7">
    <g id="ytick_7"/>
    <g id="ytick_8"/>
    <g id="ytick_9"/>
   </g>
   <g id="patch_15">
    <path d="M 137.489244 74.456967 
L 157.046747 74.456967 
L 157.046747 69.673178 
L 137.489244 69.673178 
z
" clip-path="url(#pe603e4c246)" style="fill: #98d594; stroke: #98d594; stroke-width: 0.25; stroke-linejoin: miter"/>
   </g>
   <g id="patch_16">
    <path d="M 157.046747 74.456967 
L 176.60425 74.456967 
L 176.60425 5.567489 
L 157.046747 5.567489 
z
" clip-path="url(#pe603e4c246)" style="fill: #4a98c9; stroke: #4a98c9; stroke-width: 0.25; stroke-linejoin: miter"/>
   </g>
   <g id="patch_17">
    <path d="M 135.533494 70.441908 
L 178.56 70.441908 
" style="fill: none; stroke: #262626; stroke-linejoin: miter; stroke-linecap: square"/>
   </g>
   <g id="text_11">
    <!-- x1.2 -->
    <g transform="translate(141.597996 68.400376) scale(0.06 -0.06)">
     <use xlink:href="#ArialMT-78"/>
     <use xlink:href="#ArialMT-31" transform="translate(50 0)"/>
     <use xlink:href="#ArialMT-2e" transform="translate(105.615234 0)"/>
     <use xlink:href="#ArialMT-32" transform="translate(133.398438 0)"/>
    </g>
   </g>
   <g id="text_12">
    <!-- x17.2 -->
    <g transform="translate(159.487217 4.294688) scale(0.06 -0.06)">
     <use xlink:href="#ArialMT-78"/>
     <use xlink:href="#ArialMT-31" transform="translate(50 0)"/>
     <use xlink:href="#ArialMT-37" transform="translate(105.615234 0)"/>
     <use xlink:href="#ArialMT-2e" transform="translate(161.230469 0)"/>
     <use xlink:href="#ArialMT-32" transform="translate(189.013672 0)"/>
    </g>
   </g>
  </g>
 </g>
 <defs>
  <clipPath id="p62ff2ed0e3">
   <rect x="0" y="2.185908" width="43.026506" height="68.256"/>
  </clipPath>
  <clipPath id="pd89fe4c0eb">
   <rect x="45.177831" y="2.185908" width="43.026506" height="68.256"/>
  </clipPath>
  <clipPath id="p11809997e4">
   <rect x="90.355663" y="2.185908" width="43.026506" height="68.256"/>
  </clipPath>
  <clipPath id="pe603e4c246">
   <rect x="135.533494" y="2.185908" width="43.026506" height="68.256"/>
  </clipPath>
 </defs>
</svg>
