<?xml version="1.0" encoding="utf-8" standalone="no"?>
<!DOCTYPE svg PUBLIC "-//W3C//DTD SVG 1.1//EN"
  "http://www.w3.org/Graphics/SVG/1.1/DTD/svg11.dtd">
<svg xmlns:xlink="http://www.w3.org/1999/xlink" width="231.01525pt" height="165.780914pt" viewBox="0 0 231.01525 165.780914" xmlns="http://www.w3.org/2000/svg" version="1.1">
 <metadata>
  <rdf:RDF xmlns:dc="http://purl.org/dc/elements/1.1/" xmlns:cc="http://creativecommons.org/ns#" xmlns:rdf="http://www.w3.org/1999/02/22-rdf-syntax-ns#">
   <cc:Work>
    <dc:type rdf:resource="http://purl.org/dc/dcmitype/StillImage"/>
    <dc:date>2025-12-02T16:43:13.605475</dc:date>
    <dc:format>image/svg+xml</dc:format>
    <dc:creator>
     <cc:Agent>
      <dc:title>Matplotlib v3.10.3, https://matplotlib.org/</dc:title>
     </cc:Agent>
    </dc:creator>
   </cc:Work>
  </rdf:RDF>
 </metadata>
 <defs>
  <style type="text/css">*{stroke-linejoin: round; stroke-linecap: butt}</style>
 </defs>
 <g id="figure_1">
  <g id="patch_1">
   <path d="M 0 165.780914 
L 231.01525 165.780914 
L 231.01525 0 
L 0 0 
z
" style="fill: #ffffff"/>
  </g>
  <g id="axes_1">
   <g id="patch_2">
    <path d="M 43.78125 63.964282 
L 128.61425 63.964282 
L 128.61425 12.886414 
L 43.78125 12.886414 
z
" style="fill: #ffffff"/>
   </g>
   <g id="matplotlib.axis_1">
    <g id="xtick_1">
     <g id="line2d_1">
      <defs>
       <path id="mdf3b8f70ae" d="M 0 0 
L 0 3.5 
" style="stroke: #000000; stroke-width: 0.8"/>
      </defs>
      <g>
       <use xlink:href="#mdf3b8f70ae" x="86.19775" y="63.964282" style="stroke: #000000; stroke-width: 0.8"/>
      </g>
     </g>
     <g id="text_1">
      <!-- 1 -->
      <g transform="translate(83.65275 77.043032) scale(0.08 -0.08)">
       <defs>
        <path id="DejaVuSerif-31" d="M 909 0 
L 909 331 
L 1722 331 
L 1722 4213 
L 781 3603 
L 781 4013 
L 1919 4750 
L 2350 4750 
L 2350 331 
L 3163 331 
L 3163 0 
L 909 0 
z
" transform="scale(0.015625)"/>
       </defs>
       <use xlink:href="#DejaVuSerif-31"/>
      </g>
     </g>
    </g>
   </g>
   <g id="matplotlib.axis_2">
    <g id="ytick_1">
     <g id="line2d_2">
      <defs>
       <path id="mad08befde3" d="M 0 0 
L -3.5 0 
" style="stroke: #000000; stroke-width: 0.8"/>
      </defs>
      <g>
       <use xlink:href="#mad08befde3" x="43.78125" y="63.964282" style="stroke: #000000; stroke-width: 0.8"/>
      </g>
     </g>
     <g id="text_2">
      <!-- 0.0 -->
      <g transform="translate(20.878125 67.763501) scale(0.1 -0.1)">
       <defs>
        <path id="DejaVuSerif-30" d="M 2034 219 
Q 2513 219 2750 744 
Q 2988 1269 2988 2328 
Q 2988 3391 2750 3916 
Q 2513 4441 2034 4441 
Q 1556 4441 1318 3916 
Q 1081 3391 1081 2328 
Q 1081 1269 1318 744 
Q 1556 219 2034 219 
z
M 2034 -91 
Q 1275 -91 848 546 
Q 422 1184 422 2328 
Q 422 3475 848 4112 
Q 1275 4750 2034 4750 
Q 2797 4750 3222 4112 
Q 3647 3475 3647 2328 
Q 3647 1184 3222 546 
Q 2797 -91 2034 -91 
z
" transform="scale(0.015625)"/>
        <path id="DejaVuSerif-2e" d="M 603 325 
Q 603 500 722 622 
Q 841 744 1019 744 
Q 1191 744 1312 622 
Q 1434 500 1434 325 
Q 1434 153 1312 31 
Q 1191 -91 1019 -91 
Q 841 -91 722 29 
Q 603 150 603 325 
z
" transform="scale(0.015625)"/>
       </defs>
       <use xlink:href="#DejaVuSerif-30"/>
       <use xlink:href="#DejaVuSerif-2e" transform="translate(63.623047 0)"/>
       <use xlink:href="#DejaVuSerif-30" transform="translate(95.410156 0)"/>
      </g>
     </g>
    </g>
    <g id="ytick_2">
     <g id="line2d_3">
      <g>
       <use xlink:href="#mad08befde3" x="43.78125" y="47.915405" style="stroke: #000000; stroke-width: 0.8"/>
      </g>
     </g>
     <g id="text_3">
      <!-- 0.4 -->
      <g transform="translate(20.878125 51.714623) scale(0.1 -0.1)">
       <defs>
        <path id="DejaVuSerif-34" d="M 2234 1581 
L 2234 4063 
L 641 1581 
L 2234 1581 
z
M 3609 0 
L 1484 0 
L 1484 331 
L 2234 331 
L 2234 1247 
L 197 1247 
L 197 1588 
L 2241 4750 
L 2859 4750 
L 2859 1581 
L 3750 1581 
L 3750 1247 
L 2859 1247 
L 2859 331 
L 3609 331 
L 3609 0 
z
" transform="scale(0.015625)"/>
       </defs>
       <use xlink:href="#DejaVuSerif-30"/>
       <use xlink:href="#DejaVuSerif-2e" transform="translate(63.623047 0)"/>
       <use xlink:href="#DejaVuSerif-34" transform="translate(95.410156 0)"/>
      </g>
     </g>
    </g>
    <g id="ytick_3">
     <g id="line2d_4">
      <g>
       <use xlink:href="#mad08befde3" x="43.78125" y="31.866527" style="stroke: #000000; stroke-width: 0.8"/>
      </g>
     </g>
     <g id="text_4">
      <!-- 0.8 -->
      <g transform="translate(20.878125 35.665746) scale(0.1 -0.1)">
       <defs>
        <path id="DejaVuSerif-38" d="M 2981 1275 
Q 2981 1775 2732 2051 
Q 2484 2328 2034 2328 
Q 1584 2328 1336 2051 
Q 1088 1775 1088 1275 
Q 1088 772 1336 495 
Q 1584 219 2034 219 
Q 2484 219 2732 495 
Q 2981 772 2981 1275 
z
M 2853 3541 
Q 2853 3966 2637 4203 
Q 2422 4441 2034 4441 
Q 1650 4441 1433 4203 
Q 1216 3966 1216 3541 
Q 1216 3113 1433 2875 
Q 1650 2638 2034 2638 
Q 2422 2638 2637 2875 
Q 2853 3113 2853 3541 
z
M 2516 2484 
Q 3047 2413 3344 2092 
Q 3641 1772 3641 1275 
Q 3641 619 3225 264 
Q 2809 -91 2034 -91 
Q 1263 -91 845 264 
Q 428 619 428 1275 
Q 428 1772 725 2092 
Q 1022 2413 1556 2484 
Q 1084 2569 832 2842 
Q 581 3116 581 3541 
Q 581 4103 968 4426 
Q 1356 4750 2034 4750 
Q 2713 4750 3100 4426 
Q 3488 4103 3488 3541 
Q 3488 3116 3236 2842 
Q 2984 2569 2516 2484 
z
" transform="scale(0.015625)"/>
       </defs>
       <use xlink:href="#DejaVuSerif-30"/>
       <use xlink:href="#DejaVuSerif-2e" transform="translate(63.623047 0)"/>
       <use xlink:href="#DejaVuSerif-38" transform="translate(95.410156 0)"/>
      </g>
     </g>
    </g>
    <g id="ytick_4">
     <g id="line2d_5">
      <g>
       <use xlink:href="#mad08befde3" x="43.78125" y="15.81765" style="stroke: #000000; stroke-width: 0.8"/>
      </g>
     </g>
     <g id="text_5">
      <!-- 1.2 -->
      <g transform="translate(20.878125 19.616869) scale(0.1 -0.1)">
       <defs>
        <path id="DejaVuSerif-32" d="M 819 3553 
L 469 3553 
L 469 4384 
Q 803 4563 1142 4656 
Q 1481 4750 1806 4750 
Q 2534 4750 2956 4397 
Q 3378 4044 3378 3438 
Q 3378 2753 2422 1800 
Q 2347 1728 2309 1691 
L 1131 513 
L 3078 513 
L 3078 1088 
L 3444 1088 
L 3444 0 
L 434 0 
L 434 341 
L 1850 1753 
Q 2319 2222 2519 2614 
Q 2719 3006 2719 3438 
Q 2719 3909 2473 4175 
Q 2228 4441 1797 4441 
Q 1350 4441 1106 4219 
Q 863 3997 819 3553 
z
" transform="scale(0.015625)"/>
       </defs>
       <use xlink:href="#DejaVuSerif-31"/>
       <use xlink:href="#DejaVuSerif-2e" transform="translate(63.623047 0)"/>
       <use xlink:href="#DejaVuSerif-32" transform="translate(95.410156 0)"/>
      </g>
     </g>
    </g>
    <g id="text_6">
     <!-- SPaRe -->
     <g transform="translate(14.798438 54.69488) rotate(-90) scale(0.1 -0.1)">
      <defs>
       <path id="DejaVuSerif-53" d="M 594 225 
L 594 1288 
L 953 1284 
Q 969 753 1261 498 
Q 1553 244 2150 244 
Q 2706 244 2998 464 
Q 3291 684 3291 1106 
Q 3291 1444 3114 1625 
Q 2938 1806 2369 1978 
L 1753 2163 
Q 1084 2366 811 2669 
Q 538 2972 538 3500 
Q 538 4094 959 4422 
Q 1381 4750 2144 4750 
Q 2469 4750 2856 4679 
Q 3244 4609 3681 4475 
L 3681 3481 
L 3328 3481 
Q 3275 3975 2998 4195 
Q 2722 4416 2156 4416 
Q 1663 4416 1405 4214 
Q 1147 4013 1147 3628 
Q 1147 3294 1340 3103 
Q 1534 2913 2163 2725 
L 2741 2553 
Q 3375 2363 3645 2067 
Q 3916 1772 3916 1275 
Q 3916 597 3481 253 
Q 3047 -91 2188 -91 
Q 1803 -91 1404 -12 
Q 1006 66 594 225 
z
" transform="scale(0.015625)"/>
       <path id="DejaVuSerif-50" d="M 1581 2375 
L 2406 2375 
Q 2872 2375 3115 2626 
Q 3359 2878 3359 3353 
Q 3359 3831 3115 4081 
Q 2872 4331 2406 4331 
L 1581 4331 
L 1581 2375 
z
M 353 0 
L 353 331 
L 947 331 
L 947 4331 
L 353 4331 
L 353 4666 
L 2559 4666 
Q 3259 4666 3668 4311 
Q 4078 3956 4078 3353 
Q 4078 2753 3668 2397 
Q 3259 2041 2559 2041 
L 1581 2041 
L 1581 331 
L 2303 331 
L 2303 0 
L 353 0 
z
" transform="scale(0.015625)"/>
       <path id="DejaVuSerif-61" d="M 2547 1044 
L 2547 1747 
L 1806 1747 
Q 1378 1747 1168 1562 
Q 959 1378 959 997 
Q 959 650 1171 447 
Q 1384 244 1747 244 
Q 2106 244 2326 466 
Q 2547 688 2547 1044 
z
M 3122 2075 
L 3122 331 
L 3634 331 
L 3634 0 
L 2547 0 
L 2547 359 
Q 2356 128 2106 18 
Q 1856 -91 1522 -91 
Q 969 -91 644 203 
Q 319 497 319 997 
Q 319 1513 691 1797 
Q 1063 2081 1741 2081 
L 2547 2081 
L 2547 2309 
Q 2547 2688 2317 2895 
Q 2088 3103 1672 3103 
Q 1328 3103 1125 2947 
Q 922 2791 872 2484 
L 575 2484 
L 575 3156 
Q 875 3284 1158 3348 
Q 1441 3413 1709 3413 
Q 2400 3413 2761 3070 
Q 3122 2728 3122 2075 
z
" transform="scale(0.015625)"/>
       <path id="DejaVuSerif-52" d="M 3066 2316 
Q 3284 2256 3442 2114 
Q 3600 1972 3725 1716 
L 4403 331 
L 4972 331 
L 4972 0 
L 3872 0 
L 3144 1484 
Q 2934 1916 2759 2042 
Q 2584 2169 2278 2169 
L 1581 2169 
L 1581 331 
L 2241 331 
L 2241 0 
L 353 0 
L 353 331 
L 947 331 
L 947 4331 
L 353 4331 
L 353 4666 
L 2719 4666 
Q 3400 4666 3770 4341 
Q 4141 4016 4141 3419 
Q 4141 2938 3870 2661 
Q 3600 2384 3066 2316 
z
M 1581 2503 
L 2503 2503 
Q 2975 2503 3200 2726 
Q 3425 2950 3425 3419 
Q 3425 3888 3200 4109 
Q 2975 4331 2503 4331 
L 1581 4331 
L 1581 2503 
z
" transform="scale(0.015625)"/>
       <path id="DejaVuSerif-65" d="M 3469 1600 
L 991 1600 
L 991 1575 
Q 991 903 1244 561 
Q 1497 219 1991 219 
Q 2369 219 2611 417 
Q 2853 616 2950 1006 
L 3413 1006 
Q 3275 459 2904 184 
Q 2534 -91 1931 -91 
Q 1203 -91 761 389 
Q 319 869 319 1663 
Q 319 2450 753 2931 
Q 1188 3413 1894 3413 
Q 2647 3413 3050 2948 
Q 3453 2484 3469 1600 
z
M 2791 1931 
Q 2772 2513 2545 2808 
Q 2319 3103 1894 3103 
Q 1497 3103 1269 2806 
Q 1041 2509 991 1931 
L 2791 1931 
z
" transform="scale(0.015625)"/>
      </defs>
      <use xlink:href="#DejaVuSerif-53"/>
      <use xlink:href="#DejaVuSerif-50" transform="translate(68.505859 0)"/>
      <use xlink:href="#DejaVuSerif-61" transform="translate(131.291016 0)"/>
      <use xlink:href="#DejaVuSerif-52" transform="translate(190.910156 0)"/>
      <use xlink:href="#DejaVuSerif-65" transform="translate(266.203125 0)"/>
     </g>
    </g>
   </g>
   <g id="patch_3">
    <path d="M 47.637295 63.964282 
L 69.671841 63.964282 
L 69.671841 23.842089 
L 47.637295 23.842089 
z
" clip-path="url(#p7db79e5238)" style="fill: #c6dbef; stroke: #c6dbef; stroke-width: 0.25; stroke-linejoin: miter"/>
   </g>
   <g id="patch_4">
    <path d="M 75.180477 63.964282 
L 97.215023 63.964282 
L 97.215023 22.987921 
L 75.180477 22.987921 
z
" clip-path="url(#p7db79e5238)" style="fill: #6aaed6; stroke: #6aaed6; stroke-width: 0.25; stroke-linejoin: miter"/>
   </g>
   <g id="patch_5">
    <path d="M 102.723659 63.964282 
L 124.758205 63.964282 
L 124.758205 23.986153 
L 102.723659 23.986153 
z
" clip-path="url(#p7db79e5238)" style="fill: #2070b4; stroke: #2070b4; stroke-width: 0.25; stroke-linejoin: miter"/>
   </g>
   <g id="patch_6">
    <path d="M 43.78125 63.964282 
L 43.78125 12.886414 
" style="fill: none; stroke: #000000; stroke-width: 0.8; stroke-linejoin: miter; stroke-linecap: square"/>
   </g>
   <g id="patch_7">
    <path d="M 43.78125 63.964282 
L 128.61425 63.964282 
" style="fill: none; stroke: #000000; stroke-width: 0.8; stroke-linejoin: miter; stroke-linecap: square"/>
   </g>
   <g id="text_7">
    <!-- x1.00 -->
    <g transform="translate(48.870193 21.449645) scale(0.08 -0.08)">
     <defs>
      <path id="ArialMT-78" d="M 47 0 
L 1259 1725 
L 138 3319 
L 841 3319 
L 1350 2541 
Q 1494 2319 1581 2169 
Q 1719 2375 1834 2534 
L 2394 3319 
L 3066 3319 
L 1919 1756 
L 3153 0 
L 2463 0 
L 1781 1031 
L 1600 1309 
L 728 0 
L 47 0 
z
" transform="scale(0.015625)"/>
      <path id="ArialMT-31" d="M 2384 0 
L 1822 0 
L 1822 3584 
Q 1619 3391 1289 3197 
Q 959 3003 697 2906 
L 697 3450 
Q 1169 3672 1522 3987 
Q 1875 4303 2022 4600 
L 2384 4600 
L 2384 0 
z
" transform="scale(0.015625)"/>
      <path id="ArialMT-2e" d="M 581 0 
L 581 641 
L 1222 641 
L 1222 0 
L 581 0 
z
" transform="scale(0.015625)"/>
      <path id="ArialMT-30" d="M 266 2259 
Q 266 3072 433 3567 
Q 600 4063 929 4331 
Q 1259 4600 1759 4600 
Q 2128 4600 2406 4451 
Q 2684 4303 2865 4023 
Q 3047 3744 3150 3342 
Q 3253 2941 3253 2259 
Q 3253 1453 3087 958 
Q 2922 463 2592 192 
Q 2263 -78 1759 -78 
Q 1097 -78 719 397 
Q 266 969 266 2259 
z
M 844 2259 
Q 844 1131 1108 757 
Q 1372 384 1759 384 
Q 2147 384 2411 759 
Q 2675 1134 2675 2259 
Q 2675 3391 2411 3762 
Q 2147 4134 1753 4134 
Q 1366 4134 1134 3806 
Q 844 3388 844 2259 
z
" transform="scale(0.015625)"/>
     </defs>
     <use xlink:href="#ArialMT-78"/>
     <use xlink:href="#ArialMT-31" transform="translate(50 0)"/>
     <use xlink:href="#ArialMT-2e" transform="translate(105.615234 0)"/>
     <use xlink:href="#ArialMT-30" transform="translate(133.398438 0)"/>
     <use xlink:href="#ArialMT-30" transform="translate(189.013672 0)"/>
    </g>
   </g>
   <g id="text_8">
    <!-- x1.02 -->
    <g transform="translate(76.413375 20.595477) scale(0.08 -0.08)">
     <defs>
      <path id="ArialMT-32" d="M 3222 541 
L 3222 0 
L 194 0 
Q 188 203 259 391 
Q 375 700 629 1000 
Q 884 1300 1366 1694 
Q 2113 2306 2375 2664 
Q 2638 3022 2638 3341 
Q 2638 3675 2398 3904 
Q 2159 4134 1775 4134 
Q 1369 4134 1125 3890 
Q 881 3647 878 3216 
L 300 3275 
Q 359 3922 746 4261 
Q 1134 4600 1788 4600 
Q 2447 4600 2831 4234 
Q 3216 3869 3216 3328 
Q 3216 3053 3103 2787 
Q 2991 2522 2730 2228 
Q 2469 1934 1863 1422 
Q 1356 997 1212 845 
Q 1069 694 975 541 
L 3222 541 
z
" transform="scale(0.015625)"/>
     </defs>
     <use xlink:href="#ArialMT-78"/>
     <use xlink:href="#ArialMT-31" transform="translate(50 0)"/>
     <use xlink:href="#ArialMT-2e" transform="translate(105.615234 0)"/>
     <use xlink:href="#ArialMT-30" transform="translate(133.398438 0)"/>
     <use xlink:href="#ArialMT-32" transform="translate(189.013672 0)"/>
    </g>
   </g>
   <g id="text_9">
    <!-- x1.00 -->
    <g transform="translate(103.956557 21.593709) scale(0.08 -0.08)">
     <use xlink:href="#ArialMT-78"/>
     <use xlink:href="#ArialMT-31" transform="translate(50 0)"/>
     <use xlink:href="#ArialMT-2e" transform="translate(105.615234 0)"/>
     <use xlink:href="#ArialMT-30" transform="translate(133.398438 0)"/>
     <use xlink:href="#ArialMT-30" transform="translate(189.013672 0)"/>
    </g>
   </g>
  </g>
  <g id="axes_2">
   <g id="patch_8">
    <path d="M 138.98225 63.964282 
L 223.81525 63.964282 
L 223.81525 12.886414 
L 138.98225 12.886414 
z
" style="fill: #ffffff"/>
   </g>
   <g id="matplotlib.axis_3">
    <g id="xtick_2">
     <g id="line2d_6">
      <g>
       <use xlink:href="#mdf3b8f70ae" x="181.39875" y="63.964282" style="stroke: #000000; stroke-width: 0.8"/>
      </g>
     </g>
     <g id="text_10">
      <!-- 2 -->
      <g transform="translate(178.85375 77.043032) scale(0.08 -0.08)">
       <use xlink:href="#DejaVuSerif-32"/>
      </g>
     </g>
    </g>
   </g>
   <g id="matplotlib.axis_4">
    <g id="ytick_5"/>
    <g id="ytick_6"/>
    <g id="ytick_7"/>
    <g id="ytick_8"/>
   </g>
   <g id="patch_9">
    <path d="M 142.838295 63.964282 
L 164.872841 63.964282 
L 164.872841 23.842089 
L 142.838295 23.842089 
z
" clip-path="url(#p4bce05671a)" style="fill: #c6dbef; stroke: #c6dbef; stroke-width: 0.25; stroke-linejoin: miter"/>
   </g>
   <g id="patch_10">
    <path d="M 170.381477 63.964282 
L 192.416023 63.964282 
L 192.416023 15.318694 
L 170.381477 15.318694 
z
" clip-path="url(#p4bce05671a)" style="fill: #6aaed6; stroke: #6aaed6; stroke-width: 0.25; stroke-linejoin: miter"/>
   </g>
   <g id="patch_11">
    <path d="M 197.924659 63.964282 
L 219.959205 63.964282 
L 219.959205 23.41409 
L 197.924659 23.41409 
z
" clip-path="url(#p4bce05671a)" style="fill: #2070b4; stroke: #2070b4; stroke-width: 0.25; stroke-linejoin: miter"/>
   </g>
   <g id="patch_12">
    <path d="M 138.98225 63.964282 
L 223.81525 63.964282 
" style="fill: none; stroke: #000000; stroke-width: 0.8; stroke-linejoin: miter; stroke-linecap: square"/>
   </g>
   <g id="text_11">
    <!-- x1.00 -->
    <g transform="translate(144.071193 21.449645) scale(0.08 -0.08)">
     <use xlink:href="#ArialMT-78"/>
     <use xlink:href="#ArialMT-31" transform="translate(50 0)"/>
     <use xlink:href="#ArialMT-2e" transform="translate(105.615234 0)"/>
     <use xlink:href="#ArialMT-30" transform="translate(133.398438 0)"/>
     <use xlink:href="#ArialMT-30" transform="translate(189.013672 0)"/>
    </g>
   </g>
   <g id="text_12">
    <!-- x1.21 -->
    <g transform="translate(171.614375 12.92625) scale(0.08 -0.08)">
     <use xlink:href="#ArialMT-78"/>
     <use xlink:href="#ArialMT-31" transform="translate(50 0)"/>
     <use xlink:href="#ArialMT-2e" transform="translate(105.615234 0)"/>
     <use xlink:href="#ArialMT-32" transform="translate(133.398438 0)"/>
     <use xlink:href="#ArialMT-31" transform="translate(189.013672 0)"/>
    </g>
   </g>
   <g id="text_13">
    <!-- x1.01 -->
    <g transform="translate(199.157557 21.021646) scale(0.08 -0.08)">
     <use xlink:href="#ArialMT-78"/>
     <use xlink:href="#ArialMT-31" transform="translate(50 0)"/>
     <use xlink:href="#ArialMT-2e" transform="translate(105.615234 0)"/>
     <use xlink:href="#ArialMT-30" transform="translate(133.398438 0)"/>
     <use xlink:href="#ArialMT-31" transform="translate(189.013672 0)"/>
    </g>
   </g>
  </g>
  <g id="axes_3">
   <g id="patch_13">
    <path d="M 43.78125 143.838414 
L 128.61425 143.838414 
L 128.61425 92.760547 
L 43.78125 92.760547 
z
" style="fill: #ffffff"/>
   </g>
   <g id="matplotlib.axis_5">
    <g id="xtick_3">
     <g id="line2d_7">
      <g>
       <use xlink:href="#mdf3b8f70ae" x="86.19775" y="143.838414" style="stroke: #000000; stroke-width: 0.8"/>
      </g>
     </g>
     <g id="text_14">
      <!-- 1 -->
      <g transform="translate(83.65275 156.917164) scale(0.08 -0.08)">
       <use xlink:href="#DejaVuSerif-31"/>
      </g>
     </g>
    </g>
   </g>
   <g id="matplotlib.axis_6">
    <g id="ytick_9">
     <g id="line2d_8">
      <g>
       <use xlink:href="#mad08befde3" x="43.78125" y="143.838414" style="stroke: #000000; stroke-width: 0.8"/>
      </g>
     </g>
     <g id="text_15">
      <!-- 0.0 -->
      <g transform="translate(20.878125 147.637633) scale(0.1 -0.1)">
       <use xlink:href="#DejaVuSerif-30"/>
       <use xlink:href="#DejaVuSerif-2e" transform="translate(63.623047 0)"/>
       <use xlink:href="#DejaVuSerif-30" transform="translate(95.410156 0)"/>
      </g>
     </g>
    </g>
    <g id="ytick_10">
     <g id="line2d_9">
      <g>
       <use xlink:href="#mad08befde3" x="43.78125" y="126.780417" style="stroke: #000000; stroke-width: 0.8"/>
      </g>
     </g>
     <g id="text_16">
      <!-- 1.5 -->
      <g transform="translate(20.878125 130.579635) scale(0.1 -0.1)">
       <defs>
        <path id="DejaVuSerif-35" d="M 3219 4666 
L 3219 4153 
L 1081 4153 
L 1081 2816 
Q 1244 2928 1461 2984 
Q 1678 3041 1947 3041 
Q 2703 3041 3140 2622 
Q 3578 2203 3578 1478 
Q 3578 738 3136 323 
Q 2694 -91 1894 -91 
Q 1572 -91 1234 -12 
Q 897 66 544 225 
L 544 1131 
L 897 1131 
Q 925 688 1179 453 
Q 1434 219 1894 219 
Q 2388 219 2653 544 
Q 2919 869 2919 1478 
Q 2919 2084 2655 2407 
Q 2391 2731 1894 2731 
Q 1613 2731 1398 2631 
Q 1184 2531 1019 2322 
L 750 2322 
L 750 4666 
L 3219 4666 
z
" transform="scale(0.015625)"/>
       </defs>
       <use xlink:href="#DejaVuSerif-31"/>
       <use xlink:href="#DejaVuSerif-2e" transform="translate(63.623047 0)"/>
       <use xlink:href="#DejaVuSerif-35" transform="translate(95.410156 0)"/>
      </g>
     </g>
    </g>
    <g id="ytick_11">
     <g id="line2d_10">
      <g>
       <use xlink:href="#mad08befde3" x="43.78125" y="109.722419" style="stroke: #000000; stroke-width: 0.8"/>
      </g>
     </g>
     <g id="text_17">
      <!-- 3.0 -->
      <g transform="translate(20.878125 113.521638) scale(0.1 -0.1)">
       <defs>
        <path id="DejaVuSerif-33" d="M 622 4469 
Q 988 4606 1323 4678 
Q 1659 4750 1953 4750 
Q 2638 4750 3022 4454 
Q 3406 4159 3406 3634 
Q 3406 3213 3140 2930 
Q 2875 2647 2388 2547 
Q 2963 2466 3280 2130 
Q 3597 1794 3597 1259 
Q 3597 606 3158 257 
Q 2719 -91 1894 -91 
Q 1528 -91 1179 -12 
Q 831 66 488 225 
L 488 1131 
L 838 1131 
Q 869 681 1141 450 
Q 1413 219 1906 219 
Q 2384 219 2661 495 
Q 2938 772 2938 1253 
Q 2938 1803 2653 2086 
Q 2369 2369 1819 2369 
L 1522 2369 
L 1522 2688 
L 1678 2688 
Q 2225 2688 2498 2914 
Q 2772 3141 2772 3597 
Q 2772 4006 2547 4223 
Q 2322 4441 1900 4441 
Q 1478 4441 1245 4241 
Q 1013 4041 972 3647 
L 622 3647 
L 622 4469 
z
" transform="scale(0.015625)"/>
       </defs>
       <use xlink:href="#DejaVuSerif-33"/>
       <use xlink:href="#DejaVuSerif-2e" transform="translate(63.623047 0)"/>
       <use xlink:href="#DejaVuSerif-30" transform="translate(95.410156 0)"/>
      </g>
     </g>
    </g>
    <g id="text_18">
     <!-- Carrefour -->
     <g transform="translate(14.798438 143.316668) rotate(-90) scale(0.1 -0.1)">
      <defs>
       <path id="DejaVuSerif-43" d="M 4513 1234 
Q 4306 581 3820 245 
Q 3334 -91 2591 -91 
Q 2134 -91 1743 65 
Q 1353 222 1050 525 
Q 700 875 529 1320 
Q 359 1766 359 2328 
Q 359 3416 987 4083 
Q 1616 4750 2644 4750 
Q 3025 4750 3456 4650 
Q 3888 4550 4384 4347 
L 4384 3272 
L 4031 3272 
Q 3916 3859 3567 4137 
Q 3219 4416 2591 4416 
Q 1844 4416 1459 3886 
Q 1075 3356 1075 2328 
Q 1075 1303 1459 773 
Q 1844 244 2591 244 
Q 3113 244 3450 492 
Q 3788 741 3938 1234 
L 4513 1234 
z
" transform="scale(0.015625)"/>
       <path id="DejaVuSerif-72" d="M 3059 3328 
L 3059 2497 
L 2728 2497 
Q 2713 2744 2591 2866 
Q 2469 2988 2234 2988 
Q 1809 2988 1582 2694 
Q 1356 2400 1356 1850 
L 1356 331 
L 2022 331 
L 2022 0 
L 263 0 
L 263 331 
L 781 331 
L 781 2994 
L 231 2994 
L 231 3322 
L 1356 3322 
L 1356 2731 
Q 1525 3078 1790 3245 
Q 2056 3413 2438 3413 
Q 2578 3413 2733 3391 
Q 2888 3369 3059 3328 
z
" transform="scale(0.015625)"/>
       <path id="DejaVuSerif-66" d="M 2753 4078 
L 2450 4078 
Q 2447 4313 2317 4434 
Q 2188 4556 1941 4556 
Q 1619 4556 1487 4379 
Q 1356 4203 1356 3750 
L 1356 3322 
L 2284 3322 
L 2284 2988 
L 1356 2988 
L 1356 331 
L 2094 331 
L 2094 0 
L 231 0 
L 231 331 
L 781 331 
L 781 2988 
L 231 2988 
L 231 3322 
L 781 3322 
L 781 3738 
Q 781 4294 1070 4578 
Q 1359 4863 1919 4863 
Q 2128 4863 2337 4825 
Q 2547 4788 2753 4709 
L 2753 4078 
z
" transform="scale(0.015625)"/>
       <path id="DejaVuSerif-6f" d="M 1925 219 
Q 2388 219 2623 584 
Q 2859 950 2859 1663 
Q 2859 2375 2623 2739 
Q 2388 3103 1925 3103 
Q 1463 3103 1227 2739 
Q 991 2375 991 1663 
Q 991 950 1228 584 
Q 1466 219 1925 219 
z
M 1925 -91 
Q 1200 -91 759 389 
Q 319 869 319 1663 
Q 319 2456 758 2934 
Q 1197 3413 1925 3413 
Q 2653 3413 3092 2934 
Q 3531 2456 3531 1663 
Q 3531 869 3092 389 
Q 2653 -91 1925 -91 
z
" transform="scale(0.015625)"/>
       <path id="DejaVuSerif-75" d="M 2266 3322 
L 3341 3322 
L 3341 331 
L 3884 331 
L 3884 0 
L 2766 0 
L 2766 588 
Q 2606 256 2353 82 
Q 2100 -91 1766 -91 
Q 1213 -91 952 223 
Q 691 538 691 1209 
L 691 2988 
L 172 2988 
L 172 3322 
L 1269 3322 
L 1269 1388 
Q 1269 781 1417 556 
Q 1566 331 1947 331 
Q 2347 331 2556 625 
Q 2766 919 2766 1478 
L 2766 2988 
L 2266 2988 
L 2266 3322 
z
" transform="scale(0.015625)"/>
      </defs>
      <use xlink:href="#DejaVuSerif-43"/>
      <use xlink:href="#DejaVuSerif-61" transform="translate(76.513672 0)"/>
      <use xlink:href="#DejaVuSerif-72" transform="translate(136.132812 0)"/>
      <use xlink:href="#DejaVuSerif-72" transform="translate(183.935547 0)"/>
      <use xlink:href="#DejaVuSerif-65" transform="translate(231.738281 0)"/>
      <use xlink:href="#DejaVuSerif-66" transform="translate(290.917969 0)"/>
      <use xlink:href="#DejaVuSerif-6f" transform="translate(327.929688 0)"/>
      <use xlink:href="#DejaVuSerif-75" transform="translate(388.134766 0)"/>
      <use xlink:href="#DejaVuSerif-72" transform="translate(452.539062 0)"/>
     </g>
    </g>
   </g>
   <g id="patch_14">
    <path d="M 47.637295 143.838414 
L 69.671841 143.838414 
L 69.671841 132.466416 
L 47.637295 132.466416 
z
" clip-path="url(#p426a7cd73c)" style="fill: #c6dbef; stroke: #c6dbef; stroke-width: 0.25; stroke-linejoin: miter"/>
   </g>
   <g id="patch_15">
    <path d="M 75.180477 143.838414 
L 97.215023 143.838414 
L 97.215023 100.706079 
L 75.180477 100.706079 
z
" clip-path="url(#p426a7cd73c)" style="fill: #6aaed6; stroke: #6aaed6; stroke-width: 0.25; stroke-linejoin: miter"/>
   </g>
   <g id="patch_16">
    <path d="M 102.723659 143.838414 
L 124.758205 143.838414 
L 124.758205 120.552795 
L 102.723659 120.552795 
z
" clip-path="url(#p426a7cd73c)" style="fill: #2070b4; stroke: #2070b4; stroke-width: 0.25; stroke-linejoin: miter"/>
   </g>
   <g id="patch_17">
    <path d="M 43.78125 143.838414 
L 43.78125 92.760547 
" style="fill: none; stroke: #000000; stroke-width: 0.8; stroke-linejoin: miter; stroke-linecap: square"/>
   </g>
   <g id="patch_18">
    <path d="M 43.78125 143.838414 
L 128.61425 143.838414 
" style="fill: none; stroke: #000000; stroke-width: 0.8; stroke-linejoin: miter; stroke-linecap: square"/>
   </g>
   <g id="text_19">
    <!-- x1.00 -->
    <g transform="translate(48.870193 130.648976) scale(0.08 -0.08)">
     <use xlink:href="#ArialMT-78"/>
     <use xlink:href="#ArialMT-31" transform="translate(50 0)"/>
     <use xlink:href="#ArialMT-2e" transform="translate(105.615234 0)"/>
     <use xlink:href="#ArialMT-30" transform="translate(133.398438 0)"/>
     <use xlink:href="#ArialMT-30" transform="translate(189.013672 0)"/>
    </g>
   </g>
   <g id="text_20">
    <!-- x3.79 -->
    <g transform="translate(76.413375 98.888639) scale(0.08 -0.08)">
     <defs>
      <path id="ArialMT-33" d="M 269 1209 
L 831 1284 
Q 928 806 1161 595 
Q 1394 384 1728 384 
Q 2125 384 2398 659 
Q 2672 934 2672 1341 
Q 2672 1728 2419 1979 
Q 2166 2231 1775 2231 
Q 1616 2231 1378 2169 
L 1441 2663 
Q 1497 2656 1531 2656 
Q 1891 2656 2178 2843 
Q 2466 3031 2466 3422 
Q 2466 3731 2256 3934 
Q 2047 4138 1716 4138 
Q 1388 4138 1169 3931 
Q 950 3725 888 3313 
L 325 3413 
Q 428 3978 793 4289 
Q 1159 4600 1703 4600 
Q 2078 4600 2393 4439 
Q 2709 4278 2876 4000 
Q 3044 3722 3044 3409 
Q 3044 3113 2884 2869 
Q 2725 2625 2413 2481 
Q 2819 2388 3044 2092 
Q 3269 1797 3269 1353 
Q 3269 753 2831 336 
Q 2394 -81 1725 -81 
Q 1122 -81 723 278 
Q 325 638 269 1209 
z
" transform="scale(0.015625)"/>
      <path id="ArialMT-37" d="M 303 3981 
L 303 4522 
L 3269 4522 
L 3269 4084 
Q 2831 3619 2401 2847 
Q 1972 2075 1738 1259 
Q 1569 684 1522 0 
L 944 0 
Q 953 541 1156 1306 
Q 1359 2072 1739 2783 
Q 2119 3494 2547 3981 
L 303 3981 
z
" transform="scale(0.015625)"/>
      <path id="ArialMT-39" d="M 350 1059 
L 891 1109 
Q 959 728 1153 556 
Q 1347 384 1650 384 
Q 1909 384 2104 503 
Q 2300 622 2425 820 
Q 2550 1019 2634 1356 
Q 2719 1694 2719 2044 
Q 2719 2081 2716 2156 
Q 2547 1888 2255 1720 
Q 1963 1553 1622 1553 
Q 1053 1553 659 1965 
Q 266 2378 266 3053 
Q 266 3750 677 4175 
Q 1088 4600 1706 4600 
Q 2153 4600 2523 4359 
Q 2894 4119 3086 3673 
Q 3278 3228 3278 2384 
Q 3278 1506 3087 986 
Q 2897 466 2520 194 
Q 2144 -78 1638 -78 
Q 1100 -78 759 220 
Q 419 519 350 1059 
z
M 2653 3081 
Q 2653 3566 2395 3850 
Q 2138 4134 1775 4134 
Q 1400 4134 1122 3828 
Q 844 3522 844 3034 
Q 844 2597 1108 2323 
Q 1372 2050 1759 2050 
Q 2150 2050 2401 2323 
Q 2653 2597 2653 3081 
z
" transform="scale(0.015625)"/>
     </defs>
     <use xlink:href="#ArialMT-78"/>
     <use xlink:href="#ArialMT-33" transform="translate(50 0)"/>
     <use xlink:href="#ArialMT-2e" transform="translate(105.615234 0)"/>
     <use xlink:href="#ArialMT-37" transform="translate(133.398438 0)"/>
     <use xlink:href="#ArialMT-39" transform="translate(189.013672 0)"/>
    </g>
   </g>
   <g id="text_21">
    <!-- x2.05 -->
    <g transform="translate(103.956557 118.735355) scale(0.08 -0.08)">
     <defs>
      <path id="ArialMT-35" d="M 266 1200 
L 856 1250 
Q 922 819 1161 601 
Q 1400 384 1738 384 
Q 2144 384 2425 690 
Q 2706 997 2706 1503 
Q 2706 1984 2436 2262 
Q 2166 2541 1728 2541 
Q 1456 2541 1237 2417 
Q 1019 2294 894 2097 
L 366 2166 
L 809 4519 
L 3088 4519 
L 3088 3981 
L 1259 3981 
L 1013 2750 
Q 1425 3038 1878 3038 
Q 2478 3038 2890 2622 
Q 3303 2206 3303 1553 
Q 3303 931 2941 478 
Q 2500 -78 1738 -78 
Q 1113 -78 717 272 
Q 322 622 266 1200 
z
" transform="scale(0.015625)"/>
     </defs>
     <use xlink:href="#ArialMT-78"/>
     <use xlink:href="#ArialMT-32" transform="translate(50 0)"/>
     <use xlink:href="#ArialMT-2e" transform="translate(105.615234 0)"/>
     <use xlink:href="#ArialMT-30" transform="translate(133.398438 0)"/>
     <use xlink:href="#ArialMT-35" transform="translate(189.013672 0)"/>
    </g>
   </g>
  </g>
  <g id="axes_4">
   <g id="patch_19">
    <path d="M 138.98225 143.838414 
L 223.81525 143.838414 
L 223.81525 92.760547 
L 138.98225 92.760547 
z
" style="fill: #ffffff"/>
   </g>
   <g id="matplotlib.axis_7">
    <g id="xtick_4">
     <g id="line2d_11">
      <g>
       <use xlink:href="#mdf3b8f70ae" x="181.39875" y="143.838414" style="stroke: #000000; stroke-width: 0.8"/>
      </g>
     </g>
     <g id="text_22">
      <!-- 2 -->
      <g transform="translate(178.85375 156.917164) scale(0.08 -0.08)">
       <use xlink:href="#DejaVuSerif-32"/>
      </g>
     </g>
    </g>
   </g>
   <g id="matplotlib.axis_8">
    <g id="ytick_12"/>
    <g id="ytick_13"/>
    <g id="ytick_14"/>
   </g>
   <g id="patch_20">
    <path d="M 142.838295 143.838414 
L 164.872841 143.838414 
L 164.872841 132.466416 
L 142.838295 132.466416 
z
" clip-path="url(#pbf8c49076a)" style="fill: #c6dbef; stroke: #c6dbef; stroke-width: 0.25; stroke-linejoin: miter"/>
   </g>
   <g id="patch_21">
    <path d="M 170.381477 143.838414 
L 192.416023 143.838414 
L 192.416023 95.192826 
L 170.381477 95.192826 
z
" clip-path="url(#pbf8c49076a)" style="fill: #6aaed6; stroke: #6aaed6; stroke-width: 0.25; stroke-linejoin: miter"/>
   </g>
   <g id="patch_22">
    <path d="M 197.924659 143.838414 
L 219.959205 143.838414 
L 219.959205 116.779413 
L 197.924659 116.779413 
z
" clip-path="url(#pbf8c49076a)" style="fill: #2070b4; stroke: #2070b4; stroke-width: 0.25; stroke-linejoin: miter"/>
   </g>
   <g id="patch_23">
    <path d="M 138.98225 143.838414 
L 223.81525 143.838414 
" style="fill: none; stroke: #000000; stroke-width: 0.8; stroke-linejoin: miter; stroke-linecap: square"/>
   </g>
   <g id="text_23">
    <!-- x1.00 -->
    <g transform="translate(144.071193 130.648976) scale(0.08 -0.08)">
     <use xlink:href="#ArialMT-78"/>
     <use xlink:href="#ArialMT-31" transform="translate(50 0)"/>
     <use xlink:href="#ArialMT-2e" transform="translate(105.615234 0)"/>
     <use xlink:href="#ArialMT-30" transform="translate(133.398438 0)"/>
     <use xlink:href="#ArialMT-30" transform="translate(189.013672 0)"/>
    </g>
   </g>
   <g id="text_24">
    <!-- x4.28 -->
    <g transform="translate(171.614375 93.375386) scale(0.08 -0.08)">
     <defs>
      <path id="ArialMT-34" d="M 2069 0 
L 2069 1097 
L 81 1097 
L 81 1613 
L 2172 4581 
L 2631 4581 
L 2631 1613 
L 3250 1613 
L 3250 1097 
L 2631 1097 
L 2631 0 
L 2069 0 
z
M 2069 1613 
L 2069 3678 
L 634 1613 
L 2069 1613 
z
" transform="scale(0.015625)"/>
      <path id="ArialMT-38" d="M 1131 2484 
Q 781 2613 612 2850 
Q 444 3088 444 3419 
Q 444 3919 803 4259 
Q 1163 4600 1759 4600 
Q 2359 4600 2725 4251 
Q 3091 3903 3091 3403 
Q 3091 3084 2923 2848 
Q 2756 2613 2416 2484 
Q 2838 2347 3058 2040 
Q 3278 1734 3278 1309 
Q 3278 722 2862 322 
Q 2447 -78 1769 -78 
Q 1091 -78 675 323 
Q 259 725 259 1325 
Q 259 1772 486 2073 
Q 713 2375 1131 2484 
z
M 1019 3438 
Q 1019 3113 1228 2906 
Q 1438 2700 1772 2700 
Q 2097 2700 2305 2904 
Q 2513 3109 2513 3406 
Q 2513 3716 2298 3927 
Q 2084 4138 1766 4138 
Q 1444 4138 1231 3931 
Q 1019 3725 1019 3438 
z
M 838 1322 
Q 838 1081 952 856 
Q 1066 631 1291 507 
Q 1516 384 1775 384 
Q 2178 384 2440 643 
Q 2703 903 2703 1303 
Q 2703 1709 2433 1975 
Q 2163 2241 1756 2241 
Q 1359 2241 1098 1978 
Q 838 1716 838 1322 
z
" transform="scale(0.015625)"/>
     </defs>
     <use xlink:href="#ArialMT-78"/>
     <use xlink:href="#ArialMT-34" transform="translate(50 0)"/>
     <use xlink:href="#ArialMT-2e" transform="translate(105.615234 0)"/>
     <use xlink:href="#ArialMT-32" transform="translate(133.398438 0)"/>
     <use xlink:href="#ArialMT-38" transform="translate(189.013672 0)"/>
    </g>
   </g>
   <g id="text_25">
    <!-- x2.38 -->
    <g transform="translate(199.157557 114.961973) scale(0.08 -0.08)">
     <use xlink:href="#ArialMT-78"/>
     <use xlink:href="#ArialMT-32" transform="translate(50 0)"/>
     <use xlink:href="#ArialMT-2e" transform="translate(105.615234 0)"/>
     <use xlink:href="#ArialMT-33" transform="translate(133.398438 0)"/>
     <use xlink:href="#ArialMT-38" transform="translate(189.013672 0)"/>
    </g>
   </g>
  </g>
 </g>
 <defs>
  <clipPath id="p7db79e5238">
   <rect x="43.78125" y="12.886414" width="84.833" height="51.077868"/>
  </clipPath>
  <clipPath id="p4bce05671a">
   <rect x="138.98225" y="12.886414" width="84.833" height="51.077868"/>
  </clipPath>
  <clipPath id="p426a7cd73c">
   <rect x="43.78125" y="92.760547" width="84.833" height="51.077868"/>
  </clipPath>
  <clipPath id="pbf8c49076a">
   <rect x="138.98225" y="92.760547" width="84.833" height="51.077868"/>
  </clipPath>
 </defs>
</svg>
