<?xml version="1.0" encoding="utf-8" standalone="no"?>
<!DOCTYPE svg PUBLIC "-//W3C//DTD SVG 1.1//EN"
  "http://www.w3.org/Graphics/SVG/1.1/DTD/svg11.dtd">
<svg xmlns:xlink="http://www.w3.org/1999/xlink" width="221.247941pt" height="99.304011pt" viewBox="0 0 221.247941 99.304011" xmlns="http://www.w3.org/2000/svg" version="1.1">
 <metadata>
  <rdf:RDF xmlns:dc="http://purl.org/dc/elements/1.1/" xmlns:cc="http://creativecommons.org/ns#" xmlns:rdf="http://www.w3.org/1999/02/22-rdf-syntax-ns#">
   <cc:Work>
    <dc:type rdf:resource="http://purl.org/dc/dcmitype/StillImage"/>
    <dc:date>2025-12-03T08:33:54.763380</dc:date>
    <dc:format>image/svg+xml</dc:format>
    <dc:creator>
     <cc:Agent>
      <dc:title>Matplotlib v3.10.3, https://matplotlib.org/</dc:title>
     </cc:Agent>
    </dc:creator>
   </cc:Work>
  </rdf:RDF>
 </metadata>
 <defs>
  <style type="text/css">*{stroke-linejoin: round; stroke-linecap: butt}</style>
 </defs>
 <g id="figure_1">
  <g id="patch_1">
   <path d="M 0 99.304011 
L 221.247941 99.304011 
L 221.247941 -0 
L 0 -0 
z
" style="fill: #ffffff"/>
  </g>
  <g id="axes_1">
   <g id="patch_2">
    <path d="M 35.487941 35.522797 
L 78.514447 35.522797 
L 78.514447 11.573324 
L 35.487941 11.573324 
z
" style="fill: #ffffff"/>
   </g>
   <g id="matplotlib.axis_1">
    <g id="xtick_1">
     <g id="line2d_1">
      <defs>
       <path id="med27c1bd04" d="M 0 0 
L 0 2 
" style="stroke: #262626"/>
      </defs>
      <g>
       <use xlink:href="#med27c1bd04" x="57.001194" y="35.522797" style="fill: #262626; stroke: #262626"/>
      </g>
     </g>
     <g id="text_1">
      <!-- 1 -->
      <g style="fill: #262626" transform="translate(54.774319 46.341704) scale(0.07 -0.07)">
       <defs>
        <path id="DejaVuSerif-31" d="M 909 0 
L 909 331 
L 1722 331 
L 1722 4213 
L 781 3603 
L 781 4013 
L 1919 4750 
L 2350 4750 
L 2350 331 
L 3163 331 
L 3163 0 
L 909 0 
z
" transform="scale(0.015625)"/>
       </defs>
       <use xlink:href="#DejaVuSerif-31"/>
      </g>
     </g>
    </g>
   </g>
   <g id="matplotlib.axis_2">
    <g id="ytick_1">
     <g id="line2d_2">
      <defs>
       <path id="mc1d76578ea" d="M 0 0 
L -2 0 
" style="stroke: #262626"/>
      </defs>
      <g>
       <use xlink:href="#mc1d76578ea" x="35.487941" y="35.522797" style="fill: #262626; stroke: #262626"/>
      </g>
     </g>
     <g id="text_2">
      <!-- 0.0 -->
      <g style="fill: #262626" transform="translate(20.446066 37.802329) scale(0.06 -0.06)">
       <defs>
        <path id="DejaVuSerif-30" d="M 2034 219 
Q 2513 219 2750 744 
Q 2988 1269 2988 2328 
Q 2988 3391 2750 3916 
Q 2513 4441 2034 4441 
Q 1556 4441 1318 3916 
Q 1081 3391 1081 2328 
Q 1081 1269 1318 744 
Q 1556 219 2034 219 
z
M 2034 -91 
Q 1275 -91 848 546 
Q 422 1184 422 2328 
Q 422 3475 848 4112 
Q 1275 4750 2034 4750 
Q 2797 4750 3222 4112 
Q 3647 3475 3647 2328 
Q 3647 1184 3222 546 
Q 2797 -91 2034 -91 
z
" transform="scale(0.015625)"/>
        <path id="DejaVuSerif-2e" d="M 603 325 
Q 603 500 722 622 
Q 841 744 1019 744 
Q 1191 744 1312 622 
Q 1434 500 1434 325 
Q 1434 153 1312 31 
Q 1191 -91 1019 -91 
Q 841 -91 722 29 
Q 603 150 603 325 
z
" transform="scale(0.015625)"/>
       </defs>
       <use xlink:href="#DejaVuSerif-30"/>
       <use xlink:href="#DejaVuSerif-2e" transform="translate(63.623047 0)"/>
       <use xlink:href="#DejaVuSerif-30" transform="translate(95.410156 0)"/>
      </g>
     </g>
    </g>
    <g id="ytick_2">
     <g id="line2d_3">
      <g>
       <use xlink:href="#mc1d76578ea" x="35.487941" y="28.87595" style="fill: #262626; stroke: #262626"/>
      </g>
     </g>
     <g id="text_3">
      <!-- 5.0 -->
      <g style="fill: #262626" transform="translate(20.446066 31.155481) scale(0.06 -0.06)">
       <defs>
        <path id="DejaVuSerif-35" d="M 3219 4666 
L 3219 4153 
L 1081 4153 
L 1081 2816 
Q 1244 2928 1461 2984 
Q 1678 3041 1947 3041 
Q 2703 3041 3140 2622 
Q 3578 2203 3578 1478 
Q 3578 738 3136 323 
Q 2694 -91 1894 -91 
Q 1572 -91 1234 -12 
Q 897 66 544 225 
L 544 1131 
L 897 1131 
Q 925 688 1179 453 
Q 1434 219 1894 219 
Q 2388 219 2653 544 
Q 2919 869 2919 1478 
Q 2919 2084 2655 2407 
Q 2391 2731 1894 2731 
Q 1613 2731 1398 2631 
Q 1184 2531 1019 2322 
L 750 2322 
L 750 4666 
L 3219 4666 
z
" transform="scale(0.015625)"/>
       </defs>
       <use xlink:href="#DejaVuSerif-35"/>
       <use xlink:href="#DejaVuSerif-2e" transform="translate(63.623047 0)"/>
       <use xlink:href="#DejaVuSerif-30" transform="translate(95.410156 0)"/>
      </g>
     </g>
    </g>
    <g id="ytick_3">
     <g id="line2d_4">
      <g>
       <use xlink:href="#mc1d76578ea" x="35.487941" y="22.229103" style="fill: #262626; stroke: #262626"/>
      </g>
     </g>
     <g id="text_4">
      <!-- 10.0 -->
      <g style="fill: #262626" transform="translate(16.628566 24.508634) scale(0.06 -0.06)">
       <use xlink:href="#DejaVuSerif-31"/>
       <use xlink:href="#DejaVuSerif-30" transform="translate(63.623047 0)"/>
       <use xlink:href="#DejaVuSerif-2e" transform="translate(127.246094 0)"/>
       <use xlink:href="#DejaVuSerif-30" transform="translate(159.033203 0)"/>
      </g>
     </g>
    </g>
    <g id="ytick_4">
     <g id="line2d_5">
      <g>
       <use xlink:href="#mc1d76578ea" x="35.487941" y="15.582256" style="fill: #262626; stroke: #262626"/>
      </g>
     </g>
     <g id="text_5">
      <!-- 15.0 -->
      <g style="fill: #262626" transform="translate(16.628566 17.861787) scale(0.06 -0.06)">
       <use xlink:href="#DejaVuSerif-31"/>
       <use xlink:href="#DejaVuSerif-35" transform="translate(63.623047 0)"/>
       <use xlink:href="#DejaVuSerif-2e" transform="translate(127.246094 0)"/>
       <use xlink:href="#DejaVuSerif-30" transform="translate(159.033203 0)"/>
      </g>
     </g>
    </g>
    <g id="text_6">
     <!-- SPaRe -->
     <g style="fill: #262626" transform="translate(12.518906 34.936732) rotate(-90) scale(0.07 -0.07)">
      <defs>
       <path id="DejaVuSerif-53" d="M 594 225 
L 594 1288 
L 953 1284 
Q 969 753 1261 498 
Q 1553 244 2150 244 
Q 2706 244 2998 464 
Q 3291 684 3291 1106 
Q 3291 1444 3114 1625 
Q 2938 1806 2369 1978 
L 1753 2163 
Q 1084 2366 811 2669 
Q 538 2972 538 3500 
Q 538 4094 959 4422 
Q 1381 4750 2144 4750 
Q 2469 4750 2856 4679 
Q 3244 4609 3681 4475 
L 3681 3481 
L 3328 3481 
Q 3275 3975 2998 4195 
Q 2722 4416 2156 4416 
Q 1663 4416 1405 4214 
Q 1147 4013 1147 3628 
Q 1147 3294 1340 3103 
Q 1534 2913 2163 2725 
L 2741 2553 
Q 3375 2363 3645 2067 
Q 3916 1772 3916 1275 
Q 3916 597 3481 253 
Q 3047 -91 2188 -91 
Q 1803 -91 1404 -12 
Q 1006 66 594 225 
z
" transform="scale(0.015625)"/>
       <path id="DejaVuSerif-50" d="M 1581 2375 
L 2406 2375 
Q 2872 2375 3115 2626 
Q 3359 2878 3359 3353 
Q 3359 3831 3115 4081 
Q 2872 4331 2406 4331 
L 1581 4331 
L 1581 2375 
z
M 353 0 
L 353 331 
L 947 331 
L 947 4331 
L 353 4331 
L 353 4666 
L 2559 4666 
Q 3259 4666 3668 4311 
Q 4078 3956 4078 3353 
Q 4078 2753 3668 2397 
Q 3259 2041 2559 2041 
L 1581 2041 
L 1581 331 
L 2303 331 
L 2303 0 
L 353 0 
z
" transform="scale(0.015625)"/>
       <path id="DejaVuSerif-61" d="M 2547 1044 
L 2547 1747 
L 1806 1747 
Q 1378 1747 1168 1562 
Q 959 1378 959 997 
Q 959 650 1171 447 
Q 1384 244 1747 244 
Q 2106 244 2326 466 
Q 2547 688 2547 1044 
z
M 3122 2075 
L 3122 331 
L 3634 331 
L 3634 0 
L 2547 0 
L 2547 359 
Q 2356 128 2106 18 
Q 1856 -91 1522 -91 
Q 969 -91 644 203 
Q 319 497 319 997 
Q 319 1513 691 1797 
Q 1063 2081 1741 2081 
L 2547 2081 
L 2547 2309 
Q 2547 2688 2317 2895 
Q 2088 3103 1672 3103 
Q 1328 3103 1125 2947 
Q 922 2791 872 2484 
L 575 2484 
L 575 3156 
Q 875 3284 1158 3348 
Q 1441 3413 1709 3413 
Q 2400 3413 2761 3070 
Q 3122 2728 3122 2075 
z
" transform="scale(0.015625)"/>
       <path id="DejaVuSerif-52" d="M 3066 2316 
Q 3284 2256 3442 2114 
Q 3600 1972 3725 1716 
L 4403 331 
L 4972 331 
L 4972 0 
L 3872 0 
L 3144 1484 
Q 2934 1916 2759 2042 
Q 2584 2169 2278 2169 
L 1581 2169 
L 1581 331 
L 2241 331 
L 2241 0 
L 353 0 
L 353 331 
L 947 331 
L 947 4331 
L 353 4331 
L 353 4666 
L 2719 4666 
Q 3400 4666 3770 4341 
Q 4141 4016 4141 3419 
Q 4141 2938 3870 2661 
Q 3600 2384 3066 2316 
z
M 1581 2503 
L 2503 2503 
Q 2975 2503 3200 2726 
Q 3425 2950 3425 3419 
Q 3425 3888 3200 4109 
Q 2975 4331 2503 4331 
L 1581 4331 
L 1581 2503 
z
" transform="scale(0.015625)"/>
       <path id="DejaVuSerif-65" d="M 3469 1600 
L 991 1600 
L 991 1575 
Q 991 903 1244 561 
Q 1497 219 1991 219 
Q 2369 219 2611 417 
Q 2853 616 2950 1006 
L 3413 1006 
Q 3275 459 2904 184 
Q 2534 -91 1931 -91 
Q 1203 -91 761 389 
Q 319 869 319 1663 
Q 319 2450 753 2931 
Q 1188 3413 1894 3413 
Q 2647 3413 3050 2948 
Q 3453 2484 3469 1600 
z
M 2791 1931 
Q 2772 2513 2545 2808 
Q 2319 3103 1894 3103 
Q 1497 3103 1269 2806 
Q 1041 2509 991 1931 
L 2791 1931 
z
" transform="scale(0.015625)"/>
      </defs>
      <use xlink:href="#DejaVuSerif-53"/>
      <use xlink:href="#DejaVuSerif-50" transform="translate(68.505859 0)"/>
      <use xlink:href="#DejaVuSerif-61" transform="translate(131.291016 0)"/>
      <use xlink:href="#DejaVuSerif-52" transform="translate(190.910156 0)"/>
      <use xlink:href="#DejaVuSerif-65" transform="translate(266.203125 0)"/>
     </g>
    </g>
   </g>
   <g id="patch_3">
    <path d="M 37.443691 35.522797 
L 57.001194 35.522797 
L 57.001194 34.193428 
L 37.443691 34.193428 
z
" clip-path="url(#p03de263ac9)" style="fill: #c6dbef; stroke: #c6dbef; stroke-width: 0.25; stroke-linejoin: miter"/>
   </g>
   <g id="patch_4">
    <path d="M 57.001194 35.522797 
L 76.558696 35.522797 
L 76.558696 33.405293 
L 57.001194 33.405293 
z
" clip-path="url(#p03de263ac9)" style="fill: #6aaed6; stroke: #6aaed6; stroke-width: 0.25; stroke-linejoin: miter"/>
   </g>
   <g id="patch_5">
    <path d="M 35.487941 35.522797 
L 35.487941 11.573324 
" style="fill: none; stroke: #262626; stroke-linejoin: miter; stroke-linecap: square"/>
   </g>
   <g id="patch_6">
    <path d="M 35.487941 35.522797 
L 78.514447 35.522797 
" style="fill: none; stroke: #262626; stroke-linejoin: miter; stroke-linecap: square"/>
   </g>
   <g id="text_7">
    <!-- x1.0 -->
    <g transform="translate(41.552442 32.974341) scale(0.06 -0.06)">
     <defs>
      <path id="ArialMT-78" d="M 47 0 
L 1259 1725 
L 138 3319 
L 841 3319 
L 1350 2541 
Q 1494 2319 1581 2169 
Q 1719 2375 1834 2534 
L 2394 3319 
L 3066 3319 
L 1919 1756 
L 3153 0 
L 2463 0 
L 1781 1031 
L 1600 1309 
L 728 0 
L 47 0 
z
" transform="scale(0.015625)"/>
      <path id="ArialMT-31" d="M 2384 0 
L 1822 0 
L 1822 3584 
Q 1619 3391 1289 3197 
Q 959 3003 697 2906 
L 697 3450 
Q 1169 3672 1522 3987 
Q 1875 4303 2022 4600 
L 2384 4600 
L 2384 0 
z
" transform="scale(0.015625)"/>
      <path id="ArialMT-2e" d="M 581 0 
L 581 641 
L 1222 641 
L 1222 0 
L 581 0 
z
" transform="scale(0.015625)"/>
      <path id="ArialMT-30" d="M 266 2259 
Q 266 3072 433 3567 
Q 600 4063 929 4331 
Q 1259 4600 1759 4600 
Q 2128 4600 2406 4451 
Q 2684 4303 2865 4023 
Q 3047 3744 3150 3342 
Q 3253 2941 3253 2259 
Q 3253 1453 3087 958 
Q 2922 463 2592 192 
Q 2263 -78 1759 -78 
Q 1097 -78 719 397 
Q 266 969 266 2259 
z
M 844 2259 
Q 844 1131 1108 757 
Q 1372 384 1759 384 
Q 2147 384 2411 759 
Q 2675 1134 2675 2259 
Q 2675 3391 2411 3762 
Q 2147 4134 1753 4134 
Q 1366 4134 1134 3806 
Q 844 3388 844 2259 
z
" transform="scale(0.015625)"/>
     </defs>
     <use xlink:href="#ArialMT-78"/>
     <use xlink:href="#ArialMT-31" transform="translate(50 0)"/>
     <use xlink:href="#ArialMT-2e" transform="translate(105.615234 0)"/>
     <use xlink:href="#ArialMT-30" transform="translate(133.398438 0)"/>
    </g>
   </g>
   <g id="text_8">
    <!-- x1.6 -->
    <g transform="translate(61.109945 32.186206) scale(0.06 -0.06)">
     <defs>
      <path id="ArialMT-36" d="M 3184 3459 
L 2625 3416 
Q 2550 3747 2413 3897 
Q 2184 4138 1850 4138 
Q 1581 4138 1378 3988 
Q 1113 3794 959 3422 
Q 806 3050 800 2363 
Q 1003 2672 1297 2822 
Q 1591 2972 1913 2972 
Q 2475 2972 2870 2558 
Q 3266 2144 3266 1488 
Q 3266 1056 3080 686 
Q 2894 316 2569 119 
Q 2244 -78 1831 -78 
Q 1128 -78 684 439 
Q 241 956 241 2144 
Q 241 3472 731 4075 
Q 1159 4600 1884 4600 
Q 2425 4600 2770 4297 
Q 3116 3994 3184 3459 
z
M 888 1484 
Q 888 1194 1011 928 
Q 1134 663 1356 523 
Q 1578 384 1822 384 
Q 2178 384 2434 671 
Q 2691 959 2691 1453 
Q 2691 1928 2437 2201 
Q 2184 2475 1800 2475 
Q 1419 2475 1153 2201 
Q 888 1928 888 1484 
z
" transform="scale(0.015625)"/>
     </defs>
     <use xlink:href="#ArialMT-78"/>
     <use xlink:href="#ArialMT-31" transform="translate(50 0)"/>
     <use xlink:href="#ArialMT-2e" transform="translate(105.615234 0)"/>
     <use xlink:href="#ArialMT-36" transform="translate(133.398438 0)"/>
    </g>
   </g>
  </g>
  <g id="axes_2">
   <g id="patch_7">
    <path d="M 80.665772 35.522797 
L 123.692278 35.522797 
L 123.692278 11.573324 
L 80.665772 11.573324 
z
" style="fill: #ffffff"/>
   </g>
   <g id="matplotlib.axis_3">
    <g id="xtick_2">
     <g id="line2d_6">
      <g>
       <use xlink:href="#med27c1bd04" x="102.179025" y="35.522797" style="fill: #262626; stroke: #262626"/>
      </g>
     </g>
     <g id="text_9">
      <!-- 2 -->
      <g style="fill: #262626" transform="translate(99.95215 46.341704) scale(0.07 -0.07)">
       <defs>
        <path id="DejaVuSerif-32" d="M 819 3553 
L 469 3553 
L 469 4384 
Q 803 4563 1142 4656 
Q 1481 4750 1806 4750 
Q 2534 4750 2956 4397 
Q 3378 4044 3378 3438 
Q 3378 2753 2422 1800 
Q 2347 1728 2309 1691 
L 1131 513 
L 3078 513 
L 3078 1088 
L 3444 1088 
L 3444 0 
L 434 0 
L 434 341 
L 1850 1753 
Q 2319 2222 2519 2614 
Q 2719 3006 2719 3438 
Q 2719 3909 2473 4175 
Q 2228 4441 1797 4441 
Q 1350 4441 1106 4219 
Q 863 3997 819 3553 
z
" transform="scale(0.015625)"/>
       </defs>
       <use xlink:href="#DejaVuSerif-32"/>
      </g>
     </g>
    </g>
   </g>
   <g id="matplotlib.axis_4">
    <g id="ytick_5"/>
    <g id="ytick_6"/>
    <g id="ytick_7"/>
    <g id="ytick_8"/>
   </g>
   <g id="patch_8">
    <path d="M 82.621522 35.522797 
L 102.179025 35.522797 
L 102.179025 34.193428 
L 82.621522 34.193428 
z
" clip-path="url(#pdcc27cb3c5)" style="fill: #c6dbef; stroke: #c6dbef; stroke-width: 0.25; stroke-linejoin: miter"/>
   </g>
   <g id="patch_9">
    <path d="M 102.179025 35.522797 
L 121.736528 35.522797 
L 121.736528 31.168367 
L 102.179025 31.168367 
z
" clip-path="url(#pdcc27cb3c5)" style="fill: #6aaed6; stroke: #6aaed6; stroke-width: 0.25; stroke-linejoin: miter"/>
   </g>
   <g id="patch_10">
    <path d="M 80.665772 35.522797 
L 123.692278 35.522797 
" style="fill: none; stroke: #262626; stroke-linejoin: miter; stroke-linecap: square"/>
   </g>
   <g id="text_10">
    <!-- x1.0 -->
    <g transform="translate(86.730273 32.974341) scale(0.06 -0.06)">
     <use xlink:href="#ArialMT-78"/>
     <use xlink:href="#ArialMT-31" transform="translate(50 0)"/>
     <use xlink:href="#ArialMT-2e" transform="translate(105.615234 0)"/>
     <use xlink:href="#ArialMT-30" transform="translate(133.398438 0)"/>
    </g>
   </g>
   <g id="text_11">
    <!-- x3.3 -->
    <g transform="translate(106.287776 29.94928) scale(0.06 -0.06)">
     <defs>
      <path id="ArialMT-33" d="M 269 1209 
L 831 1284 
Q 928 806 1161 595 
Q 1394 384 1728 384 
Q 2125 384 2398 659 
Q 2672 934 2672 1341 
Q 2672 1728 2419 1979 
Q 2166 2231 1775 2231 
Q 1616 2231 1378 2169 
L 1441 2663 
Q 1497 2656 1531 2656 
Q 1891 2656 2178 2843 
Q 2466 3031 2466 3422 
Q 2466 3731 2256 3934 
Q 2047 4138 1716 4138 
Q 1388 4138 1169 3931 
Q 950 3725 888 3313 
L 325 3413 
Q 428 3978 793 4289 
Q 1159 4600 1703 4600 
Q 2078 4600 2393 4439 
Q 2709 4278 2876 4000 
Q 3044 3722 3044 3409 
Q 3044 3113 2884 2869 
Q 2725 2625 2413 2481 
Q 2819 2388 3044 2092 
Q 3269 1797 3269 1353 
Q 3269 753 2831 336 
Q 2394 -81 1725 -81 
Q 1122 -81 723 278 
Q 325 638 269 1209 
z
" transform="scale(0.015625)"/>
     </defs>
     <use xlink:href="#ArialMT-78"/>
     <use xlink:href="#ArialMT-33" transform="translate(50 0)"/>
     <use xlink:href="#ArialMT-2e" transform="translate(105.615234 0)"/>
     <use xlink:href="#ArialMT-33" transform="translate(133.398438 0)"/>
    </g>
   </g>
  </g>
  <g id="axes_3">
   <g id="patch_11">
    <path d="M 125.843603 35.522797 
L 168.870109 35.522797 
L 168.870109 11.573324 
L 125.843603 11.573324 
z
" style="fill: #ffffff"/>
   </g>
   <g id="matplotlib.axis_5">
    <g id="xtick_3">
     <g id="line2d_7">
      <g>
       <use xlink:href="#med27c1bd04" x="147.356856" y="35.522797" style="fill: #262626; stroke: #262626"/>
      </g>
     </g>
     <g id="text_12">
      <!-- 3 -->
      <g style="fill: #262626" transform="translate(145.129981 46.341704) scale(0.07 -0.07)">
       <defs>
        <path id="DejaVuSerif-33" d="M 622 4469 
Q 988 4606 1323 4678 
Q 1659 4750 1953 4750 
Q 2638 4750 3022 4454 
Q 3406 4159 3406 3634 
Q 3406 3213 3140 2930 
Q 2875 2647 2388 2547 
Q 2963 2466 3280 2130 
Q 3597 1794 3597 1259 
Q 3597 606 3158 257 
Q 2719 -91 1894 -91 
Q 1528 -91 1179 -12 
Q 831 66 488 225 
L 488 1131 
L 838 1131 
Q 869 681 1141 450 
Q 1413 219 1906 219 
Q 2384 219 2661 495 
Q 2938 772 2938 1253 
Q 2938 1803 2653 2086 
Q 2369 2369 1819 2369 
L 1522 2369 
L 1522 2688 
L 1678 2688 
Q 2225 2688 2498 2914 
Q 2772 3141 2772 3597 
Q 2772 4006 2547 4223 
Q 2322 4441 1900 4441 
Q 1478 4441 1245 4241 
Q 1013 4041 972 3647 
L 622 3647 
L 622 4469 
z
" transform="scale(0.015625)"/>
       </defs>
       <use xlink:href="#DejaVuSerif-33"/>
      </g>
     </g>
    </g>
   </g>
   <g id="matplotlib.axis_6">
    <g id="ytick_9"/>
    <g id="ytick_10"/>
    <g id="ytick_11"/>
    <g id="ytick_12"/>
   </g>
   <g id="patch_12">
    <path d="M 127.799353 35.522797 
L 147.356856 35.522797 
L 147.356856 34.193428 
L 127.799353 34.193428 
z
" clip-path="url(#p97106bd735)" style="fill: #c6dbef; stroke: #c6dbef; stroke-width: 0.25; stroke-linejoin: miter"/>
   </g>
   <g id="patch_13">
    <path d="M 147.356856 35.522797 
L 166.914359 35.522797 
L 166.914359 22.675431 
L 147.356856 22.675431 
z
" clip-path="url(#p97106bd735)" style="fill: #6aaed6; stroke: #6aaed6; stroke-width: 0.25; stroke-linejoin: miter"/>
   </g>
   <g id="patch_14">
    <path d="M 125.843603 35.522797 
L 168.870109 35.522797 
" style="fill: none; stroke: #262626; stroke-linejoin: miter; stroke-linecap: square"/>
   </g>
   <g id="text_13">
    <!-- x1.0 -->
    <g transform="translate(131.908105 32.974341) scale(0.06 -0.06)">
     <use xlink:href="#ArialMT-78"/>
     <use xlink:href="#ArialMT-31" transform="translate(50 0)"/>
     <use xlink:href="#ArialMT-2e" transform="translate(105.615234 0)"/>
     <use xlink:href="#ArialMT-30" transform="translate(133.398438 0)"/>
    </g>
   </g>
   <g id="text_14">
    <!-- x9.7 -->
    <g transform="translate(151.465608 21.456344) scale(0.06 -0.06)">
     <defs>
      <path id="ArialMT-39" d="M 350 1059 
L 891 1109 
Q 959 728 1153 556 
Q 1347 384 1650 384 
Q 1909 384 2104 503 
Q 2300 622 2425 820 
Q 2550 1019 2634 1356 
Q 2719 1694 2719 2044 
Q 2719 2081 2716 2156 
Q 2547 1888 2255 1720 
Q 1963 1553 1622 1553 
Q 1053 1553 659 1965 
Q 266 2378 266 3053 
Q 266 3750 677 4175 
Q 1088 4600 1706 4600 
Q 2153 4600 2523 4359 
Q 2894 4119 3086 3673 
Q 3278 3228 3278 2384 
Q 3278 1506 3087 986 
Q 2897 466 2520 194 
Q 2144 -78 1638 -78 
Q 1100 -78 759 220 
Q 419 519 350 1059 
z
M 2653 3081 
Q 2653 3566 2395 3850 
Q 2138 4134 1775 4134 
Q 1400 4134 1122 3828 
Q 844 3522 844 3034 
Q 844 2597 1108 2323 
Q 1372 2050 1759 2050 
Q 2150 2050 2401 2323 
Q 2653 2597 2653 3081 
z
" transform="scale(0.015625)"/>
      <path id="ArialMT-37" d="M 303 3981 
L 303 4522 
L 3269 4522 
L 3269 4084 
Q 2831 3619 2401 2847 
Q 1972 2075 1738 1259 
Q 1569 684 1522 0 
L 944 0 
Q 953 541 1156 1306 
Q 1359 2072 1739 2783 
Q 2119 3494 2547 3981 
L 303 3981 
z
" transform="scale(0.015625)"/>
     </defs>
     <use xlink:href="#ArialMT-78"/>
     <use xlink:href="#ArialMT-39" transform="translate(50 0)"/>
     <use xlink:href="#ArialMT-2e" transform="translate(105.615234 0)"/>
     <use xlink:href="#ArialMT-37" transform="translate(133.398438 0)"/>
    </g>
   </g>
  </g>
  <g id="axes_4">
   <g id="patch_15">
    <path d="M 171.021434 35.522797 
L 214.047941 35.522797 
L 214.047941 11.573324 
L 171.021434 11.573324 
z
" style="fill: #ffffff"/>
   </g>
   <g id="matplotlib.axis_7">
    <g id="xtick_4">
     <g id="line2d_8">
      <g>
       <use xlink:href="#med27c1bd04" x="192.534687" y="35.522797" style="fill: #262626; stroke: #262626"/>
      </g>
     </g>
     <g id="text_15">
      <!-- 4 -->
      <g style="fill: #262626" transform="translate(190.307812 46.341704) scale(0.07 -0.07)">
       <defs>
        <path id="DejaVuSerif-34" d="M 2234 1581 
L 2234 4063 
L 641 1581 
L 2234 1581 
z
M 3609 0 
L 1484 0 
L 1484 331 
L 2234 331 
L 2234 1247 
L 197 1247 
L 197 1588 
L 2241 4750 
L 2859 4750 
L 2859 1581 
L 3750 1581 
L 3750 1247 
L 2859 1247 
L 2859 331 
L 3609 331 
L 3609 0 
z
" transform="scale(0.015625)"/>
       </defs>
       <use xlink:href="#DejaVuSerif-34"/>
      </g>
     </g>
    </g>
   </g>
   <g id="matplotlib.axis_8">
    <g id="ytick_13"/>
    <g id="ytick_14"/>
    <g id="ytick_15"/>
    <g id="ytick_16"/>
   </g>
   <g id="patch_16">
    <path d="M 172.977185 35.522797 
L 192.534687 35.522797 
L 192.534687 34.193428 
L 172.977185 34.193428 
z
" clip-path="url(#p6acab11c0c)" style="fill: #c6dbef; stroke: #c6dbef; stroke-width: 0.25; stroke-linejoin: miter"/>
   </g>
   <g id="patch_17">
    <path d="M 192.534687 35.522797 
L 212.09219 35.522797 
L 212.09219 12.713775 
L 192.534687 12.713775 
z
" clip-path="url(#p6acab11c0c)" style="fill: #6aaed6; stroke: #6aaed6; stroke-width: 0.25; stroke-linejoin: miter"/>
   </g>
   <g id="patch_18">
    <path d="M 171.021434 35.522797 
L 214.047941 35.522797 
" style="fill: none; stroke: #262626; stroke-linejoin: miter; stroke-linecap: square"/>
   </g>
   <g id="text_16">
    <!-- x1.0 -->
    <g transform="translate(177.085936 32.974341) scale(0.06 -0.06)">
     <use xlink:href="#ArialMT-78"/>
     <use xlink:href="#ArialMT-31" transform="translate(50 0)"/>
     <use xlink:href="#ArialMT-2e" transform="translate(105.615234 0)"/>
     <use xlink:href="#ArialMT-30" transform="translate(133.398438 0)"/>
    </g>
   </g>
   <g id="text_17">
    <!-- x17.2 -->
    <g transform="translate(194.975158 11.494687) scale(0.06 -0.06)">
     <defs>
      <path id="ArialMT-32" d="M 3222 541 
L 3222 0 
L 194 0 
Q 188 203 259 391 
Q 375 700 629 1000 
Q 884 1300 1366 1694 
Q 2113 2306 2375 2664 
Q 2638 3022 2638 3341 
Q 2638 3675 2398 3904 
Q 2159 4134 1775 4134 
Q 1369 4134 1125 3890 
Q 881 3647 878 3216 
L 300 3275 
Q 359 3922 746 4261 
Q 1134 4600 1788 4600 
Q 2447 4600 2831 4234 
Q 3216 3869 3216 3328 
Q 3216 3053 3103 2787 
Q 2991 2522 2730 2228 
Q 2469 1934 1863 1422 
Q 1356 997 1212 845 
Q 1069 694 975 541 
L 3222 541 
z
" transform="scale(0.015625)"/>
     </defs>
     <use xlink:href="#ArialMT-78"/>
     <use xlink:href="#ArialMT-31" transform="translate(50 0)"/>
     <use xlink:href="#ArialMT-37" transform="translate(105.615234 0)"/>
     <use xlink:href="#ArialMT-2e" transform="translate(161.230469 0)"/>
     <use xlink:href="#ArialMT-32" transform="translate(189.013672 0)"/>
    </g>
   </g>
  </g>
  <g id="axes_5">
   <g id="patch_19">
    <path d="M 35.487941 79.829324 
L 78.514447 79.829324 
L 78.514447 55.87985 
L 35.487941 55.87985 
z
" style="fill: #ffffff"/>
   </g>
   <g id="matplotlib.axis_9">
    <g id="xtick_5">
     <g id="line2d_9">
      <g>
       <use xlink:href="#med27c1bd04" x="57.001194" y="79.829324" style="fill: #262626; stroke: #262626"/>
      </g>
     </g>
     <g id="text_18">
      <!-- 1 -->
      <g style="fill: #262626" transform="translate(54.774319 90.64823) scale(0.07 -0.07)">
       <use xlink:href="#DejaVuSerif-31"/>
      </g>
     </g>
    </g>
   </g>
   <g id="matplotlib.axis_10">
    <g id="ytick_17">
     <g id="line2d_10">
      <g>
       <use xlink:href="#mc1d76578ea" x="35.487941" y="79.829324" style="fill: #262626; stroke: #262626"/>
      </g>
     </g>
     <g id="text_19">
      <!-- 0.0 -->
      <g style="fill: #262626" transform="translate(20.446066 82.108855) scale(0.06 -0.06)">
       <use xlink:href="#DejaVuSerif-30"/>
       <use xlink:href="#DejaVuSerif-2e" transform="translate(63.623047 0)"/>
       <use xlink:href="#DejaVuSerif-30" transform="translate(95.410156 0)"/>
      </g>
     </g>
    </g>
    <g id="ytick_18">
     <g id="line2d_11">
      <g>
       <use xlink:href="#mc1d76578ea" x="35.487941" y="72.171832" style="fill: #262626; stroke: #262626"/>
      </g>
     </g>
     <g id="text_20">
      <!-- 0.4 -->
      <g style="fill: #262626" transform="translate(20.446066 74.451363) scale(0.06 -0.06)">
       <use xlink:href="#DejaVuSerif-30"/>
       <use xlink:href="#DejaVuSerif-2e" transform="translate(63.623047 0)"/>
       <use xlink:href="#DejaVuSerif-34" transform="translate(95.410156 0)"/>
      </g>
     </g>
    </g>
    <g id="ytick_19">
     <g id="line2d_12">
      <g>
       <use xlink:href="#mc1d76578ea" x="35.487941" y="64.51434" style="fill: #262626; stroke: #262626"/>
      </g>
     </g>
     <g id="text_21">
      <!-- 0.8 -->
      <g style="fill: #262626" transform="translate(20.446066 66.793871) scale(0.06 -0.06)">
       <defs>
        <path id="DejaVuSerif-38" d="M 2981 1275 
Q 2981 1775 2732 2051 
Q 2484 2328 2034 2328 
Q 1584 2328 1336 2051 
Q 1088 1775 1088 1275 
Q 1088 772 1336 495 
Q 1584 219 2034 219 
Q 2484 219 2732 495 
Q 2981 772 2981 1275 
z
M 2853 3541 
Q 2853 3966 2637 4203 
Q 2422 4441 2034 4441 
Q 1650 4441 1433 4203 
Q 1216 3966 1216 3541 
Q 1216 3113 1433 2875 
Q 1650 2638 2034 2638 
Q 2422 2638 2637 2875 
Q 2853 3113 2853 3541 
z
M 2516 2484 
Q 3047 2413 3344 2092 
Q 3641 1772 3641 1275 
Q 3641 619 3225 264 
Q 2809 -91 2034 -91 
Q 1263 -91 845 264 
Q 428 619 428 1275 
Q 428 1772 725 2092 
Q 1022 2413 1556 2484 
Q 1084 2569 832 2842 
Q 581 3116 581 3541 
Q 581 4103 968 4426 
Q 1356 4750 2034 4750 
Q 2713 4750 3100 4426 
Q 3488 4103 3488 3541 
Q 3488 3116 3236 2842 
Q 2984 2569 2516 2484 
z
" transform="scale(0.015625)"/>
       </defs>
       <use xlink:href="#DejaVuSerif-30"/>
       <use xlink:href="#DejaVuSerif-2e" transform="translate(63.623047 0)"/>
       <use xlink:href="#DejaVuSerif-38" transform="translate(95.410156 0)"/>
      </g>
     </g>
    </g>
    <g id="ytick_20">
     <g id="line2d_13">
      <g>
       <use xlink:href="#mc1d76578ea" x="35.487941" y="56.856848" style="fill: #262626; stroke: #262626"/>
      </g>
     </g>
     <g id="text_22">
      <!-- 1.2 -->
      <g style="fill: #262626" transform="translate(20.446066 59.13638) scale(0.06 -0.06)">
       <use xlink:href="#DejaVuSerif-31"/>
       <use xlink:href="#DejaVuSerif-2e" transform="translate(63.623047 0)"/>
       <use xlink:href="#DejaVuSerif-32" transform="translate(95.410156 0)"/>
      </g>
     </g>
    </g>
    <g id="text_23">
     <!-- Carrefour -->
     <g style="fill: #262626" transform="translate(12.518906 85.366618) rotate(-90) scale(0.07 -0.07)">
      <defs>
       <path id="DejaVuSerif-43" d="M 4513 1234 
Q 4306 581 3820 245 
Q 3334 -91 2591 -91 
Q 2134 -91 1743 65 
Q 1353 222 1050 525 
Q 700 875 529 1320 
Q 359 1766 359 2328 
Q 359 3416 987 4083 
Q 1616 4750 2644 4750 
Q 3025 4750 3456 4650 
Q 3888 4550 4384 4347 
L 4384 3272 
L 4031 3272 
Q 3916 3859 3567 4137 
Q 3219 4416 2591 4416 
Q 1844 4416 1459 3886 
Q 1075 3356 1075 2328 
Q 1075 1303 1459 773 
Q 1844 244 2591 244 
Q 3113 244 3450 492 
Q 3788 741 3938 1234 
L 4513 1234 
z
" transform="scale(0.015625)"/>
       <path id="DejaVuSerif-72" d="M 3059 3328 
L 3059 2497 
L 2728 2497 
Q 2713 2744 2591 2866 
Q 2469 2988 2234 2988 
Q 1809 2988 1582 2694 
Q 1356 2400 1356 1850 
L 1356 331 
L 2022 331 
L 2022 0 
L 263 0 
L 263 331 
L 781 331 
L 781 2994 
L 231 2994 
L 231 3322 
L 1356 3322 
L 1356 2731 
Q 1525 3078 1790 3245 
Q 2056 3413 2438 3413 
Q 2578 3413 2733 3391 
Q 2888 3369 3059 3328 
z
" transform="scale(0.015625)"/>
       <path id="DejaVuSerif-66" d="M 2753 4078 
L 2450 4078 
Q 2447 4313 2317 4434 
Q 2188 4556 1941 4556 
Q 1619 4556 1487 4379 
Q 1356 4203 1356 3750 
L 1356 3322 
L 2284 3322 
L 2284 2988 
L 1356 2988 
L 1356 331 
L 2094 331 
L 2094 0 
L 231 0 
L 231 331 
L 781 331 
L 781 2988 
L 231 2988 
L 231 3322 
L 781 3322 
L 781 3738 
Q 781 4294 1070 4578 
Q 1359 4863 1919 4863 
Q 2128 4863 2337 4825 
Q 2547 4788 2753 4709 
L 2753 4078 
z
" transform="scale(0.015625)"/>
       <path id="DejaVuSerif-6f" d="M 1925 219 
Q 2388 219 2623 584 
Q 2859 950 2859 1663 
Q 2859 2375 2623 2739 
Q 2388 3103 1925 3103 
Q 1463 3103 1227 2739 
Q 991 2375 991 1663 
Q 991 950 1228 584 
Q 1466 219 1925 219 
z
M 1925 -91 
Q 1200 -91 759 389 
Q 319 869 319 1663 
Q 319 2456 758 2934 
Q 1197 3413 1925 3413 
Q 2653 3413 3092 2934 
Q 3531 2456 3531 1663 
Q 3531 869 3092 389 
Q 2653 -91 1925 -91 
z
" transform="scale(0.015625)"/>
       <path id="DejaVuSerif-75" d="M 2266 3322 
L 3341 3322 
L 3341 331 
L 3884 331 
L 3884 0 
L 2766 0 
L 2766 588 
Q 2606 256 2353 82 
Q 2100 -91 1766 -91 
Q 1213 -91 952 223 
Q 691 538 691 1209 
L 691 2988 
L 172 2988 
L 172 3322 
L 1269 3322 
L 1269 1388 
Q 1269 781 1417 556 
Q 1566 331 1947 331 
Q 2347 331 2556 625 
Q 2766 919 2766 1478 
L 2766 2988 
L 2266 2988 
L 2266 3322 
z
" transform="scale(0.015625)"/>
      </defs>
      <use xlink:href="#DejaVuSerif-43"/>
      <use xlink:href="#DejaVuSerif-61" transform="translate(76.513672 0)"/>
      <use xlink:href="#DejaVuSerif-72" transform="translate(136.132812 0)"/>
      <use xlink:href="#DejaVuSerif-72" transform="translate(183.935547 0)"/>
      <use xlink:href="#DejaVuSerif-65" transform="translate(231.738281 0)"/>
      <use xlink:href="#DejaVuSerif-66" transform="translate(290.917969 0)"/>
      <use xlink:href="#DejaVuSerif-6f" transform="translate(327.929688 0)"/>
      <use xlink:href="#DejaVuSerif-75" transform="translate(388.134766 0)"/>
      <use xlink:href="#DejaVuSerif-72" transform="translate(452.539062 0)"/>
     </g>
    </g>
   </g>
   <g id="patch_20">
    <path d="M 37.443691 79.829324 
L 57.001194 79.829324 
L 57.001194 60.685594 
L 37.443691 60.685594 
z
" clip-path="url(#pa34fbb3f72)" style="fill: #c6dbef; stroke: #c6dbef; stroke-width: 0.25; stroke-linejoin: miter"/>
   </g>
   <g id="patch_21">
    <path d="M 57.001194 79.829324 
L 76.558696 79.829324 
L 76.558696 58.580991 
L 57.001194 58.580991 
z
" clip-path="url(#pa34fbb3f72)" style="fill: #6aaed6; stroke: #6aaed6; stroke-width: 0.25; stroke-linejoin: miter"/>
   </g>
   <g id="patch_22">
    <path d="M 35.487941 79.829324 
L 35.487941 55.87985 
" style="fill: none; stroke: #262626; stroke-linejoin: miter; stroke-linecap: square"/>
   </g>
   <g id="patch_23">
    <path d="M 35.487941 79.829324 
L 78.514447 79.829324 
" style="fill: none; stroke: #262626; stroke-linejoin: miter; stroke-linecap: square"/>
   </g>
   <g id="text_24">
    <!-- x1.0 -->
    <g transform="translate(41.552442 59.11022) scale(0.06 -0.06)">
     <use xlink:href="#ArialMT-78"/>
     <use xlink:href="#ArialMT-31" transform="translate(50 0)"/>
     <use xlink:href="#ArialMT-2e" transform="translate(105.615234 0)"/>
     <use xlink:href="#ArialMT-30" transform="translate(133.398438 0)"/>
    </g>
   </g>
   <g id="text_25">
    <!-- x1.1 -->
    <g transform="translate(61.109945 57.005616) scale(0.06 -0.06)">
     <use xlink:href="#ArialMT-78"/>
     <use xlink:href="#ArialMT-31" transform="translate(50 0)"/>
     <use xlink:href="#ArialMT-2e" transform="translate(105.615234 0)"/>
     <use xlink:href="#ArialMT-31" transform="translate(133.398438 0)"/>
    </g>
   </g>
  </g>
  <g id="axes_6">
   <g id="patch_24">
    <path d="M 80.665772 79.829324 
L 123.692278 79.829324 
L 123.692278 55.87985 
L 80.665772 55.87985 
z
" style="fill: #ffffff"/>
   </g>
   <g id="matplotlib.axis_11">
    <g id="xtick_6">
     <g id="line2d_14">
      <g>
       <use xlink:href="#med27c1bd04" x="102.179025" y="79.829324" style="fill: #262626; stroke: #262626"/>
      </g>
     </g>
     <g id="text_26">
      <!-- 2 -->
      <g style="fill: #262626" transform="translate(99.95215 90.64823) scale(0.07 -0.07)">
       <use xlink:href="#DejaVuSerif-32"/>
      </g>
     </g>
    </g>
   </g>
   <g id="matplotlib.axis_12">
    <g id="ytick_21"/>
    <g id="ytick_22"/>
    <g id="ytick_23"/>
    <g id="ytick_24"/>
   </g>
   <g id="patch_25">
    <path d="M 82.621522 79.829324 
L 102.179025 79.829324 
L 102.179025 60.685594 
L 82.621522 60.685594 
z
" clip-path="url(#pf53b3596b4)" style="fill: #c6dbef; stroke: #c6dbef; stroke-width: 0.25; stroke-linejoin: miter"/>
   </g>
   <g id="patch_26">
    <path d="M 102.179025 79.829324 
L 121.736528 79.829324 
L 121.736528 57.200049 
L 102.179025 57.200049 
z
" clip-path="url(#pf53b3596b4)" style="fill: #6aaed6; stroke: #6aaed6; stroke-width: 0.25; stroke-linejoin: miter"/>
   </g>
   <g id="patch_27">
    <path d="M 80.665772 79.829324 
L 123.692278 79.829324 
" style="fill: none; stroke: #262626; stroke-linejoin: miter; stroke-linecap: square"/>
   </g>
   <g id="text_27">
    <!-- x1.0 -->
    <g transform="translate(86.730273 59.11022) scale(0.06 -0.06)">
     <use xlink:href="#ArialMT-78"/>
     <use xlink:href="#ArialMT-31" transform="translate(50 0)"/>
     <use xlink:href="#ArialMT-2e" transform="translate(105.615234 0)"/>
     <use xlink:href="#ArialMT-30" transform="translate(133.398438 0)"/>
    </g>
   </g>
   <g id="text_28">
    <!-- x1.2 -->
    <g transform="translate(106.287776 55.624675) scale(0.06 -0.06)">
     <use xlink:href="#ArialMT-78"/>
     <use xlink:href="#ArialMT-31" transform="translate(50 0)"/>
     <use xlink:href="#ArialMT-2e" transform="translate(105.615234 0)"/>
     <use xlink:href="#ArialMT-32" transform="translate(133.398438 0)"/>
    </g>
   </g>
  </g>
  <g id="axes_7">
   <g id="patch_28">
    <path d="M 125.843603 79.829324 
L 168.870109 79.829324 
L 168.870109 55.87985 
L 125.843603 55.87985 
z
" style="fill: #ffffff"/>
   </g>
   <g id="matplotlib.axis_13">
    <g id="xtick_7">
     <g id="line2d_15">
      <g>
       <use xlink:href="#med27c1bd04" x="147.356856" y="79.829324" style="fill: #262626; stroke: #262626"/>
      </g>
     </g>
     <g id="text_29">
      <!-- 3 -->
      <g style="fill: #262626" transform="translate(145.129981 90.64823) scale(0.07 -0.07)">
       <use xlink:href="#DejaVuSerif-33"/>
      </g>
     </g>
    </g>
   </g>
   <g id="matplotlib.axis_14">
    <g id="ytick_25"/>
    <g id="ytick_26"/>
    <g id="ytick_27"/>
    <g id="ytick_28"/>
   </g>
   <g id="patch_29">
    <path d="M 127.799353 79.829324 
L 147.356856 79.829324 
L 147.356856 60.685594 
L 127.799353 60.685594 
z
" clip-path="url(#p8377f1a750)" style="fill: #c6dbef; stroke: #c6dbef; stroke-width: 0.25; stroke-linejoin: miter"/>
   </g>
   <g id="patch_30">
    <path d="M 147.356856 79.829324 
L 166.914359 79.829324 
L 166.914359 57.213888 
L 147.356856 57.213888 
z
" clip-path="url(#p8377f1a750)" style="fill: #6aaed6; stroke: #6aaed6; stroke-width: 0.25; stroke-linejoin: miter"/>
   </g>
   <g id="patch_31">
    <path d="M 125.843603 79.829324 
L 168.870109 79.829324 
" style="fill: none; stroke: #262626; stroke-linejoin: miter; stroke-linecap: square"/>
   </g>
   <g id="text_30">
    <!-- x1.0 -->
    <g transform="translate(131.908105 59.11022) scale(0.06 -0.06)">
     <use xlink:href="#ArialMT-78"/>
     <use xlink:href="#ArialMT-31" transform="translate(50 0)"/>
     <use xlink:href="#ArialMT-2e" transform="translate(105.615234 0)"/>
     <use xlink:href="#ArialMT-30" transform="translate(133.398438 0)"/>
    </g>
   </g>
   <g id="text_31">
    <!-- x1.2 -->
    <g transform="translate(151.465608 55.638514) scale(0.06 -0.06)">
     <use xlink:href="#ArialMT-78"/>
     <use xlink:href="#ArialMT-31" transform="translate(50 0)"/>
     <use xlink:href="#ArialMT-2e" transform="translate(105.615234 0)"/>
     <use xlink:href="#ArialMT-32" transform="translate(133.398438 0)"/>
    </g>
   </g>
  </g>
  <g id="axes_8">
   <g id="patch_32">
    <path d="M 171.021434 79.829324 
L 214.047941 79.829324 
L 214.047941 55.87985 
L 171.021434 55.87985 
z
" style="fill: #ffffff"/>
   </g>
   <g id="matplotlib.axis_15">
    <g id="xtick_8">
     <g id="line2d_16">
      <g>
       <use xlink:href="#med27c1bd04" x="192.534687" y="79.829324" style="fill: #262626; stroke: #262626"/>
      </g>
     </g>
     <g id="text_32">
      <!-- 4 -->
      <g style="fill: #262626" transform="translate(190.307812 90.64823) scale(0.07 -0.07)">
       <use xlink:href="#DejaVuSerif-34"/>
      </g>
     </g>
    </g>
   </g>
   <g id="matplotlib.axis_16">
    <g id="ytick_29"/>
    <g id="ytick_30"/>
    <g id="ytick_31"/>
    <g id="ytick_32"/>
   </g>
   <g id="patch_33">
    <path d="M 172.977185 79.829324 
L 192.534687 79.829324 
L 192.534687 60.685594 
L 172.977185 60.685594 
z
" clip-path="url(#p3114537fd6)" style="fill: #c6dbef; stroke: #c6dbef; stroke-width: 0.25; stroke-linejoin: miter"/>
   </g>
   <g id="patch_34">
    <path d="M 192.534687 79.829324 
L 212.09219 79.829324 
L 212.09219 57.020301 
L 192.534687 57.020301 
z
" clip-path="url(#p3114537fd6)" style="fill: #6aaed6; stroke: #6aaed6; stroke-width: 0.25; stroke-linejoin: miter"/>
   </g>
   <g id="patch_35">
    <path d="M 171.021434 79.829324 
L 214.047941 79.829324 
" style="fill: none; stroke: #262626; stroke-linejoin: miter; stroke-linecap: square"/>
   </g>
   <g id="text_33">
    <!-- x1.0 -->
    <g transform="translate(177.085936 59.11022) scale(0.06 -0.06)">
     <use xlink:href="#ArialMT-78"/>
     <use xlink:href="#ArialMT-31" transform="translate(50 0)"/>
     <use xlink:href="#ArialMT-2e" transform="translate(105.615234 0)"/>
     <use xlink:href="#ArialMT-30" transform="translate(133.398438 0)"/>
    </g>
   </g>
   <g id="text_34">
    <!-- x1.2 -->
    <g transform="translate(196.643439 55.444927) scale(0.06 -0.06)">
     <use xlink:href="#ArialMT-78"/>
     <use xlink:href="#ArialMT-31" transform="translate(50 0)"/>
     <use xlink:href="#ArialMT-2e" transform="translate(105.615234 0)"/>
     <use xlink:href="#ArialMT-32" transform="translate(133.398438 0)"/>
    </g>
   </g>
  </g>
 </g>
 <defs>
  <clipPath id="p03de263ac9">
   <rect x="35.487941" y="11.573324" width="43.026506" height="23.949474"/>
  </clipPath>
  <clipPath id="pdcc27cb3c5">
   <rect x="80.665772" y="11.573324" width="43.026506" height="23.949474"/>
  </clipPath>
  <clipPath id="p97106bd735">
   <rect x="125.843603" y="11.573324" width="43.026506" height="23.949474"/>
  </clipPath>
  <clipPath id="p6acab11c0c">
   <rect x="171.021434" y="11.573324" width="43.026506" height="23.949474"/>
  </clipPath>
  <clipPath id="pa34fbb3f72">
   <rect x="35.487941" y="55.87985" width="43.026506" height="23.949474"/>
  </clipPath>
  <clipPath id="pf53b3596b4">
   <rect x="80.665772" y="55.87985" width="43.026506" height="23.949474"/>
  </clipPath>
  <clipPath id="p8377f1a750">
   <rect x="125.843603" y="55.87985" width="43.026506" height="23.949474"/>
  </clipPath>
  <clipPath id="p3114537fd6">
   <rect x="171.021434" y="55.87985" width="43.026506" height="23.949474"/>
  </clipPath>
 </defs>
</svg>
