<?xml version="1.0" encoding="utf-8" standalone="no"?>
<!DOCTYPE svg PUBLIC "-//W3C//DTD SVG 1.1//EN"
  "http://www.w3.org/Graphics/SVG/1.1/DTD/svg11.dtd">
<svg xmlns:xlink="http://www.w3.org/1999/xlink" width="221.0155pt" height="104.267011pt" viewBox="0 0 221.0155 104.267011" xmlns="http://www.w3.org/2000/svg" version="1.1">
 <metadata>
  <rdf:RDF xmlns:dc="http://purl.org/dc/elements/1.1/" xmlns:cc="http://creativecommons.org/ns#" xmlns:rdf="http://www.w3.org/1999/02/22-rdf-syntax-ns#">
   <cc:Work>
    <dc:type rdf:resource="http://purl.org/dc/dcmitype/StillImage"/>
    <dc:date>2025-12-12T16:16:07.223476</dc:date>
    <dc:format>image/svg+xml</dc:format>
    <dc:creator>
     <cc:Agent>
      <dc:title>Matplotlib v3.10.3, https://matplotlib.org/</dc:title>
     </cc:Agent>
    </dc:creator>
   </cc:Work>
  </rdf:RDF>
 </metadata>
 <defs>
  <style type="text/css">*{stroke-linejoin: round; stroke-linecap: butt}</style>
 </defs>
 <g id="figure_1">
  <g id="patch_1">
   <path d="M 0 104.267011 
L 221.0155 104.267011 
L 221.0155 0 
L 0 0 
z
" style="fill: #ffffff"/>
  </g>
  <g id="axes_1">
   <g id="patch_2">
    <path d="M 36.8755 77.846906 
L 96.2755 77.846906 
L 96.2755 11.318906 
L 36.8755 11.318906 
z
" style="fill: #ffffff"/>
   </g>
   <g id="matplotlib.axis_1">
    <g id="xtick_1">
     <g id="line2d_1">
      <defs>
       <path id="m75960a58f5" d="M 0 0 
L 0 2 
" style="stroke: #262626"/>
      </defs>
      <g>
       <use xlink:href="#m75960a58f5" x="51.505733" y="77.846906" style="fill: #262626; stroke: #262626"/>
      </g>
     </g>
     <g id="text_1">
      <!-- glove-100 -->
      <g style="fill: #262626" transform="translate(36.549668 102.857419) rotate(-25) scale(0.07 -0.07)">
       <defs>
        <path id="DejaVuSerif-67" d="M 3359 2988 
L 3359 72 
Q 3359 -644 2965 -1033 
Q 2572 -1422 1844 -1422 
Q 1516 -1422 1216 -1362 
Q 916 -1303 641 -1184 
L 641 -488 
L 941 -488 
Q 997 -813 1206 -963 
Q 1416 -1113 1806 -1113 
Q 2313 -1113 2548 -827 
Q 2784 -541 2784 72 
L 2784 519 
Q 2616 206 2355 57 
Q 2094 -91 1709 -91 
Q 1097 -91 708 395 
Q 319 881 319 1663 
Q 319 2444 706 2928 
Q 1094 3413 1709 3413 
Q 2094 3413 2355 3264 
Q 2616 3116 2784 2803 
L 2784 3322 
L 3909 3322 
L 3909 2988 
L 3359 2988 
z
M 2784 1825 
Q 2784 2422 2554 2737 
Q 2325 3053 1888 3053 
Q 1444 3053 1217 2703 
Q 991 2353 991 1663 
Q 991 975 1217 622 
Q 1444 269 1888 269 
Q 2325 269 2554 583 
Q 2784 897 2784 1497 
L 2784 1825 
z
" transform="scale(0.015625)"/>
        <path id="DejaVuSerif-6c" d="M 1313 331 
L 1856 331 
L 1856 0 
L 184 0 
L 184 331 
L 738 331 
L 738 4531 
L 184 4531 
L 184 4863 
L 1313 4863 
L 1313 331 
z
" transform="scale(0.015625)"/>
        <path id="DejaVuSerif-6f" d="M 1925 219 
Q 2388 219 2623 584 
Q 2859 950 2859 1663 
Q 2859 2375 2623 2739 
Q 2388 3103 1925 3103 
Q 1463 3103 1227 2739 
Q 991 2375 991 1663 
Q 991 950 1228 584 
Q 1466 219 1925 219 
z
M 1925 -91 
Q 1200 -91 759 389 
Q 319 869 319 1663 
Q 319 2456 758 2934 
Q 1197 3413 1925 3413 
Q 2653 3413 3092 2934 
Q 3531 2456 3531 1663 
Q 3531 869 3092 389 
Q 2653 -91 1925 -91 
z
" transform="scale(0.015625)"/>
        <path id="DejaVuSerif-76" d="M 1581 0 
L 359 2988 
L -19 2988 
L -19 3322 
L 1509 3322 
L 1509 2988 
L 978 2988 
L 1913 703 
L 2847 2988 
L 2350 2988 
L 2350 3322 
L 3597 3322 
L 3597 2988 
L 3225 2988 
L 2003 0 
L 1581 0 
z
" transform="scale(0.015625)"/>
        <path id="DejaVuSerif-65" d="M 3469 1600 
L 991 1600 
L 991 1575 
Q 991 903 1244 561 
Q 1497 219 1991 219 
Q 2369 219 2611 417 
Q 2853 616 2950 1006 
L 3413 1006 
Q 3275 459 2904 184 
Q 2534 -91 1931 -91 
Q 1203 -91 761 389 
Q 319 869 319 1663 
Q 319 2450 753 2931 
Q 1188 3413 1894 3413 
Q 2647 3413 3050 2948 
Q 3453 2484 3469 1600 
z
M 2791 1931 
Q 2772 2513 2545 2808 
Q 2319 3103 1894 3103 
Q 1497 3103 1269 2806 
Q 1041 2509 991 1931 
L 2791 1931 
z
" transform="scale(0.015625)"/>
        <path id="DejaVuSerif-2d" d="M 281 1959 
L 1881 1959 
L 1881 1472 
L 281 1472 
L 281 1959 
z
" transform="scale(0.015625)"/>
        <path id="DejaVuSerif-31" d="M 909 0 
L 909 331 
L 1722 331 
L 1722 4213 
L 781 3603 
L 781 4013 
L 1919 4750 
L 2350 4750 
L 2350 331 
L 3163 331 
L 3163 0 
L 909 0 
z
" transform="scale(0.015625)"/>
        <path id="DejaVuSerif-30" d="M 2034 219 
Q 2513 219 2750 744 
Q 2988 1269 2988 2328 
Q 2988 3391 2750 3916 
Q 2513 4441 2034 4441 
Q 1556 4441 1318 3916 
Q 1081 3391 1081 2328 
Q 1081 1269 1318 744 
Q 1556 219 2034 219 
z
M 2034 -91 
Q 1275 -91 848 546 
Q 422 1184 422 2328 
Q 422 3475 848 4112 
Q 1275 4750 2034 4750 
Q 2797 4750 3222 4112 
Q 3647 3475 3647 2328 
Q 3647 1184 3222 546 
Q 2797 -91 2034 -91 
z
" transform="scale(0.015625)"/>
       </defs>
       <use xlink:href="#DejaVuSerif-67"/>
       <use xlink:href="#DejaVuSerif-6c" transform="translate(64.013672 0)"/>
       <use xlink:href="#DejaVuSerif-6f" transform="translate(95.996094 0)"/>
       <use xlink:href="#DejaVuSerif-76" transform="translate(156.201172 0)"/>
       <use xlink:href="#DejaVuSerif-65" transform="translate(212.695312 0)"/>
       <use xlink:href="#DejaVuSerif-2d" transform="translate(271.875 0)"/>
       <use xlink:href="#DejaVuSerif-31" transform="translate(305.664062 0)"/>
       <use xlink:href="#DejaVuSerif-30" transform="translate(369.287109 0)"/>
       <use xlink:href="#DejaVuSerif-30" transform="translate(432.910156 0)"/>
      </g>
     </g>
    </g>
    <g id="xtick_2">
     <g id="line2d_2">
      <g>
       <use xlink:href="#m75960a58f5" x="81.645267" y="77.846906" style="fill: #262626; stroke: #262626"/>
      </g>
     </g>
     <g id="text_2">
      <!-- gist-960 -->
      <g style="fill: #262626" transform="translate(69.345107 100.270662) rotate(-25) scale(0.07 -0.07)">
       <defs>
        <path id="DejaVuSerif-69" d="M 622 4353 
Q 622 4497 726 4603 
Q 831 4709 978 4709 
Q 1122 4709 1226 4603 
Q 1331 4497 1331 4353 
Q 1331 4206 1228 4103 
Q 1125 4000 978 4000 
Q 831 4000 726 4103 
Q 622 4206 622 4353 
z
M 1356 331 
L 1900 331 
L 1900 0 
L 231 0 
L 231 331 
L 781 331 
L 781 2988 
L 231 2988 
L 231 3322 
L 1356 3322 
L 1356 331 
z
" transform="scale(0.015625)"/>
        <path id="DejaVuSerif-73" d="M 359 184 
L 359 959 
L 691 959 
Q 703 588 923 403 
Q 1144 219 1575 219 
Q 1963 219 2166 364 
Q 2369 509 2369 788 
Q 2369 1006 2220 1140 
Q 2072 1275 1594 1428 
L 1178 1569 
Q 750 1706 558 1912 
Q 366 2119 366 2438 
Q 366 2894 700 3153 
Q 1034 3413 1625 3413 
Q 1888 3413 2178 3344 
Q 2469 3275 2778 3144 
L 2778 2419 
L 2447 2419 
Q 2434 2741 2221 2922 
Q 2009 3103 1644 3103 
Q 1281 3103 1095 2975 
Q 909 2847 909 2591 
Q 909 2381 1050 2254 
Q 1191 2128 1613 1997 
L 2069 1856 
Q 2541 1709 2748 1489 
Q 2956 1269 2956 922 
Q 2956 450 2595 179 
Q 2234 -91 1600 -91 
Q 1278 -91 972 -22 
Q 666 47 359 184 
z
" transform="scale(0.015625)"/>
        <path id="DejaVuSerif-74" d="M 691 2988 
L 184 2988 
L 184 3322 
L 691 3322 
L 691 4353 
L 1269 4353 
L 1269 3322 
L 2350 3322 
L 2350 2988 
L 1269 2988 
L 1269 878 
Q 1269 456 1350 337 
Q 1431 219 1650 219 
Q 1875 219 1978 351 
Q 2081 484 2088 781 
L 2522 781 
Q 2497 328 2275 118 
Q 2053 -91 1600 -91 
Q 1103 -91 897 129 
Q 691 350 691 878 
L 691 2988 
z
" transform="scale(0.015625)"/>
        <path id="DejaVuSerif-39" d="M 2994 2091 
Q 2784 1856 2512 1740 
Q 2241 1625 1900 1625 
Q 1206 1625 804 2044 
Q 403 2463 403 3188 
Q 403 3897 839 4323 
Q 1275 4750 2003 4750 
Q 2794 4750 3217 4161 
Q 3641 3572 3641 2478 
Q 3641 1253 3137 581 
Q 2634 -91 1722 -91 
Q 1475 -91 1203 -44 
Q 931 3 647 97 
L 647 872 
L 997 872 
Q 1038 556 1241 387 
Q 1444 219 1784 219 
Q 2391 219 2687 676 
Q 2984 1134 2994 2091 
z
M 1978 4441 
Q 1534 4441 1298 4117 
Q 1063 3794 1063 3188 
Q 1063 2581 1298 2256 
Q 1534 1931 1978 1931 
Q 2422 1931 2658 2245 
Q 2894 2559 2894 3150 
Q 2894 3772 2656 4106 
Q 2419 4441 1978 4441 
z
" transform="scale(0.015625)"/>
        <path id="DejaVuSerif-36" d="M 2094 219 
Q 2534 219 2771 542 
Q 3009 866 3009 1472 
Q 3009 2078 2771 2401 
Q 2534 2725 2094 2725 
Q 1647 2725 1412 2412 
Q 1178 2100 1178 1509 
Q 1178 888 1415 553 
Q 1653 219 2094 219 
z
M 1075 2569 
Q 1288 2803 1556 2918 
Q 1825 3034 2163 3034 
Q 2859 3034 3264 2615 
Q 3669 2197 3669 1472 
Q 3669 763 3233 336 
Q 2797 -91 2069 -91 
Q 1278 -91 853 498 
Q 428 1088 428 2181 
Q 428 3406 931 4078 
Q 1434 4750 2350 4750 
Q 2597 4750 2869 4703 
Q 3141 4656 3425 4563 
L 3425 3794 
L 3072 3794 
Q 3034 4109 2831 4275 
Q 2628 4441 2284 4441 
Q 1678 4441 1381 3981 
Q 1084 3522 1075 2569 
z
" transform="scale(0.015625)"/>
       </defs>
       <use xlink:href="#DejaVuSerif-67"/>
       <use xlink:href="#DejaVuSerif-69" transform="translate(64.013672 0)"/>
       <use xlink:href="#DejaVuSerif-73" transform="translate(95.996094 0)"/>
       <use xlink:href="#DejaVuSerif-74" transform="translate(147.314453 0)"/>
       <use xlink:href="#DejaVuSerif-2d" transform="translate(187.5 0)"/>
       <use xlink:href="#DejaVuSerif-39" transform="translate(221.289062 0)"/>
       <use xlink:href="#DejaVuSerif-36" transform="translate(284.912109 0)"/>
       <use xlink:href="#DejaVuSerif-30" transform="translate(348.535156 0)"/>
      </g>
     </g>
    </g>
   </g>
   <g id="matplotlib.axis_2">
    <g id="ytick_1">
     <g id="line2d_3">
      <defs>
       <path id="m9ffa1dbc57" d="M 0 0 
L -2 0 
" style="stroke: #262626"/>
      </defs>
      <g>
       <use xlink:href="#m9ffa1dbc57" x="36.8755" y="76.390547" style="fill: #262626; stroke: #262626"/>
      </g>
     </g>
     <g id="text_3">
      <!-- −60 -->
      <g style="fill: #262626" transform="translate(18.712688 78.670079) scale(0.06 -0.06)">
       <defs>
        <path id="DejaVuSerif-2212" d="M 678 2259 
L 4684 2259 
L 4684 1753 
L 678 1753 
L 678 2259 
z
" transform="scale(0.015625)"/>
       </defs>
       <use xlink:href="#DejaVuSerif-2212"/>
       <use xlink:href="#DejaVuSerif-36" transform="translate(83.789062 0)"/>
       <use xlink:href="#DejaVuSerif-30" transform="translate(147.412109 0)"/>
      </g>
     </g>
    </g>
    <g id="ytick_2">
     <g id="line2d_4">
      <g>
       <use xlink:href="#m9ffa1dbc57" x="36.8755" y="67.451229" style="fill: #262626; stroke: #262626"/>
      </g>
     </g>
     <g id="text_4">
      <!-- −30 -->
      <g style="fill: #262626" transform="translate(18.712688 69.73076) scale(0.06 -0.06)">
       <defs>
        <path id="DejaVuSerif-33" d="M 622 4469 
Q 988 4606 1323 4678 
Q 1659 4750 1953 4750 
Q 2638 4750 3022 4454 
Q 3406 4159 3406 3634 
Q 3406 3213 3140 2930 
Q 2875 2647 2388 2547 
Q 2963 2466 3280 2130 
Q 3597 1794 3597 1259 
Q 3597 606 3158 257 
Q 2719 -91 1894 -91 
Q 1528 -91 1179 -12 
Q 831 66 488 225 
L 488 1131 
L 838 1131 
Q 869 681 1141 450 
Q 1413 219 1906 219 
Q 2384 219 2661 495 
Q 2938 772 2938 1253 
Q 2938 1803 2653 2086 
Q 2369 2369 1819 2369 
L 1522 2369 
L 1522 2688 
L 1678 2688 
Q 2225 2688 2498 2914 
Q 2772 3141 2772 3597 
Q 2772 4006 2547 4223 
Q 2322 4441 1900 4441 
Q 1478 4441 1245 4241 
Q 1013 4041 972 3647 
L 622 3647 
L 622 4469 
z
" transform="scale(0.015625)"/>
       </defs>
       <use xlink:href="#DejaVuSerif-2212"/>
       <use xlink:href="#DejaVuSerif-33" transform="translate(83.789062 0)"/>
       <use xlink:href="#DejaVuSerif-30" transform="translate(147.412109 0)"/>
      </g>
     </g>
    </g>
    <g id="ytick_3">
     <g id="line2d_5">
      <g>
       <use xlink:href="#m9ffa1dbc57" x="36.8755" y="58.51191" style="fill: #262626; stroke: #262626"/>
      </g>
     </g>
     <g id="text_5">
      <!-- 0 -->
      <g style="fill: #262626" transform="translate(27.558 60.791441) scale(0.06 -0.06)">
       <use xlink:href="#DejaVuSerif-30"/>
      </g>
     </g>
    </g>
    <g id="ytick_4">
     <g id="line2d_6">
      <g>
       <use xlink:href="#m9ffa1dbc57" x="36.8755" y="49.572591" style="fill: #262626; stroke: #262626"/>
      </g>
     </g>
     <g id="text_6">
      <!-- 30 -->
      <g style="fill: #262626" transform="translate(23.7405 51.852122) scale(0.06 -0.06)">
       <use xlink:href="#DejaVuSerif-33"/>
       <use xlink:href="#DejaVuSerif-30" transform="translate(63.623047 0)"/>
      </g>
     </g>
    </g>
    <g id="ytick_5">
     <g id="line2d_7">
      <g>
       <use xlink:href="#m9ffa1dbc57" x="36.8755" y="40.633272" style="fill: #262626; stroke: #262626"/>
      </g>
     </g>
     <g id="text_7">
      <!-- 60 -->
      <g style="fill: #262626" transform="translate(23.7405 42.912804) scale(0.06 -0.06)">
       <use xlink:href="#DejaVuSerif-36"/>
       <use xlink:href="#DejaVuSerif-30" transform="translate(63.623047 0)"/>
      </g>
     </g>
    </g>
    <g id="ytick_6">
     <g id="line2d_8">
      <g>
       <use xlink:href="#m9ffa1dbc57" x="36.8755" y="31.693953" style="fill: #262626; stroke: #262626"/>
      </g>
     </g>
     <g id="text_8">
      <!-- 90 -->
      <g style="fill: #262626" transform="translate(23.7405 33.973485) scale(0.06 -0.06)">
       <use xlink:href="#DejaVuSerif-39"/>
       <use xlink:href="#DejaVuSerif-30" transform="translate(63.623047 0)"/>
      </g>
     </g>
    </g>
    <g id="ytick_7">
     <g id="line2d_9">
      <g>
       <use xlink:href="#m9ffa1dbc57" x="36.8755" y="22.754635" style="fill: #262626; stroke: #262626"/>
      </g>
     </g>
     <g id="text_9">
      <!-- 120 -->
      <g style="fill: #262626" transform="translate(19.923 25.034166) scale(0.06 -0.06)">
       <defs>
        <path id="DejaVuSerif-32" d="M 819 3553 
L 469 3553 
L 469 4384 
Q 803 4563 1142 4656 
Q 1481 4750 1806 4750 
Q 2534 4750 2956 4397 
Q 3378 4044 3378 3438 
Q 3378 2753 2422 1800 
Q 2347 1728 2309 1691 
L 1131 513 
L 3078 513 
L 3078 1088 
L 3444 1088 
L 3444 0 
L 434 0 
L 434 341 
L 1850 1753 
Q 2319 2222 2519 2614 
Q 2719 3006 2719 3438 
Q 2719 3909 2473 4175 
Q 2228 4441 1797 4441 
Q 1350 4441 1106 4219 
Q 863 3997 819 3553 
z
" transform="scale(0.015625)"/>
       </defs>
       <use xlink:href="#DejaVuSerif-31"/>
       <use xlink:href="#DejaVuSerif-32" transform="translate(63.623047 0)"/>
       <use xlink:href="#DejaVuSerif-30" transform="translate(127.246094 0)"/>
      </g>
     </g>
    </g>
    <g id="ytick_8">
     <g id="line2d_10">
      <g>
       <use xlink:href="#m9ffa1dbc57" x="36.8755" y="13.815316" style="fill: #262626; stroke: #262626"/>
      </g>
     </g>
     <g id="text_10">
      <!-- 150 -->
      <g style="fill: #262626" transform="translate(19.923 16.094847) scale(0.06 -0.06)">
       <defs>
        <path id="DejaVuSerif-35" d="M 3219 4666 
L 3219 4153 
L 1081 4153 
L 1081 2816 
Q 1244 2928 1461 2984 
Q 1678 3041 1947 3041 
Q 2703 3041 3140 2622 
Q 3578 2203 3578 1478 
Q 3578 738 3136 323 
Q 2694 -91 1894 -91 
Q 1572 -91 1234 -12 
Q 897 66 544 225 
L 544 1131 
L 897 1131 
Q 925 688 1179 453 
Q 1434 219 1894 219 
Q 2388 219 2653 544 
Q 2919 869 2919 1478 
Q 2919 2084 2655 2407 
Q 2391 2731 1894 2731 
Q 1613 2731 1398 2631 
Q 1184 2531 1019 2322 
L 750 2322 
L 750 4666 
L 3219 4666 
z
" transform="scale(0.015625)"/>
       </defs>
       <use xlink:href="#DejaVuSerif-31"/>
       <use xlink:href="#DejaVuSerif-35" transform="translate(63.623047 0)"/>
       <use xlink:href="#DejaVuSerif-30" transform="translate(127.246094 0)"/>
      </g>
     </g>
    </g>
    <g id="text_11">
     <!-- Improvement over  -->
     <g style="fill: #262626" transform="translate(5.318906 78.459078) rotate(-90) scale(0.07 -0.07)">
      <defs>
       <path id="DejaVuSerif-49" d="M 1581 331 
L 2175 331 
L 2175 0 
L 353 0 
L 353 331 
L 947 331 
L 947 4331 
L 353 4331 
L 353 4666 
L 2175 4666 
L 2175 4331 
L 1581 4331 
L 1581 331 
z
" transform="scale(0.015625)"/>
       <path id="DejaVuSerif-6d" d="M 3316 2675 
Q 3481 3041 3739 3227 
Q 3997 3413 4341 3413 
Q 4863 3413 5119 3089 
Q 5375 2766 5375 2113 
L 5375 331 
L 5894 331 
L 5894 0 
L 4300 0 
L 4300 331 
L 4800 331 
L 4800 2047 
Q 4800 2556 4650 2772 
Q 4500 2988 4153 2988 
Q 3769 2988 3567 2697 
Q 3366 2406 3366 1850 
L 3366 331 
L 3866 331 
L 3866 0 
L 2291 0 
L 2291 331 
L 2791 331 
L 2791 2069 
Q 2791 2566 2641 2777 
Q 2491 2988 2144 2988 
Q 1759 2988 1557 2697 
Q 1356 2406 1356 1850 
L 1356 331 
L 1856 331 
L 1856 0 
L 263 0 
L 263 331 
L 781 331 
L 781 2994 
L 231 2994 
L 231 3322 
L 1356 3322 
L 1356 2731 
Q 1516 3063 1762 3238 
Q 2009 3413 2322 3413 
Q 2709 3413 2968 3220 
Q 3228 3028 3316 2675 
z
" transform="scale(0.015625)"/>
       <path id="DejaVuSerif-70" d="M 1313 1825 
L 1313 1497 
Q 1313 897 1542 583 
Q 1772 269 2209 269 
Q 2650 269 2876 622 
Q 3103 975 3103 1663 
Q 3103 2353 2876 2703 
Q 2650 3053 2209 3053 
Q 1772 3053 1542 2737 
Q 1313 2422 1313 1825 
z
M 738 2988 
L 184 2988 
L 184 3322 
L 1313 3322 
L 1313 2803 
Q 1481 3116 1742 3264 
Q 2003 3413 2388 3413 
Q 3000 3413 3387 2928 
Q 3775 2444 3775 1663 
Q 3775 881 3387 395 
Q 3000 -91 2388 -91 
Q 2003 -91 1742 57 
Q 1481 206 1313 519 
L 1313 -997 
L 1856 -997 
L 1856 -1331 
L 184 -1331 
L 184 -997 
L 738 -997 
L 738 2988 
z
" transform="scale(0.015625)"/>
       <path id="DejaVuSerif-72" d="M 3059 3328 
L 3059 2497 
L 2728 2497 
Q 2713 2744 2591 2866 
Q 2469 2988 2234 2988 
Q 1809 2988 1582 2694 
Q 1356 2400 1356 1850 
L 1356 331 
L 2022 331 
L 2022 0 
L 263 0 
L 263 331 
L 781 331 
L 781 2994 
L 231 2994 
L 231 3322 
L 1356 3322 
L 1356 2731 
Q 1525 3078 1790 3245 
Q 2056 3413 2438 3413 
Q 2578 3413 2733 3391 
Q 2888 3369 3059 3328 
z
" transform="scale(0.015625)"/>
       <path id="DejaVuSerif-6e" d="M 263 0 
L 263 331 
L 781 331 
L 781 2988 
L 231 2988 
L 231 3322 
L 1356 3322 
L 1356 2731 
Q 1516 3069 1770 3241 
Q 2025 3413 2363 3413 
Q 2913 3413 3172 3097 
Q 3431 2781 3431 2113 
L 3431 331 
L 3944 331 
L 3944 0 
L 2356 0 
L 2356 331 
L 2853 331 
L 2853 1931 
Q 2853 2541 2703 2767 
Q 2553 2994 2175 2994 
Q 1775 2994 1565 2701 
Q 1356 2409 1356 1850 
L 1356 331 
L 1856 331 
L 1856 0 
L 263 0 
z
" transform="scale(0.015625)"/>
       <path id="DejaVuSerif-20" transform="scale(0.015625)"/>
      </defs>
      <use xlink:href="#DejaVuSerif-49"/>
      <use xlink:href="#DejaVuSerif-6d" transform="translate(39.501953 0)"/>
      <use xlink:href="#DejaVuSerif-70" transform="translate(134.326172 0)"/>
      <use xlink:href="#DejaVuSerif-72" transform="translate(198.339844 0)"/>
      <use xlink:href="#DejaVuSerif-6f" transform="translate(246.142578 0)"/>
      <use xlink:href="#DejaVuSerif-76" transform="translate(306.347656 0)"/>
      <use xlink:href="#DejaVuSerif-65" transform="translate(362.841797 0)"/>
      <use xlink:href="#DejaVuSerif-6d" transform="translate(422.021484 0)"/>
      <use xlink:href="#DejaVuSerif-65" transform="translate(516.845703 0)"/>
      <use xlink:href="#DejaVuSerif-6e" transform="translate(576.025391 0)"/>
      <use xlink:href="#DejaVuSerif-74" transform="translate(640.429688 0)"/>
      <use xlink:href="#DejaVuSerif-20" transform="translate(680.615234 0)"/>
      <use xlink:href="#DejaVuSerif-6f" transform="translate(712.402344 0)"/>
      <use xlink:href="#DejaVuSerif-76" transform="translate(772.607422 0)"/>
      <use xlink:href="#DejaVuSerif-65" transform="translate(829.101562 0)"/>
      <use xlink:href="#DejaVuSerif-72" transform="translate(888.28125 0)"/>
      <use xlink:href="#DejaVuSerif-20" transform="translate(936.083984 0)"/>
     </g>
     <!--  NUMA Balancing (%) -->
     <g style="fill: #262626" transform="translate(13.157375 83.793844) rotate(-90) scale(0.07 -0.07)">
      <defs>
       <path id="DejaVuSerif-4e" d="M 313 0 
L 313 331 
L 941 331 
L 941 4331 
L 313 4331 
L 313 4666 
L 1509 4666 
L 4306 984 
L 4306 4331 
L 3681 4331 
L 3681 4666 
L 5319 4666 
L 5319 4331 
L 4691 4331 
L 4691 -91 
L 4313 -91 
L 1325 3841 
L 1325 331 
L 1953 331 
L 1953 0 
L 313 0 
z
" transform="scale(0.015625)"/>
       <path id="DejaVuSerif-55" d="M 897 4331 
L 300 4331 
L 300 4666 
L 2125 4666 
L 2125 4331 
L 1528 4331 
L 1528 1919 
Q 1528 1025 1820 672 
Q 2113 319 2828 319 
Q 3544 319 3836 672 
Q 4128 1025 4128 1919 
L 4128 4331 
L 3531 4331 
L 3531 4666 
L 5106 4666 
L 5106 4331 
L 4513 4331 
L 4513 1856 
Q 4513 791 4103 350 
Q 3694 -91 2713 -91 
Q 1731 -91 1314 353 
Q 897 797 897 1856 
L 897 4331 
z
" transform="scale(0.015625)"/>
       <path id="DejaVuSerif-4d" d="M 353 0 
L 353 331 
L 947 331 
L 947 4331 
L 319 4331 
L 319 4666 
L 1678 4666 
L 3316 1344 
L 4953 4666 
L 6228 4666 
L 6228 4331 
L 5606 4331 
L 5606 331 
L 6203 331 
L 6203 0 
L 4378 0 
L 4378 331 
L 4972 331 
L 4972 3938 
L 3372 684 
L 2931 684 
L 1331 3938 
L 1331 331 
L 1925 331 
L 1925 0 
L 353 0 
z
" transform="scale(0.015625)"/>
       <path id="DejaVuSerif-41" d="M 1281 1691 
L 2994 1691 
L 2138 3909 
L 1281 1691 
z
M -38 0 
L -38 331 
L 372 331 
L 2034 4666 
L 2559 4666 
L 4225 331 
L 4684 331 
L 4684 0 
L 2988 0 
L 2988 331 
L 3506 331 
L 3116 1356 
L 1153 1356 
L 763 331 
L 1275 331 
L 1275 0 
L -38 0 
z
" transform="scale(0.015625)"/>
       <path id="DejaVuSerif-42" d="M 1581 331 
L 2516 331 
Q 3078 331 3337 575 
Q 3597 819 3597 1350 
Q 3597 1878 3339 2120 
Q 3081 2363 2516 2363 
L 1581 2363 
L 1581 331 
z
M 1581 2694 
L 2375 2694 
Q 2888 2694 3123 2891 
Q 3359 3088 3359 3513 
Q 3359 3941 3123 4136 
Q 2888 4331 2375 4331 
L 1581 4331 
L 1581 2694 
z
M 353 0 
L 353 331 
L 947 331 
L 947 4331 
L 353 4331 
L 353 4666 
L 2656 4666 
Q 3363 4666 3720 4377 
Q 4078 4088 4078 3513 
Q 4078 3097 3829 2850 
Q 3581 2603 3103 2547 
Q 3697 2472 4005 2167 
Q 4313 1863 4313 1350 
Q 4313 656 3875 328 
Q 3438 0 2509 0 
L 353 0 
z
" transform="scale(0.015625)"/>
       <path id="DejaVuSerif-61" d="M 2547 1044 
L 2547 1747 
L 1806 1747 
Q 1378 1747 1168 1562 
Q 959 1378 959 997 
Q 959 650 1171 447 
Q 1384 244 1747 244 
Q 2106 244 2326 466 
Q 2547 688 2547 1044 
z
M 3122 2075 
L 3122 331 
L 3634 331 
L 3634 0 
L 2547 0 
L 2547 359 
Q 2356 128 2106 18 
Q 1856 -91 1522 -91 
Q 969 -91 644 203 
Q 319 497 319 997 
Q 319 1513 691 1797 
Q 1063 2081 1741 2081 
L 2547 2081 
L 2547 2309 
Q 2547 2688 2317 2895 
Q 2088 3103 1672 3103 
Q 1328 3103 1125 2947 
Q 922 2791 872 2484 
L 575 2484 
L 575 3156 
Q 875 3284 1158 3348 
Q 1441 3413 1709 3413 
Q 2400 3413 2761 3070 
Q 3122 2728 3122 2075 
z
" transform="scale(0.015625)"/>
       <path id="DejaVuSerif-63" d="M 3291 997 
Q 3169 466 2822 187 
Q 2475 -91 1925 -91 
Q 1200 -91 759 389 
Q 319 869 319 1663 
Q 319 2459 759 2936 
Q 1200 3413 1925 3413 
Q 2241 3413 2553 3339 
Q 2866 3266 3181 3116 
L 3181 2266 
L 2847 2266 
Q 2781 2703 2561 2903 
Q 2341 3103 1931 3103 
Q 1466 3103 1228 2742 
Q 991 2381 991 1663 
Q 991 944 1227 581 
Q 1463 219 1931 219 
Q 2303 219 2525 412 
Q 2747 606 2828 997 
L 3291 997 
z
" transform="scale(0.015625)"/>
       <path id="DejaVuSerif-28" d="M 2041 -997 
Q 1281 -656 893 83 
Q 506 822 506 1931 
Q 506 3044 893 3783 
Q 1281 4522 2041 4863 
L 2041 4556 
Q 1559 4225 1350 3623 
Q 1141 3022 1141 1931 
Q 1141 844 1350 242 
Q 1559 -359 2041 -691 
L 2041 -997 
z
" transform="scale(0.015625)"/>
       <path id="DejaVuSerif-25" d="M 1434 4459 
Q 1159 4459 1004 4200 
Q 850 3941 850 3475 
Q 850 3016 1008 2753 
Q 1166 2491 1434 2491 
Q 1700 2491 1854 2752 
Q 2009 3013 2009 3475 
Q 2009 3938 1854 4198 
Q 1700 4459 1434 4459 
z
M 4653 2169 
Q 4381 2169 4226 1906 
Q 4072 1644 4072 1178 
Q 4072 719 4228 458 
Q 4384 197 4653 197 
Q 4922 197 5075 458 
Q 5228 719 5228 1178 
Q 5228 1641 5073 1905 
Q 4919 2169 4653 2169 
z
M 4653 2450 
Q 5147 2450 5437 2106 
Q 5728 1763 5728 1178 
Q 5728 594 5436 251 
Q 5144 -91 4653 -91 
Q 4153 -91 3862 251 
Q 3572 594 3572 1178 
Q 3572 1766 3864 2108 
Q 4156 2450 4653 2450 
z
M 4263 4750 
L 4738 4750 
L 1819 -91 
L 1344 -91 
L 4263 4750 
z
M 1428 4750 
Q 1922 4750 2215 4408 
Q 2509 4066 2509 3481 
Q 2509 2891 2217 2550 
Q 1925 2209 1428 2209 
Q 931 2209 642 2551 
Q 353 2894 353 3481 
Q 353 4063 643 4406 
Q 934 4750 1428 4750 
z
" transform="scale(0.015625)"/>
       <path id="DejaVuSerif-29" d="M 453 -997 
L 453 -691 
Q 934 -359 1145 242 
Q 1356 844 1356 1931 
Q 1356 3022 1145 3623 
Q 934 4225 453 4556 
L 453 4863 
Q 1216 4522 1603 3783 
Q 1991 3044 1991 1931 
Q 1991 822 1603 83 
Q 1216 -656 453 -997 
z
" transform="scale(0.015625)"/>
      </defs>
      <use xlink:href="#DejaVuSerif-20"/>
      <use xlink:href="#DejaVuSerif-4e" transform="translate(31.787109 0)"/>
      <use xlink:href="#DejaVuSerif-55" transform="translate(119.287109 0)"/>
      <use xlink:href="#DejaVuSerif-4d" transform="translate(203.564453 0)"/>
      <use xlink:href="#DejaVuSerif-41" transform="translate(305.957031 0)"/>
      <use xlink:href="#DejaVuSerif-20" transform="translate(378.173828 0)"/>
      <use xlink:href="#DejaVuSerif-42" transform="translate(409.960938 0)"/>
      <use xlink:href="#DejaVuSerif-61" transform="translate(483.447266 0)"/>
      <use xlink:href="#DejaVuSerif-6c" transform="translate(543.066406 0)"/>
      <use xlink:href="#DejaVuSerif-61" transform="translate(575.048828 0)"/>
      <use xlink:href="#DejaVuSerif-6e" transform="translate(634.667969 0)"/>
      <use xlink:href="#DejaVuSerif-63" transform="translate(699.072266 0)"/>
      <use xlink:href="#DejaVuSerif-69" transform="translate(755.078125 0)"/>
      <use xlink:href="#DejaVuSerif-6e" transform="translate(787.060547 0)"/>
      <use xlink:href="#DejaVuSerif-67" transform="translate(851.464844 0)"/>
      <use xlink:href="#DejaVuSerif-20" transform="translate(915.478516 0)"/>
      <use xlink:href="#DejaVuSerif-28" transform="translate(947.265625 0)"/>
      <use xlink:href="#DejaVuSerif-25" transform="translate(986.279297 0)"/>
      <use xlink:href="#DejaVuSerif-29" transform="translate(1081.298828 0)"/>
     </g>
    </g>
   </g>
   <g id="patch_3">
    <path d="M 39.5755 58.51191 
L 45.540616 58.51191 
L 45.540616 72.878032 
L 39.5755 72.878032 
z
" clip-path="url(#p4697745880)" style="fill: #fedfc0; stroke: #fedfc0; stroke-width: 0.25; stroke-linejoin: miter"/>
   </g>
   <g id="patch_4">
    <path d="M 69.715035 58.51191 
L 75.680151 58.51191 
L 75.680151 69.723724 
L 69.715035 69.723724 
z
" clip-path="url(#p4697745880)" style="fill: #fedfc0; stroke: #fedfc0; stroke-width: 0.25; stroke-linejoin: miter"/>
   </g>
   <g id="patch_5">
    <path d="M 45.540616 58.51191 
L 51.505733 58.51191 
L 51.505733 73.01677 
L 45.540616 73.01677 
z
" clip-path="url(#p4697745880)" style="fill: #fdb97d; stroke: #fdb97d; stroke-width: 0.25; stroke-linejoin: miter"/>
   </g>
   <g id="patch_6">
    <path d="M 75.680151 58.51191 
L 81.645267 58.51191 
L 81.645267 69.411817 
L 75.680151 69.411817 
z
" clip-path="url(#p4697745880)" style="fill: #fdb97d; stroke: #fdb97d; stroke-width: 0.25; stroke-linejoin: miter"/>
   </g>
   <g id="patch_7">
    <path d="M 51.505733 58.51191 
L 57.470849 58.51191 
L 57.470849 50.655818 
L 51.505733 50.655818 
z
" clip-path="url(#p4697745880)" style="fill: #fd8c3b; stroke: #fd8c3b; stroke-width: 0.25; stroke-linejoin: miter"/>
   </g>
   <g id="patch_8">
    <path d="M 81.645267 58.51191 
L 87.610384 58.51191 
L 87.610384 48.54403 
L 81.645267 48.54403 
z
" clip-path="url(#p4697745880)" style="fill: #fd8c3b; stroke: #fd8c3b; stroke-width: 0.25; stroke-linejoin: miter"/>
   </g>
   <g id="patch_9">
    <path d="M 57.470849 58.51191 
L 63.435965 58.51191 
L 63.435965 38.586837 
L 57.470849 38.586837 
z
" clip-path="url(#p4697745880)" style="fill: #4a98c9; stroke: #4a98c9; stroke-width: 0.25; stroke-linejoin: miter"/>
   </g>
   <g id="patch_10">
    <path d="M 87.610384 58.51191 
L 93.5755 58.51191 
L 93.5755 20.998898 
L 87.610384 20.998898 
z
" clip-path="url(#p4697745880)" style="fill: #4a98c9; stroke: #4a98c9; stroke-width: 0.25; stroke-linejoin: miter"/>
   </g>
   <g id="LineCollection_1">
    <path d="M 42.558058 73.051367 
L 42.558058 72.704697 
" clip-path="url(#p4697745880)" style="fill: none; stroke: #000000; stroke-width: 0.5"/>
    <path d="M 72.697593 70.193773 
L 72.697593 69.253675 
" clip-path="url(#p4697745880)" style="fill: none; stroke: #000000; stroke-width: 0.5"/>
   </g>
   <g id="line2d_11">
    <defs>
     <path id="m9a6f56a1a4" d="M 1 0 
L -1 -0 
" style="stroke: #000000; stroke-width: 0.5"/>
    </defs>
    <g clip-path="url(#p4697745880)">
     <use xlink:href="#m9a6f56a1a4" x="42.558058" y="73.051367" style="stroke: #000000; stroke-width: 0.5"/>
     <use xlink:href="#m9a6f56a1a4" x="72.697593" y="70.193773" style="stroke: #000000; stroke-width: 0.5"/>
    </g>
   </g>
   <g id="line2d_12">
    <g clip-path="url(#p4697745880)">
     <use xlink:href="#m9a6f56a1a4" x="42.558058" y="72.704697" style="stroke: #000000; stroke-width: 0.5"/>
     <use xlink:href="#m9a6f56a1a4" x="72.697593" y="69.253675" style="stroke: #000000; stroke-width: 0.5"/>
    </g>
   </g>
   <g id="LineCollection_2">
    <path d="M 48.523174 73.119932 
L 48.523174 72.913608 
" clip-path="url(#p4697745880)" style="fill: none; stroke: #000000; stroke-width: 0.5"/>
    <path d="M 78.662709 69.869795 
L 78.662709 68.953839 
" clip-path="url(#p4697745880)" style="fill: none; stroke: #000000; stroke-width: 0.5"/>
   </g>
   <g id="line2d_13">
    <g clip-path="url(#p4697745880)">
     <use xlink:href="#m9a6f56a1a4" x="48.523174" y="73.119932" style="stroke: #000000; stroke-width: 0.5"/>
     <use xlink:href="#m9a6f56a1a4" x="78.662709" y="69.869795" style="stroke: #000000; stroke-width: 0.5"/>
    </g>
   </g>
   <g id="line2d_14">
    <g clip-path="url(#p4697745880)">
     <use xlink:href="#m9a6f56a1a4" x="48.523174" y="72.913608" style="stroke: #000000; stroke-width: 0.5"/>
     <use xlink:href="#m9a6f56a1a4" x="78.662709" y="68.953839" style="stroke: #000000; stroke-width: 0.5"/>
    </g>
   </g>
   <g id="LineCollection_3">
    <path d="M 54.488291 50.931094 
L 54.488291 50.380542 
" clip-path="url(#p4697745880)" style="fill: none; stroke: #000000; stroke-width: 0.5"/>
    <path d="M 84.627826 49.751695 
L 84.627826 47.336365 
" clip-path="url(#p4697745880)" style="fill: none; stroke: #000000; stroke-width: 0.5"/>
   </g>
   <g id="line2d_15">
    <g clip-path="url(#p4697745880)">
     <use xlink:href="#m9a6f56a1a4" x="54.488291" y="50.931094" style="stroke: #000000; stroke-width: 0.5"/>
     <use xlink:href="#m9a6f56a1a4" x="84.627826" y="49.751695" style="stroke: #000000; stroke-width: 0.5"/>
    </g>
   </g>
   <g id="line2d_16">
    <g clip-path="url(#p4697745880)">
     <use xlink:href="#m9a6f56a1a4" x="54.488291" y="50.380542" style="stroke: #000000; stroke-width: 0.5"/>
     <use xlink:href="#m9a6f56a1a4" x="84.627826" y="47.336365" style="stroke: #000000; stroke-width: 0.5"/>
    </g>
   </g>
   <g id="LineCollection_4">
    <path d="M 60.453407 39.335947 
L 60.453407 37.837727 
" clip-path="url(#p4697745880)" style="fill: none; stroke: #000000; stroke-width: 0.5"/>
    <path d="M 90.592942 27.654889 
L 90.592942 14.342906 
" clip-path="url(#p4697745880)" style="fill: none; stroke: #000000; stroke-width: 0.5"/>
   </g>
   <g id="line2d_17">
    <g clip-path="url(#p4697745880)">
     <use xlink:href="#m9a6f56a1a4" x="60.453407" y="39.335947" style="stroke: #000000; stroke-width: 0.5"/>
     <use xlink:href="#m9a6f56a1a4" x="90.592942" y="27.654889" style="stroke: #000000; stroke-width: 0.5"/>
    </g>
   </g>
   <g id="line2d_18">
    <g clip-path="url(#p4697745880)">
     <use xlink:href="#m9a6f56a1a4" x="60.453407" y="37.837727" style="stroke: #000000; stroke-width: 0.5"/>
     <use xlink:href="#m9a6f56a1a4" x="90.592942" y="14.342906" style="stroke: #000000; stroke-width: 0.5"/>
    </g>
   </g>
   <g id="line2d_19">
    <path d="M 36.8755 58.51191 
L 96.2755 58.51191 
" clip-path="url(#p4697745880)" style="fill: none; stroke-dasharray: 1.11,0.48; stroke-dashoffset: 0; stroke: #808080; stroke-opacity: 0.25; stroke-width: 0.3"/>
   </g>
   <g id="patch_11">
    <path d="M 36.8755 77.846906 
L 36.8755 11.318906 
" style="fill: none; stroke: #262626; stroke-linejoin: miter; stroke-linecap: square"/>
   </g>
   <g id="patch_12">
    <path d="M 36.8755 77.846906 
L 96.2755 77.846906 
" style="fill: none; stroke: #262626; stroke-linejoin: miter; stroke-linecap: square"/>
   </g>
   <g id="text_12">
    <!-- Faiss -->
    <g style="fill: #262626" transform="translate(57.584875 5.318906) scale(0.07 -0.07)">
     <defs>
      <path id="DejaVuSerif-46" d="M 353 0 
L 353 331 
L 947 331 
L 947 4331 
L 353 4331 
L 353 4666 
L 4172 4666 
L 4172 3628 
L 3788 3628 
L 3788 4281 
L 1581 4281 
L 1581 2719 
L 3175 2719 
L 3175 3303 
L 3559 3303 
L 3559 1753 
L 3175 1753 
L 3175 2338 
L 1581 2338 
L 1581 331 
L 2328 331 
L 2328 0 
L 353 0 
z
" transform="scale(0.015625)"/>
     </defs>
     <use xlink:href="#DejaVuSerif-46"/>
     <use xlink:href="#DejaVuSerif-61" transform="translate(62.634766 0)"/>
     <use xlink:href="#DejaVuSerif-69" transform="translate(122.253906 0)"/>
     <use xlink:href="#DejaVuSerif-73" transform="translate(154.236328 0)"/>
     <use xlink:href="#DejaVuSerif-73" transform="translate(205.554688 0)"/>
    </g>
   </g>
  </g>
  <g id="axes_2">
   <g id="patch_13">
    <path d="M 99.2455 77.846906 
L 158.6455 77.846906 
L 158.6455 11.318906 
L 99.2455 11.318906 
z
" style="fill: #ffffff"/>
   </g>
   <g id="matplotlib.axis_3">
    <g id="xtick_3">
     <g id="line2d_20">
      <g>
       <use xlink:href="#m75960a58f5" x="113.875733" y="77.846906" style="fill: #262626; stroke: #262626"/>
      </g>
     </g>
     <g id="text_13">
      <!-- glove-100 -->
      <g style="fill: #262626" transform="translate(98.919668 102.857419) rotate(-25) scale(0.07 -0.07)">
       <use xlink:href="#DejaVuSerif-67"/>
       <use xlink:href="#DejaVuSerif-6c" transform="translate(64.013672 0)"/>
       <use xlink:href="#DejaVuSerif-6f" transform="translate(95.996094 0)"/>
       <use xlink:href="#DejaVuSerif-76" transform="translate(156.201172 0)"/>
       <use xlink:href="#DejaVuSerif-65" transform="translate(212.695312 0)"/>
       <use xlink:href="#DejaVuSerif-2d" transform="translate(271.875 0)"/>
       <use xlink:href="#DejaVuSerif-31" transform="translate(305.664062 0)"/>
       <use xlink:href="#DejaVuSerif-30" transform="translate(369.287109 0)"/>
       <use xlink:href="#DejaVuSerif-30" transform="translate(432.910156 0)"/>
      </g>
     </g>
    </g>
    <g id="xtick_4">
     <g id="line2d_21">
      <g>
       <use xlink:href="#m75960a58f5" x="144.015267" y="77.846906" style="fill: #262626; stroke: #262626"/>
      </g>
     </g>
     <g id="text_14">
      <!-- gist-960 -->
      <g style="fill: #262626" transform="translate(131.715107 100.270662) rotate(-25) scale(0.07 -0.07)">
       <use xlink:href="#DejaVuSerif-67"/>
       <use xlink:href="#DejaVuSerif-69" transform="translate(64.013672 0)"/>
       <use xlink:href="#DejaVuSerif-73" transform="translate(95.996094 0)"/>
       <use xlink:href="#DejaVuSerif-74" transform="translate(147.314453 0)"/>
       <use xlink:href="#DejaVuSerif-2d" transform="translate(187.5 0)"/>
       <use xlink:href="#DejaVuSerif-39" transform="translate(221.289062 0)"/>
       <use xlink:href="#DejaVuSerif-36" transform="translate(284.912109 0)"/>
       <use xlink:href="#DejaVuSerif-30" transform="translate(348.535156 0)"/>
      </g>
     </g>
    </g>
   </g>
   <g id="matplotlib.axis_4">
    <g id="ytick_9"/>
    <g id="ytick_10"/>
    <g id="ytick_11"/>
    <g id="ytick_12"/>
    <g id="ytick_13"/>
    <g id="ytick_14"/>
    <g id="ytick_15"/>
    <g id="ytick_16"/>
   </g>
   <g id="patch_14">
    <path d="M 101.9455 58.51191 
L 107.910616 58.51191 
L 107.910616 71.773909 
L 101.9455 71.773909 
z
" clip-path="url(#p6dddc6b7e7)" style="fill: #fedfc0; stroke: #fedfc0; stroke-width: 0.25; stroke-linejoin: miter"/>
   </g>
   <g id="patch_15">
    <path d="M 132.085035 58.51191 
L 138.050151 58.51191 
L 138.050151 74.71341 
L 132.085035 74.71341 
z
" clip-path="url(#p6dddc6b7e7)" style="fill: #fedfc0; stroke: #fedfc0; stroke-width: 0.25; stroke-linejoin: miter"/>
   </g>
   <g id="patch_16">
    <path d="M 107.910616 58.51191 
L 113.875733 58.51191 
L 113.875733 72.890562 
L 107.910616 72.890562 
z
" clip-path="url(#p6dddc6b7e7)" style="fill: #fdb97d; stroke: #fdb97d; stroke-width: 0.25; stroke-linejoin: miter"/>
   </g>
   <g id="patch_17">
    <path d="M 138.050151 58.51191 
L 144.015267 58.51191 
L 144.015267 74.443928 
L 138.050151 74.443928 
z
" clip-path="url(#p6dddc6b7e7)" style="fill: #fdb97d; stroke: #fdb97d; stroke-width: 0.25; stroke-linejoin: miter"/>
   </g>
   <g id="patch_18">
    <path d="M 113.875733 58.51191 
L 119.840849 58.51191 
L 119.840849 55.345446 
L 113.875733 55.345446 
z
" clip-path="url(#p6dddc6b7e7)" style="fill: #fd8c3b; stroke: #fd8c3b; stroke-width: 0.25; stroke-linejoin: miter"/>
   </g>
   <g id="patch_19">
    <path d="M 144.015267 58.51191 
L 149.980384 58.51191 
L 149.980384 57.923289 
L 144.015267 57.923289 
z
" clip-path="url(#p6dddc6b7e7)" style="fill: #fd8c3b; stroke: #fd8c3b; stroke-width: 0.25; stroke-linejoin: miter"/>
   </g>
   <g id="patch_20">
    <path d="M 119.840849 58.51191 
L 125.805965 58.51191 
L 125.805965 39.777593 
L 119.840849 39.777593 
z
" clip-path="url(#p6dddc6b7e7)" style="fill: #4a98c9; stroke: #4a98c9; stroke-width: 0.25; stroke-linejoin: miter"/>
   </g>
   <g id="patch_21">
    <path d="M 149.980384 58.51191 
L 155.9455 58.51191 
L 155.9455 23.758725 
L 149.980384 23.758725 
z
" clip-path="url(#p6dddc6b7e7)" style="fill: #4a98c9; stroke: #4a98c9; stroke-width: 0.25; stroke-linejoin: miter"/>
   </g>
   <g id="LineCollection_5">
    <path d="M 104.928058 72.268853 
L 104.928058 71.278964 
" clip-path="url(#p6dddc6b7e7)" style="fill: none; stroke: #000000; stroke-width: 0.5"/>
    <path d="M 135.067593 74.822906 
L 135.067593 74.603914 
" clip-path="url(#p6dddc6b7e7)" style="fill: none; stroke: #000000; stroke-width: 0.5"/>
   </g>
   <g id="line2d_22">
    <g clip-path="url(#p6dddc6b7e7)">
     <use xlink:href="#m9a6f56a1a4" x="104.928058" y="72.268853" style="stroke: #000000; stroke-width: 0.5"/>
     <use xlink:href="#m9a6f56a1a4" x="135.067593" y="74.822906" style="stroke: #000000; stroke-width: 0.5"/>
    </g>
   </g>
   <g id="line2d_23">
    <g clip-path="url(#p6dddc6b7e7)">
     <use xlink:href="#m9a6f56a1a4" x="104.928058" y="71.278964" style="stroke: #000000; stroke-width: 0.5"/>
     <use xlink:href="#m9a6f56a1a4" x="135.067593" y="74.603914" style="stroke: #000000; stroke-width: 0.5"/>
    </g>
   </g>
   <g id="LineCollection_6">
    <path d="M 110.893174 73.294335 
L 110.893174 72.486788 
" clip-path="url(#p6dddc6b7e7)" style="fill: none; stroke: #000000; stroke-width: 0.5"/>
    <path d="M 141.032709 74.589814 
L 141.032709 74.298043 
" clip-path="url(#p6dddc6b7e7)" style="fill: none; stroke: #000000; stroke-width: 0.5"/>
   </g>
   <g id="line2d_24">
    <g clip-path="url(#p6dddc6b7e7)">
     <use xlink:href="#m9a6f56a1a4" x="110.893174" y="73.294335" style="stroke: #000000; stroke-width: 0.5"/>
     <use xlink:href="#m9a6f56a1a4" x="141.032709" y="74.589814" style="stroke: #000000; stroke-width: 0.5"/>
    </g>
   </g>
   <g id="line2d_25">
    <g clip-path="url(#p6dddc6b7e7)">
     <use xlink:href="#m9a6f56a1a4" x="110.893174" y="72.486788" style="stroke: #000000; stroke-width: 0.5"/>
     <use xlink:href="#m9a6f56a1a4" x="141.032709" y="74.298043" style="stroke: #000000; stroke-width: 0.5"/>
    </g>
   </g>
   <g id="LineCollection_7">
    <path d="M 116.858291 55.627608 
L 116.858291 55.063283 
" clip-path="url(#p6dddc6b7e7)" style="fill: none; stroke: #000000; stroke-width: 0.5"/>
    <path d="M 146.997826 58.138108 
L 146.997826 57.708469 
" clip-path="url(#p6dddc6b7e7)" style="fill: none; stroke: #000000; stroke-width: 0.5"/>
   </g>
   <g id="line2d_26">
    <g clip-path="url(#p6dddc6b7e7)">
     <use xlink:href="#m9a6f56a1a4" x="116.858291" y="55.627608" style="stroke: #000000; stroke-width: 0.5"/>
     <use xlink:href="#m9a6f56a1a4" x="146.997826" y="58.138108" style="stroke: #000000; stroke-width: 0.5"/>
    </g>
   </g>
   <g id="line2d_27">
    <g clip-path="url(#p6dddc6b7e7)">
     <use xlink:href="#m9a6f56a1a4" x="116.858291" y="55.063283" style="stroke: #000000; stroke-width: 0.5"/>
     <use xlink:href="#m9a6f56a1a4" x="146.997826" y="57.708469" style="stroke: #000000; stroke-width: 0.5"/>
    </g>
   </g>
   <g id="LineCollection_8">
    <path d="M 122.823407 40.278489 
L 122.823407 39.276697 
" clip-path="url(#p6dddc6b7e7)" style="fill: none; stroke: #000000; stroke-width: 0.5"/>
    <path d="M 152.962942 26.568011 
L 152.962942 20.94944 
" clip-path="url(#p6dddc6b7e7)" style="fill: none; stroke: #000000; stroke-width: 0.5"/>
   </g>
   <g id="line2d_28">
    <g clip-path="url(#p6dddc6b7e7)">
     <use xlink:href="#m9a6f56a1a4" x="122.823407" y="40.278489" style="stroke: #000000; stroke-width: 0.5"/>
     <use xlink:href="#m9a6f56a1a4" x="152.962942" y="26.568011" style="stroke: #000000; stroke-width: 0.5"/>
    </g>
   </g>
   <g id="line2d_29">
    <g clip-path="url(#p6dddc6b7e7)">
     <use xlink:href="#m9a6f56a1a4" x="122.823407" y="39.276697" style="stroke: #000000; stroke-width: 0.5"/>
     <use xlink:href="#m9a6f56a1a4" x="152.962942" y="20.94944" style="stroke: #000000; stroke-width: 0.5"/>
    </g>
   </g>
   <g id="line2d_30">
    <path d="M 99.2455 58.51191 
L 158.6455 58.51191 
" clip-path="url(#p6dddc6b7e7)" style="fill: none; stroke-dasharray: 1.11,0.48; stroke-dashoffset: 0; stroke: #808080; stroke-opacity: 0.25; stroke-width: 0.3"/>
   </g>
   <g id="patch_22">
    <path d="M 99.2455 77.846906 
L 158.6455 77.846906 
" style="fill: none; stroke: #262626; stroke-linejoin: miter; stroke-linecap: square"/>
   </g>
   <g id="text_15">
    <!-- Annoy -->
    <g style="fill: #262626" transform="translate(117.824797 5.318906) scale(0.07 -0.07)">
     <defs>
      <path id="DejaVuSerif-79" d="M 1381 -609 
L 1600 -56 
L 359 2988 
L -19 2988 
L -19 3322 
L 1509 3322 
L 1509 2988 
L 978 2988 
L 1913 703 
L 2847 2988 
L 2350 2988 
L 2350 3322 
L 3597 3322 
L 3597 2988 
L 3225 2988 
L 1703 -750 
Q 1547 -1138 1356 -1280 
Q 1166 -1422 819 -1422 
Q 672 -1422 517 -1397 
Q 363 -1372 206 -1325 
L 206 -691 
L 500 -691 
Q 519 -903 608 -995 
Q 697 -1088 884 -1088 
Q 1056 -1088 1161 -992 
Q 1266 -897 1381 -609 
z
" transform="scale(0.015625)"/>
     </defs>
     <use xlink:href="#DejaVuSerif-41"/>
     <use xlink:href="#DejaVuSerif-6e" transform="translate(72.216797 0)"/>
     <use xlink:href="#DejaVuSerif-6e" transform="translate(136.621094 0)"/>
     <use xlink:href="#DejaVuSerif-6f" transform="translate(201.025391 0)"/>
     <use xlink:href="#DejaVuSerif-79" transform="translate(261.230469 0)"/>
    </g>
   </g>
  </g>
  <g id="axes_3">
   <g id="patch_23">
    <path d="M 161.6155 77.846906 
L 221.0155 77.846906 
L 221.0155 11.318906 
L 161.6155 11.318906 
z
" style="fill: #ffffff"/>
   </g>
   <g id="matplotlib.axis_5">
    <g id="xtick_5">
     <g id="line2d_31">
      <g>
       <use xlink:href="#m75960a58f5" x="176.245733" y="77.846906" style="fill: #262626; stroke: #262626"/>
      </g>
     </g>
     <g id="text_16">
      <!-- glove-100 -->
      <g style="fill: #262626" transform="translate(161.289668 102.857419) rotate(-25) scale(0.07 -0.07)">
       <use xlink:href="#DejaVuSerif-67"/>
       <use xlink:href="#DejaVuSerif-6c" transform="translate(64.013672 0)"/>
       <use xlink:href="#DejaVuSerif-6f" transform="translate(95.996094 0)"/>
       <use xlink:href="#DejaVuSerif-76" transform="translate(156.201172 0)"/>
       <use xlink:href="#DejaVuSerif-65" transform="translate(212.695312 0)"/>
       <use xlink:href="#DejaVuSerif-2d" transform="translate(271.875 0)"/>
       <use xlink:href="#DejaVuSerif-31" transform="translate(305.664062 0)"/>
       <use xlink:href="#DejaVuSerif-30" transform="translate(369.287109 0)"/>
       <use xlink:href="#DejaVuSerif-30" transform="translate(432.910156 0)"/>
      </g>
     </g>
    </g>
    <g id="xtick_6">
     <g id="line2d_32">
      <g>
       <use xlink:href="#m75960a58f5" x="206.385267" y="77.846906" style="fill: #262626; stroke: #262626"/>
      </g>
     </g>
     <g id="text_17">
      <!-- gist-960 -->
      <g style="fill: #262626" transform="translate(194.085107 100.270662) rotate(-25) scale(0.07 -0.07)">
       <use xlink:href="#DejaVuSerif-67"/>
       <use xlink:href="#DejaVuSerif-69" transform="translate(64.013672 0)"/>
       <use xlink:href="#DejaVuSerif-73" transform="translate(95.996094 0)"/>
       <use xlink:href="#DejaVuSerif-74" transform="translate(147.314453 0)"/>
       <use xlink:href="#DejaVuSerif-2d" transform="translate(187.5 0)"/>
       <use xlink:href="#DejaVuSerif-39" transform="translate(221.289062 0)"/>
       <use xlink:href="#DejaVuSerif-36" transform="translate(284.912109 0)"/>
       <use xlink:href="#DejaVuSerif-30" transform="translate(348.535156 0)"/>
      </g>
     </g>
    </g>
   </g>
   <g id="matplotlib.axis_6">
    <g id="ytick_17"/>
    <g id="ytick_18"/>
    <g id="ytick_19"/>
    <g id="ytick_20"/>
    <g id="ytick_21"/>
    <g id="ytick_22"/>
    <g id="ytick_23"/>
    <g id="ytick_24"/>
   </g>
   <g id="patch_24">
    <path d="M 164.3155 58.51191 
L 170.280616 58.51191 
L 170.280616 68.072482 
L 164.3155 68.072482 
z
" clip-path="url(#pd2b235e8de)" style="fill: #fedfc0; stroke: #fedfc0; stroke-width: 0.25; stroke-linejoin: miter"/>
   </g>
   <g id="patch_25">
    <path d="M 194.455035 58.51191 
L 200.420151 58.51191 
L 200.420151 73.055894 
L 194.455035 73.055894 
z
" clip-path="url(#pd2b235e8de)" style="fill: #fedfc0; stroke: #fedfc0; stroke-width: 0.25; stroke-linejoin: miter"/>
   </g>
   <g id="patch_26">
    <path d="M 170.280616 58.51191 
L 176.245733 58.51191 
L 176.245733 62.070697 
L 170.280616 62.070697 
z
" clip-path="url(#pd2b235e8de)" style="fill: #fdb97d; stroke: #fdb97d; stroke-width: 0.25; stroke-linejoin: miter"/>
   </g>
   <g id="patch_27">
    <path d="M 200.420151 58.51191 
L 206.385267 58.51191 
L 206.385267 67.385734 
L 200.420151 67.385734 
z
" clip-path="url(#pd2b235e8de)" style="fill: #fdb97d; stroke: #fdb97d; stroke-width: 0.25; stroke-linejoin: miter"/>
   </g>
   <g id="patch_28">
    <path d="M 176.245733 58.51191 
L 182.210849 58.51191 
L 182.210849 53.352524 
L 176.245733 53.352524 
z
" clip-path="url(#pd2b235e8de)" style="fill: #fd8c3b; stroke: #fd8c3b; stroke-width: 0.25; stroke-linejoin: miter"/>
   </g>
   <g id="patch_29">
    <path d="M 206.385267 58.51191 
L 212.350384 58.51191 
L 212.350384 48.886616 
L 206.385267 48.886616 
z
" clip-path="url(#pd2b235e8de)" style="fill: #fd8c3b; stroke: #fd8c3b; stroke-width: 0.25; stroke-linejoin: miter"/>
   </g>
   <g id="patch_30">
    <path d="M 182.210849 58.51191 
L 188.175965 58.51191 
L 188.175965 52.368944 
L 182.210849 52.368944 
z
" clip-path="url(#pd2b235e8de)" style="fill: #4a98c9; stroke: #4a98c9; stroke-width: 0.25; stroke-linejoin: miter"/>
   </g>
   <g id="patch_31">
    <path d="M 212.350384 58.51191 
L 218.3155 58.51191 
L 218.3155 28.047045 
L 212.350384 28.047045 
z
" clip-path="url(#pd2b235e8de)" style="fill: #4a98c9; stroke: #4a98c9; stroke-width: 0.25; stroke-linejoin: miter"/>
   </g>
   <g id="LineCollection_9">
    <path d="M 167.298058 68.15672 
L 167.298058 67.988244 
" clip-path="url(#pd2b235e8de)" style="fill: none; stroke: #000000; stroke-width: 0.5"/>
    <path d="M 197.437593 73.214637 
L 197.437593 72.89715 
" clip-path="url(#pd2b235e8de)" style="fill: none; stroke: #000000; stroke-width: 0.5"/>
   </g>
   <g id="line2d_33">
    <g clip-path="url(#pd2b235e8de)">
     <use xlink:href="#m9a6f56a1a4" x="167.298058" y="68.15672" style="stroke: #000000; stroke-width: 0.5"/>
     <use xlink:href="#m9a6f56a1a4" x="197.437593" y="73.214637" style="stroke: #000000; stroke-width: 0.5"/>
    </g>
   </g>
   <g id="line2d_34">
    <g clip-path="url(#pd2b235e8de)">
     <use xlink:href="#m9a6f56a1a4" x="167.298058" y="67.988244" style="stroke: #000000; stroke-width: 0.5"/>
     <use xlink:href="#m9a6f56a1a4" x="197.437593" y="72.89715" style="stroke: #000000; stroke-width: 0.5"/>
    </g>
   </g>
   <g id="LineCollection_10">
    <path d="M 173.263174 62.184361 
L 173.263174 61.957032 
" clip-path="url(#pd2b235e8de)" style="fill: none; stroke: #000000; stroke-width: 0.5"/>
    <path d="M 203.402709 67.564246 
L 203.402709 67.207222 
" clip-path="url(#pd2b235e8de)" style="fill: none; stroke: #000000; stroke-width: 0.5"/>
   </g>
   <g id="line2d_35">
    <g clip-path="url(#pd2b235e8de)">
     <use xlink:href="#m9a6f56a1a4" x="173.263174" y="62.184361" style="stroke: #000000; stroke-width: 0.5"/>
     <use xlink:href="#m9a6f56a1a4" x="203.402709" y="67.564246" style="stroke: #000000; stroke-width: 0.5"/>
    </g>
   </g>
   <g id="line2d_36">
    <g clip-path="url(#pd2b235e8de)">
     <use xlink:href="#m9a6f56a1a4" x="173.263174" y="61.957032" style="stroke: #000000; stroke-width: 0.5"/>
     <use xlink:href="#m9a6f56a1a4" x="203.402709" y="67.207222" style="stroke: #000000; stroke-width: 0.5"/>
    </g>
   </g>
   <g id="LineCollection_11">
    <path d="M 179.228291 53.521385 
L 179.228291 53.183662 
" clip-path="url(#pd2b235e8de)" style="fill: none; stroke: #000000; stroke-width: 0.5"/>
    <path d="M 209.367826 49.269871 
L 209.367826 48.503361 
" clip-path="url(#pd2b235e8de)" style="fill: none; stroke: #000000; stroke-width: 0.5"/>
   </g>
   <g id="line2d_37">
    <g clip-path="url(#pd2b235e8de)">
     <use xlink:href="#m9a6f56a1a4" x="179.228291" y="53.521385" style="stroke: #000000; stroke-width: 0.5"/>
     <use xlink:href="#m9a6f56a1a4" x="209.367826" y="49.269871" style="stroke: #000000; stroke-width: 0.5"/>
    </g>
   </g>
   <g id="line2d_38">
    <g clip-path="url(#pd2b235e8de)">
     <use xlink:href="#m9a6f56a1a4" x="179.228291" y="53.183662" style="stroke: #000000; stroke-width: 0.5"/>
     <use xlink:href="#m9a6f56a1a4" x="209.367826" y="48.503361" style="stroke: #000000; stroke-width: 0.5"/>
    </g>
   </g>
   <g id="LineCollection_12">
    <path d="M 185.193407 52.635194 
L 185.193407 52.102695 
" clip-path="url(#pd2b235e8de)" style="fill: none; stroke: #000000; stroke-width: 0.5"/>
    <path d="M 215.332942 28.782535 
L 215.332942 27.311554 
" clip-path="url(#pd2b235e8de)" style="fill: none; stroke: #000000; stroke-width: 0.5"/>
   </g>
   <g id="line2d_39">
    <g clip-path="url(#pd2b235e8de)">
     <use xlink:href="#m9a6f56a1a4" x="185.193407" y="52.635194" style="stroke: #000000; stroke-width: 0.5"/>
     <use xlink:href="#m9a6f56a1a4" x="215.332942" y="28.782535" style="stroke: #000000; stroke-width: 0.5"/>
    </g>
   </g>
   <g id="line2d_40">
    <g clip-path="url(#pd2b235e8de)">
     <use xlink:href="#m9a6f56a1a4" x="185.193407" y="52.102695" style="stroke: #000000; stroke-width: 0.5"/>
     <use xlink:href="#m9a6f56a1a4" x="215.332942" y="27.311554" style="stroke: #000000; stroke-width: 0.5"/>
    </g>
   </g>
   <g id="line2d_41">
    <path d="M 161.6155 58.51191 
L 221.0155 58.51191 
" clip-path="url(#pd2b235e8de)" style="fill: none; stroke-dasharray: 1.11,0.48; stroke-dashoffset: 0; stroke: #808080; stroke-opacity: 0.25; stroke-width: 0.3"/>
   </g>
   <g id="patch_32">
    <path d="M 161.6155 77.846906 
L 221.0155 77.846906 
" style="fill: none; stroke: #262626; stroke-linejoin: miter; stroke-linecap: square"/>
   </g>
   <g id="text_18">
    <!-- Usearch -->
    <g style="fill: #262626" transform="translate(176.524172 5.318906) scale(0.07 -0.07)">
     <defs>
      <path id="DejaVuSerif-68" d="M 263 0 
L 263 331 
L 781 331 
L 781 4531 
L 231 4531 
L 231 4863 
L 1356 4863 
L 1356 2731 
Q 1516 3069 1770 3241 
Q 2025 3413 2363 3413 
Q 2913 3413 3172 3097 
Q 3431 2781 3431 2113 
L 3431 331 
L 3944 331 
L 3944 0 
L 2356 0 
L 2356 331 
L 2853 331 
L 2853 1931 
Q 2853 2541 2704 2764 
Q 2556 2988 2175 2988 
Q 1775 2988 1565 2697 
Q 1356 2406 1356 1850 
L 1356 331 
L 1856 331 
L 1856 0 
L 263 0 
z
" transform="scale(0.015625)"/>
     </defs>
     <use xlink:href="#DejaVuSerif-55"/>
     <use xlink:href="#DejaVuSerif-73" transform="translate(84.277344 0)"/>
     <use xlink:href="#DejaVuSerif-65" transform="translate(135.595703 0)"/>
     <use xlink:href="#DejaVuSerif-61" transform="translate(194.775391 0)"/>
     <use xlink:href="#DejaVuSerif-72" transform="translate(254.394531 0)"/>
     <use xlink:href="#DejaVuSerif-63" transform="translate(302.197266 0)"/>
     <use xlink:href="#DejaVuSerif-68" transform="translate(358.203125 0)"/>
    </g>
   </g>
  </g>
 </g>
 <defs>
  <clipPath id="p4697745880">
   <rect x="36.8755" y="11.318906" width="59.4" height="66.528"/>
  </clipPath>
  <clipPath id="p6dddc6b7e7">
   <rect x="99.2455" y="11.318906" width="59.4" height="66.528"/>
  </clipPath>
  <clipPath id="pd2b235e8de">
   <rect x="161.6155" y="11.318906" width="59.4" height="66.528"/>
  </clipPath>
 </defs>
</svg>
