<?xml version="1.0" encoding="utf-8" standalone="no"?>
<!DOCTYPE svg PUBLIC "-//W3C//DTD SVG 1.1//EN"
  "http://www.w3.org/Graphics/SVG/1.1/DTD/svg11.dtd">
<svg xmlns:xlink="http://www.w3.org/1999/xlink" width="236.533917pt" height="86.602892pt" viewBox="0 0 236.533917 86.602892" xmlns="http://www.w3.org/2000/svg" version="1.1">
 <metadata>
  <rdf:RDF xmlns:dc="http://purl.org/dc/elements/1.1/" xmlns:cc="http://creativecommons.org/ns#" xmlns:rdf="http://www.w3.org/1999/02/22-rdf-syntax-ns#">
   <cc:Work>
    <dc:type rdf:resource="http://purl.org/dc/dcmitype/StillImage"/>
    <dc:date>2025-12-03T22:52:52.674995</dc:date>
    <dc:format>image/svg+xml</dc:format>
    <dc:creator>
     <cc:Agent>
      <dc:title>Matplotlib v3.10.3, https://matplotlib.org/</dc:title>
     </cc:Agent>
    </dc:creator>
   </cc:Work>
  </rdf:RDF>
 </metadata>
 <defs>
  <style type="text/css">*{stroke-linejoin: round; stroke-linecap: butt}</style>
 </defs>
 <g id="figure_1">
  <g id="patch_1">
   <path d="M 0 86.602892 
L 236.533917 86.602892 
L 236.533917 -0 
L 0 -0 
z
" style="fill: #ffffff"/>
  </g>
  <g id="axes_1">
   <g id="patch_2">
    <path d="M 31.748156 57.87305 
L 234.340759 57.87305 
L 234.340759 -0 
L 31.748156 -0 
z
" style="fill: #ffffff"/>
   </g>
   <g id="matplotlib.axis_1">
    <g id="xtick_1">
     <g id="line2d_1">
      <defs>
       <path id="mcf830e9a18" d="M 0 0 
L 0 2 
" style="stroke: #262626"/>
      </defs>
      <g>
       <use xlink:href="#mcf830e9a18" x="49.311245" y="57.87305" style="fill: #262626; stroke: #262626"/>
      </g>
     </g>
     <g id="text_1">
      <!-- read -->
      <g style="fill: #262626" transform="translate(42.811955 75.01626) rotate(-25) scale(0.07 -0.07)">
       <defs>
        <path id="DejaVuSerif-72" d="M 3059 3328 
L 3059 2497 
L 2728 2497 
Q 2713 2744 2591 2866 
Q 2469 2988 2234 2988 
Q 1809 2988 1582 2694 
Q 1356 2400 1356 1850 
L 1356 331 
L 2022 331 
L 2022 0 
L 263 0 
L 263 331 
L 781 331 
L 781 2994 
L 231 2994 
L 231 3322 
L 1356 3322 
L 1356 2731 
Q 1525 3078 1790 3245 
Q 2056 3413 2438 3413 
Q 2578 3413 2733 3391 
Q 2888 3369 3059 3328 
z
" transform="scale(0.015625)"/>
        <path id="DejaVuSerif-65" d="M 3469 1600 
L 991 1600 
L 991 1575 
Q 991 903 1244 561 
Q 1497 219 1991 219 
Q 2369 219 2611 417 
Q 2853 616 2950 1006 
L 3413 1006 
Q 3275 459 2904 184 
Q 2534 -91 1931 -91 
Q 1203 -91 761 389 
Q 319 869 319 1663 
Q 319 2450 753 2931 
Q 1188 3413 1894 3413 
Q 2647 3413 3050 2948 
Q 3453 2484 3469 1600 
z
M 2791 1931 
Q 2772 2513 2545 2808 
Q 2319 3103 1894 3103 
Q 1497 3103 1269 2806 
Q 1041 2509 991 1931 
L 2791 1931 
z
" transform="scale(0.015625)"/>
        <path id="DejaVuSerif-61" d="M 2547 1044 
L 2547 1747 
L 1806 1747 
Q 1378 1747 1168 1562 
Q 959 1378 959 997 
Q 959 650 1171 447 
Q 1384 244 1747 244 
Q 2106 244 2326 466 
Q 2547 688 2547 1044 
z
M 3122 2075 
L 3122 331 
L 3634 331 
L 3634 0 
L 2547 0 
L 2547 359 
Q 2356 128 2106 18 
Q 1856 -91 1522 -91 
Q 969 -91 644 203 
Q 319 497 319 997 
Q 319 1513 691 1797 
Q 1063 2081 1741 2081 
L 2547 2081 
L 2547 2309 
Q 2547 2688 2317 2895 
Q 2088 3103 1672 3103 
Q 1328 3103 1125 2947 
Q 922 2791 872 2484 
L 575 2484 
L 575 3156 
Q 875 3284 1158 3348 
Q 1441 3413 1709 3413 
Q 2400 3413 2761 3070 
Q 3122 2728 3122 2075 
z
" transform="scale(0.015625)"/>
        <path id="DejaVuSerif-64" d="M 3359 331 
L 3909 331 
L 3909 0 
L 2784 0 
L 2784 519 
Q 2616 206 2355 57 
Q 2094 -91 1709 -91 
Q 1097 -91 708 395 
Q 319 881 319 1663 
Q 319 2444 706 2928 
Q 1094 3413 1709 3413 
Q 2094 3413 2355 3264 
Q 2616 3116 2784 2803 
L 2784 4531 
L 2241 4531 
L 2241 4863 
L 3359 4863 
L 3359 331 
z
M 2784 1497 
L 2784 1825 
Q 2784 2422 2554 2737 
Q 2325 3053 1888 3053 
Q 1444 3053 1217 2703 
Q 991 2353 991 1663 
Q 991 975 1217 622 
Q 1444 269 1888 269 
Q 2325 269 2554 583 
Q 2784 897 2784 1497 
z
" transform="scale(0.015625)"/>
       </defs>
       <use xlink:href="#DejaVuSerif-72"/>
       <use xlink:href="#DejaVuSerif-65" transform="translate(47.802734 0)"/>
       <use xlink:href="#DejaVuSerif-61" transform="translate(106.982422 0)"/>
       <use xlink:href="#DejaVuSerif-64" transform="translate(166.601562 0)"/>
      </g>
     </g>
    </g>
    <g id="xtick_2">
     <g id="line2d_2">
      <g>
       <use xlink:href="#mcf830e9a18" x="73.23502" y="57.87305" style="fill: #262626; stroke: #262626"/>
      </g>
     </g>
     <g id="text_2">
      <!-- mread -->
      <g style="fill: #262626" transform="translate(63.727709 77.821587) rotate(-25) scale(0.07 -0.07)">
       <defs>
        <path id="DejaVuSerif-6d" d="M 3316 2675 
Q 3481 3041 3739 3227 
Q 3997 3413 4341 3413 
Q 4863 3413 5119 3089 
Q 5375 2766 5375 2113 
L 5375 331 
L 5894 331 
L 5894 0 
L 4300 0 
L 4300 331 
L 4800 331 
L 4800 2047 
Q 4800 2556 4650 2772 
Q 4500 2988 4153 2988 
Q 3769 2988 3567 2697 
Q 3366 2406 3366 1850 
L 3366 331 
L 3866 331 
L 3866 0 
L 2291 0 
L 2291 331 
L 2791 331 
L 2791 2069 
Q 2791 2566 2641 2777 
Q 2491 2988 2144 2988 
Q 1759 2988 1557 2697 
Q 1356 2406 1356 1850 
L 1356 331 
L 1856 331 
L 1856 0 
L 263 0 
L 263 331 
L 781 331 
L 781 2994 
L 231 2994 
L 231 3322 
L 1356 3322 
L 1356 2731 
Q 1516 3063 1762 3238 
Q 2009 3413 2322 3413 
Q 2709 3413 2968 3220 
Q 3228 3028 3316 2675 
z
" transform="scale(0.015625)"/>
       </defs>
       <use xlink:href="#DejaVuSerif-6d"/>
       <use xlink:href="#DejaVuSerif-72" transform="translate(94.824219 0)"/>
       <use xlink:href="#DejaVuSerif-65" transform="translate(142.626953 0)"/>
       <use xlink:href="#DejaVuSerif-61" transform="translate(201.806641 0)"/>
       <use xlink:href="#DejaVuSerif-64" transform="translate(261.425781 0)"/>
      </g>
     </g>
    </g>
    <g id="xtick_3">
     <g id="line2d_3">
      <g>
       <use xlink:href="#mcf830e9a18" x="97.158795" y="57.87305" style="fill: #262626; stroke: #262626"/>
      </g>
     </g>
     <g id="text_3">
      <!-- fscan -->
      <g style="fill: #262626" transform="translate(89.462542 76.132567) rotate(-25) scale(0.07 -0.07)">
       <defs>
        <path id="DejaVuSerif-66" d="M 2753 4078 
L 2450 4078 
Q 2447 4313 2317 4434 
Q 2188 4556 1941 4556 
Q 1619 4556 1487 4379 
Q 1356 4203 1356 3750 
L 1356 3322 
L 2284 3322 
L 2284 2988 
L 1356 2988 
L 1356 331 
L 2094 331 
L 2094 0 
L 231 0 
L 231 331 
L 781 331 
L 781 2988 
L 231 2988 
L 231 3322 
L 781 3322 
L 781 3738 
Q 781 4294 1070 4578 
Q 1359 4863 1919 4863 
Q 2128 4863 2337 4825 
Q 2547 4788 2753 4709 
L 2753 4078 
z
" transform="scale(0.015625)"/>
        <path id="DejaVuSerif-73" d="M 359 184 
L 359 959 
L 691 959 
Q 703 588 923 403 
Q 1144 219 1575 219 
Q 1963 219 2166 364 
Q 2369 509 2369 788 
Q 2369 1006 2220 1140 
Q 2072 1275 1594 1428 
L 1178 1569 
Q 750 1706 558 1912 
Q 366 2119 366 2438 
Q 366 2894 700 3153 
Q 1034 3413 1625 3413 
Q 1888 3413 2178 3344 
Q 2469 3275 2778 3144 
L 2778 2419 
L 2447 2419 
Q 2434 2741 2221 2922 
Q 2009 3103 1644 3103 
Q 1281 3103 1095 2975 
Q 909 2847 909 2591 
Q 909 2381 1050 2254 
Q 1191 2128 1613 1997 
L 2069 1856 
Q 2541 1709 2748 1489 
Q 2956 1269 2956 922 
Q 2956 450 2595 179 
Q 2234 -91 1600 -91 
Q 1278 -91 972 -22 
Q 666 47 359 184 
z
" transform="scale(0.015625)"/>
        <path id="DejaVuSerif-63" d="M 3291 997 
Q 3169 466 2822 187 
Q 2475 -91 1925 -91 
Q 1200 -91 759 389 
Q 319 869 319 1663 
Q 319 2459 759 2936 
Q 1200 3413 1925 3413 
Q 2241 3413 2553 3339 
Q 2866 3266 3181 3116 
L 3181 2266 
L 2847 2266 
Q 2781 2703 2561 2903 
Q 2341 3103 1931 3103 
Q 1466 3103 1228 2742 
Q 991 2381 991 1663 
Q 991 944 1227 581 
Q 1463 219 1931 219 
Q 2303 219 2525 412 
Q 2747 606 2828 997 
L 3291 997 
z
" transform="scale(0.015625)"/>
        <path id="DejaVuSerif-6e" d="M 263 0 
L 263 331 
L 781 331 
L 781 2988 
L 231 2988 
L 231 3322 
L 1356 3322 
L 1356 2731 
Q 1516 3069 1770 3241 
Q 2025 3413 2363 3413 
Q 2913 3413 3172 3097 
Q 3431 2781 3431 2113 
L 3431 331 
L 3944 331 
L 3944 0 
L 2356 0 
L 2356 331 
L 2853 331 
L 2853 1931 
Q 2853 2541 2703 2767 
Q 2553 2994 2175 2994 
Q 1775 2994 1565 2701 
Q 1356 2409 1356 1850 
L 1356 331 
L 1856 331 
L 1856 0 
L 263 0 
z
" transform="scale(0.015625)"/>
       </defs>
       <use xlink:href="#DejaVuSerif-66"/>
       <use xlink:href="#DejaVuSerif-73" transform="translate(37.011719 0)"/>
       <use xlink:href="#DejaVuSerif-63" transform="translate(88.330078 0)"/>
       <use xlink:href="#DejaVuSerif-61" transform="translate(144.335938 0)"/>
       <use xlink:href="#DejaVuSerif-6e" transform="translate(203.955078 0)"/>
      </g>
     </g>
    </g>
    <g id="xtick_4">
     <g id="line2d_4">
      <g>
       <use xlink:href="#mcf830e9a18" x="121.08257" y="57.87305" style="fill: #262626; stroke: #262626"/>
      </g>
     </g>
     <g id="text_4">
      <!-- rscan -->
      <g style="fill: #262626" transform="translate(113.044327 76.451511) rotate(-25) scale(0.07 -0.07)">
       <use xlink:href="#DejaVuSerif-72"/>
       <use xlink:href="#DejaVuSerif-73" transform="translate(47.802734 0)"/>
       <use xlink:href="#DejaVuSerif-63" transform="translate(99.121094 0)"/>
       <use xlink:href="#DejaVuSerif-61" transform="translate(155.126953 0)"/>
       <use xlink:href="#DejaVuSerif-6e" transform="translate(214.746094 0)"/>
      </g>
     </g>
    </g>
    <g id="xtick_5">
     <g id="line2d_5">
      <g>
       <use xlink:href="#mcf830e9a18" x="145.006345" y="57.87305" style="fill: #262626; stroke: #262626"/>
      </g>
     </g>
     <g id="text_5">
      <!-- overwrite -->
      <g style="fill: #262626" transform="translate(130.329044 82.643199) rotate(-25) scale(0.07 -0.07)">
       <defs>
        <path id="DejaVuSerif-6f" d="M 1925 219 
Q 2388 219 2623 584 
Q 2859 950 2859 1663 
Q 2859 2375 2623 2739 
Q 2388 3103 1925 3103 
Q 1463 3103 1227 2739 
Q 991 2375 991 1663 
Q 991 950 1228 584 
Q 1466 219 1925 219 
z
M 1925 -91 
Q 1200 -91 759 389 
Q 319 869 319 1663 
Q 319 2456 758 2934 
Q 1197 3413 1925 3413 
Q 2653 3413 3092 2934 
Q 3531 2456 3531 1663 
Q 3531 869 3092 389 
Q 2653 -91 1925 -91 
z
" transform="scale(0.015625)"/>
        <path id="DejaVuSerif-76" d="M 1581 0 
L 359 2988 
L -19 2988 
L -19 3322 
L 1509 3322 
L 1509 2988 
L 978 2988 
L 1913 703 
L 2847 2988 
L 2350 2988 
L 2350 3322 
L 3597 3322 
L 3597 2988 
L 3225 2988 
L 2003 0 
L 1581 0 
z
" transform="scale(0.015625)"/>
        <path id="DejaVuSerif-77" d="M 3072 3322 
L 3922 728 
L 4672 2988 
L 4191 2988 
L 4191 3322 
L 5394 3322 
L 5394 2988 
L 5025 2988 
L 4038 0 
L 3559 0 
L 2741 2484 
L 1919 0 
L 1459 0 
L 475 2988 
L 103 2988 
L 103 3322 
L 1606 3322 
L 1606 2988 
L 1069 2988 
L 1813 728 
L 2669 3322 
L 3072 3322 
z
" transform="scale(0.015625)"/>
        <path id="DejaVuSerif-69" d="M 622 4353 
Q 622 4497 726 4603 
Q 831 4709 978 4709 
Q 1122 4709 1226 4603 
Q 1331 4497 1331 4353 
Q 1331 4206 1228 4103 
Q 1125 4000 978 4000 
Q 831 4000 726 4103 
Q 622 4206 622 4353 
z
M 1356 331 
L 1900 331 
L 1900 0 
L 231 0 
L 231 331 
L 781 331 
L 781 2988 
L 231 2988 
L 231 3322 
L 1356 3322 
L 1356 331 
z
" transform="scale(0.015625)"/>
        <path id="DejaVuSerif-74" d="M 691 2988 
L 184 2988 
L 184 3322 
L 691 3322 
L 691 4353 
L 1269 4353 
L 1269 3322 
L 2350 3322 
L 2350 2988 
L 1269 2988 
L 1269 878 
Q 1269 456 1350 337 
Q 1431 219 1650 219 
Q 1875 219 1978 351 
Q 2081 484 2088 781 
L 2522 781 
Q 2497 328 2275 118 
Q 2053 -91 1600 -91 
Q 1103 -91 897 129 
Q 691 350 691 878 
L 691 2988 
z
" transform="scale(0.015625)"/>
       </defs>
       <use xlink:href="#DejaVuSerif-6f"/>
       <use xlink:href="#DejaVuSerif-76" transform="translate(60.205078 0)"/>
       <use xlink:href="#DejaVuSerif-65" transform="translate(116.699219 0)"/>
       <use xlink:href="#DejaVuSerif-72" transform="translate(175.878906 0)"/>
       <use xlink:href="#DejaVuSerif-77" transform="translate(223.681641 0)"/>
       <use xlink:href="#DejaVuSerif-72" transform="translate(309.277344 0)"/>
       <use xlink:href="#DejaVuSerif-69" transform="translate(357.080078 0)"/>
       <use xlink:href="#DejaVuSerif-74" transform="translate(389.0625 0)"/>
       <use xlink:href="#DejaVuSerif-65" transform="translate(429.248047 0)"/>
      </g>
     </g>
    </g>
    <g id="xtick_6">
     <g id="line2d_6">
      <g>
       <use xlink:href="#mcf830e9a18" x="168.93012" y="57.87305" style="fill: #262626; stroke: #262626"/>
      </g>
     </g>
     <g id="text_6">
      <!-- read-write -->
      <g style="fill: #262626" transform="translate(152.960693 83.848255) rotate(-25) scale(0.07 -0.07)">
       <defs>
        <path id="DejaVuSerif-2d" d="M 281 1959 
L 1881 1959 
L 1881 1472 
L 281 1472 
L 281 1959 
z
" transform="scale(0.015625)"/>
       </defs>
       <use xlink:href="#DejaVuSerif-72"/>
       <use xlink:href="#DejaVuSerif-65" transform="translate(47.802734 0)"/>
       <use xlink:href="#DejaVuSerif-61" transform="translate(106.982422 0)"/>
       <use xlink:href="#DejaVuSerif-64" transform="translate(166.601562 0)"/>
       <use xlink:href="#DejaVuSerif-2d" transform="translate(230.615234 0)"/>
       <use xlink:href="#DejaVuSerif-77" transform="translate(264.404297 0)"/>
       <use xlink:href="#DejaVuSerif-72" transform="translate(350 0)"/>
       <use xlink:href="#DejaVuSerif-69" transform="translate(397.802734 0)"/>
       <use xlink:href="#DejaVuSerif-74" transform="translate(429.785156 0)"/>
       <use xlink:href="#DejaVuSerif-65" transform="translate(469.970703 0)"/>
      </g>
     </g>
    </g>
    <g id="xtick_7">
     <g id="line2d_7">
      <g>
       <use xlink:href="#mcf830e9a18" x="192.853895" y="57.87305" style="fill: #262626; stroke: #262626"/>
      </g>
     </g>
     <g id="text_7">
      <!-- fscan-write -->
      <g style="fill: #262626" transform="translate(175.687504 84.964562) rotate(-25) scale(0.07 -0.07)">
       <use xlink:href="#DejaVuSerif-66"/>
       <use xlink:href="#DejaVuSerif-73" transform="translate(37.011719 0)"/>
       <use xlink:href="#DejaVuSerif-63" transform="translate(88.330078 0)"/>
       <use xlink:href="#DejaVuSerif-61" transform="translate(144.335938 0)"/>
       <use xlink:href="#DejaVuSerif-6e" transform="translate(203.955078 0)"/>
       <use xlink:href="#DejaVuSerif-2d" transform="translate(268.359375 0)"/>
       <use xlink:href="#DejaVuSerif-77" transform="translate(302.148438 0)"/>
       <use xlink:href="#DejaVuSerif-72" transform="translate(387.744141 0)"/>
       <use xlink:href="#DejaVuSerif-69" transform="translate(435.546875 0)"/>
       <use xlink:href="#DejaVuSerif-74" transform="translate(467.529297 0)"/>
       <use xlink:href="#DejaVuSerif-65" transform="translate(507.714844 0)"/>
      </g>
     </g>
    </g>
    <g id="xtick_8">
     <g id="line2d_8">
      <g>
       <use xlink:href="#mcf830e9a18" x="216.77767" y="57.87305" style="fill: #262626; stroke: #262626"/>
      </g>
     </g>
     <g id="text_8">
      <!-- rscan-write -->
      <g style="fill: #262626" transform="translate(199.26929 85.283507) rotate(-25) scale(0.07 -0.07)">
       <use xlink:href="#DejaVuSerif-72"/>
       <use xlink:href="#DejaVuSerif-73" transform="translate(47.802734 0)"/>
       <use xlink:href="#DejaVuSerif-63" transform="translate(99.121094 0)"/>
       <use xlink:href="#DejaVuSerif-61" transform="translate(155.126953 0)"/>
       <use xlink:href="#DejaVuSerif-6e" transform="translate(214.746094 0)"/>
       <use xlink:href="#DejaVuSerif-2d" transform="translate(279.150391 0)"/>
       <use xlink:href="#DejaVuSerif-77" transform="translate(312.939453 0)"/>
       <use xlink:href="#DejaVuSerif-72" transform="translate(398.535156 0)"/>
       <use xlink:href="#DejaVuSerif-69" transform="translate(446.337891 0)"/>
       <use xlink:href="#DejaVuSerif-74" transform="translate(478.320312 0)"/>
       <use xlink:href="#DejaVuSerif-65" transform="translate(518.505859 0)"/>
      </g>
     </g>
    </g>
   </g>
   <g id="matplotlib.axis_2">
    <g id="ytick_1">
     <g id="line2d_9">
      <defs>
       <path id="m28ac2b705d" d="M 0 0 
L -2 0 
" style="stroke: #262626"/>
      </defs>
      <g>
       <use xlink:href="#m28ac2b705d" x="31.748156" y="47.31461" style="fill: #262626; stroke: #262626"/>
      </g>
     </g>
     <g id="text_9">
      <!-- 0 -->
      <g style="fill: #262626" transform="translate(22.430656 49.594141) scale(0.06 -0.06)">
       <defs>
        <path id="DejaVuSerif-30" d="M 2034 219 
Q 2513 219 2750 744 
Q 2988 1269 2988 2328 
Q 2988 3391 2750 3916 
Q 2513 4441 2034 4441 
Q 1556 4441 1318 3916 
Q 1081 3391 1081 2328 
Q 1081 1269 1318 744 
Q 1556 219 2034 219 
z
M 2034 -91 
Q 1275 -91 848 546 
Q 422 1184 422 2328 
Q 422 3475 848 4112 
Q 1275 4750 2034 4750 
Q 2797 4750 3222 4112 
Q 3647 3475 3647 2328 
Q 3647 1184 3222 546 
Q 2797 -91 2034 -91 
z
" transform="scale(0.015625)"/>
       </defs>
       <use xlink:href="#DejaVuSerif-30"/>
      </g>
     </g>
    </g>
    <g id="ytick_2">
     <g id="line2d_10">
      <g>
       <use xlink:href="#m28ac2b705d" x="31.748156" y="32.990805" style="fill: #262626; stroke: #262626"/>
      </g>
     </g>
     <g id="text_10">
      <!-- 15 -->
      <g style="fill: #262626" transform="translate(18.613156 35.270336) scale(0.06 -0.06)">
       <defs>
        <path id="DejaVuSerif-31" d="M 909 0 
L 909 331 
L 1722 331 
L 1722 4213 
L 781 3603 
L 781 4013 
L 1919 4750 
L 2350 4750 
L 2350 331 
L 3163 331 
L 3163 0 
L 909 0 
z
" transform="scale(0.015625)"/>
        <path id="DejaVuSerif-35" d="M 3219 4666 
L 3219 4153 
L 1081 4153 
L 1081 2816 
Q 1244 2928 1461 2984 
Q 1678 3041 1947 3041 
Q 2703 3041 3140 2622 
Q 3578 2203 3578 1478 
Q 3578 738 3136 323 
Q 2694 -91 1894 -91 
Q 1572 -91 1234 -12 
Q 897 66 544 225 
L 544 1131 
L 897 1131 
Q 925 688 1179 453 
Q 1434 219 1894 219 
Q 2388 219 2653 544 
Q 2919 869 2919 1478 
Q 2919 2084 2655 2407 
Q 2391 2731 1894 2731 
Q 1613 2731 1398 2631 
Q 1184 2531 1019 2322 
L 750 2322 
L 750 4666 
L 3219 4666 
z
" transform="scale(0.015625)"/>
       </defs>
       <use xlink:href="#DejaVuSerif-31"/>
       <use xlink:href="#DejaVuSerif-35" transform="translate(63.623047 0)"/>
      </g>
     </g>
    </g>
    <g id="ytick_3">
     <g id="line2d_11">
      <g>
       <use xlink:href="#m28ac2b705d" x="31.748156" y="18.667" style="fill: #262626; stroke: #262626"/>
      </g>
     </g>
     <g id="text_11">
      <!-- 30 -->
      <g style="fill: #262626" transform="translate(18.613156 20.946531) scale(0.06 -0.06)">
       <defs>
        <path id="DejaVuSerif-33" d="M 622 4469 
Q 988 4606 1323 4678 
Q 1659 4750 1953 4750 
Q 2638 4750 3022 4454 
Q 3406 4159 3406 3634 
Q 3406 3213 3140 2930 
Q 2875 2647 2388 2547 
Q 2963 2466 3280 2130 
Q 3597 1794 3597 1259 
Q 3597 606 3158 257 
Q 2719 -91 1894 -91 
Q 1528 -91 1179 -12 
Q 831 66 488 225 
L 488 1131 
L 838 1131 
Q 869 681 1141 450 
Q 1413 219 1906 219 
Q 2384 219 2661 495 
Q 2938 772 2938 1253 
Q 2938 1803 2653 2086 
Q 2369 2369 1819 2369 
L 1522 2369 
L 1522 2688 
L 1678 2688 
Q 2225 2688 2498 2914 
Q 2772 3141 2772 3597 
Q 2772 4006 2547 4223 
Q 2322 4441 1900 4441 
Q 1478 4441 1245 4241 
Q 1013 4041 972 3647 
L 622 3647 
L 622 4469 
z
" transform="scale(0.015625)"/>
       </defs>
       <use xlink:href="#DejaVuSerif-33"/>
       <use xlink:href="#DejaVuSerif-30" transform="translate(63.623047 0)"/>
      </g>
     </g>
    </g>
    <g id="ytick_4">
     <g id="line2d_12">
      <g>
       <use xlink:href="#m28ac2b705d" x="31.748156" y="4.343194" style="fill: #262626; stroke: #262626"/>
      </g>
     </g>
     <g id="text_12">
      <!-- 45 -->
      <g style="fill: #262626" transform="translate(18.613156 6.622726) scale(0.06 -0.06)">
       <defs>
        <path id="DejaVuSerif-34" d="M 2234 1581 
L 2234 4063 
L 641 1581 
L 2234 1581 
z
M 3609 0 
L 1484 0 
L 1484 331 
L 2234 331 
L 2234 1247 
L 197 1247 
L 197 1588 
L 2241 4750 
L 2859 4750 
L 2859 1581 
L 3750 1581 
L 3750 1247 
L 2859 1247 
L 2859 331 
L 3609 331 
L 3609 0 
z
" transform="scale(0.015625)"/>
       </defs>
       <use xlink:href="#DejaVuSerif-34"/>
       <use xlink:href="#DejaVuSerif-35" transform="translate(63.623047 0)"/>
      </g>
     </g>
    </g>
    <g id="text_13">
     <!-- Improvement over Linux (%)  -->
     <g style="fill: #262626" transform="translate(5.318906 81.019806) rotate(-90) scale(0.07 -0.07)">
      <defs>
       <path id="DejaVuSerif-49" d="M 1581 331 
L 2175 331 
L 2175 0 
L 353 0 
L 353 331 
L 947 331 
L 947 4331 
L 353 4331 
L 353 4666 
L 2175 4666 
L 2175 4331 
L 1581 4331 
L 1581 331 
z
" transform="scale(0.015625)"/>
       <path id="DejaVuSerif-70" d="M 1313 1825 
L 1313 1497 
Q 1313 897 1542 583 
Q 1772 269 2209 269 
Q 2650 269 2876 622 
Q 3103 975 3103 1663 
Q 3103 2353 2876 2703 
Q 2650 3053 2209 3053 
Q 1772 3053 1542 2737 
Q 1313 2422 1313 1825 
z
M 738 2988 
L 184 2988 
L 184 3322 
L 1313 3322 
L 1313 2803 
Q 1481 3116 1742 3264 
Q 2003 3413 2388 3413 
Q 3000 3413 3387 2928 
Q 3775 2444 3775 1663 
Q 3775 881 3387 395 
Q 3000 -91 2388 -91 
Q 2003 -91 1742 57 
Q 1481 206 1313 519 
L 1313 -997 
L 1856 -997 
L 1856 -1331 
L 184 -1331 
L 184 -997 
L 738 -997 
L 738 2988 
z
" transform="scale(0.015625)"/>
       <path id="DejaVuSerif-20" transform="scale(0.015625)"/>
       <path id="DejaVuSerif-4c" d="M 353 0 
L 353 331 
L 947 331 
L 947 4331 
L 353 4331 
L 353 4666 
L 2175 4666 
L 2175 4331 
L 1581 4331 
L 1581 384 
L 3713 384 
L 3713 1166 
L 4097 1166 
L 4097 0 
L 353 0 
z
" transform="scale(0.015625)"/>
       <path id="DejaVuSerif-75" d="M 2266 3322 
L 3341 3322 
L 3341 331 
L 3884 331 
L 3884 0 
L 2766 0 
L 2766 588 
Q 2606 256 2353 82 
Q 2100 -91 1766 -91 
Q 1213 -91 952 223 
Q 691 538 691 1209 
L 691 2988 
L 172 2988 
L 172 3322 
L 1269 3322 
L 1269 1388 
Q 1269 781 1417 556 
Q 1566 331 1947 331 
Q 2347 331 2556 625 
Q 2766 919 2766 1478 
L 2766 2988 
L 2266 2988 
L 2266 3322 
z
" transform="scale(0.015625)"/>
       <path id="DejaVuSerif-78" d="M 1863 2028 
L 2559 2988 
L 2113 2988 
L 2113 3322 
L 3391 3322 
L 3391 2988 
L 2950 2988 
L 2059 1759 
L 3097 331 
L 3531 331 
L 3531 0 
L 1997 0 
L 1997 331 
L 2419 331 
L 1697 1325 
L 972 331 
L 1403 331 
L 1403 0 
L 141 0 
L 141 331 
L 581 331 
L 1497 1594 
L 488 2988 
L 78 2988 
L 78 3322 
L 1563 3322 
L 1563 2988 
L 1166 2988 
L 1863 2028 
z
" transform="scale(0.015625)"/>
       <path id="DejaVuSerif-28" d="M 2041 -997 
Q 1281 -656 893 83 
Q 506 822 506 1931 
Q 506 3044 893 3783 
Q 1281 4522 2041 4863 
L 2041 4556 
Q 1559 4225 1350 3623 
Q 1141 3022 1141 1931 
Q 1141 844 1350 242 
Q 1559 -359 2041 -691 
L 2041 -997 
z
" transform="scale(0.015625)"/>
       <path id="DejaVuSerif-25" d="M 1434 4459 
Q 1159 4459 1004 4200 
Q 850 3941 850 3475 
Q 850 3016 1008 2753 
Q 1166 2491 1434 2491 
Q 1700 2491 1854 2752 
Q 2009 3013 2009 3475 
Q 2009 3938 1854 4198 
Q 1700 4459 1434 4459 
z
M 4653 2169 
Q 4381 2169 4226 1906 
Q 4072 1644 4072 1178 
Q 4072 719 4228 458 
Q 4384 197 4653 197 
Q 4922 197 5075 458 
Q 5228 719 5228 1178 
Q 5228 1641 5073 1905 
Q 4919 2169 4653 2169 
z
M 4653 2450 
Q 5147 2450 5437 2106 
Q 5728 1763 5728 1178 
Q 5728 594 5436 251 
Q 5144 -91 4653 -91 
Q 4153 -91 3862 251 
Q 3572 594 3572 1178 
Q 3572 1766 3864 2108 
Q 4156 2450 4653 2450 
z
M 4263 4750 
L 4738 4750 
L 1819 -91 
L 1344 -91 
L 4263 4750 
z
M 1428 4750 
Q 1922 4750 2215 4408 
Q 2509 4066 2509 3481 
Q 2509 2891 2217 2550 
Q 1925 2209 1428 2209 
Q 931 2209 642 2551 
Q 353 2894 353 3481 
Q 353 4063 643 4406 
Q 934 4750 1428 4750 
z
" transform="scale(0.015625)"/>
       <path id="DejaVuSerif-29" d="M 453 -997 
L 453 -691 
Q 934 -359 1145 242 
Q 1356 844 1356 1931 
Q 1356 3022 1145 3623 
Q 934 4225 453 4556 
L 453 4863 
Q 1216 4522 1603 3783 
Q 1991 3044 1991 1931 
Q 1991 822 1603 83 
Q 1216 -656 453 -997 
z
" transform="scale(0.015625)"/>
      </defs>
      <use xlink:href="#DejaVuSerif-49"/>
      <use xlink:href="#DejaVuSerif-6d" transform="translate(39.501953 0)"/>
      <use xlink:href="#DejaVuSerif-70" transform="translate(134.326172 0)"/>
      <use xlink:href="#DejaVuSerif-72" transform="translate(198.339844 0)"/>
      <use xlink:href="#DejaVuSerif-6f" transform="translate(246.142578 0)"/>
      <use xlink:href="#DejaVuSerif-76" transform="translate(306.347656 0)"/>
      <use xlink:href="#DejaVuSerif-65" transform="translate(362.841797 0)"/>
      <use xlink:href="#DejaVuSerif-6d" transform="translate(422.021484 0)"/>
      <use xlink:href="#DejaVuSerif-65" transform="translate(516.845703 0)"/>
      <use xlink:href="#DejaVuSerif-6e" transform="translate(576.025391 0)"/>
      <use xlink:href="#DejaVuSerif-74" transform="translate(640.429688 0)"/>
      <use xlink:href="#DejaVuSerif-20" transform="translate(680.615234 0)"/>
      <use xlink:href="#DejaVuSerif-6f" transform="translate(712.402344 0)"/>
      <use xlink:href="#DejaVuSerif-76" transform="translate(772.607422 0)"/>
      <use xlink:href="#DejaVuSerif-65" transform="translate(829.101562 0)"/>
      <use xlink:href="#DejaVuSerif-72" transform="translate(888.28125 0)"/>
      <use xlink:href="#DejaVuSerif-20" transform="translate(936.083984 0)"/>
      <use xlink:href="#DejaVuSerif-4c" transform="translate(967.871094 0)"/>
      <use xlink:href="#DejaVuSerif-69" transform="translate(1034.277344 0)"/>
      <use xlink:href="#DejaVuSerif-6e" transform="translate(1066.259766 0)"/>
      <use xlink:href="#DejaVuSerif-75" transform="translate(1130.664062 0)"/>
      <use xlink:href="#DejaVuSerif-78" transform="translate(1195.068359 0)"/>
      <use xlink:href="#DejaVuSerif-20" transform="translate(1251.464844 0)"/>
      <use xlink:href="#DejaVuSerif-28" transform="translate(1283.251953 0)"/>
      <use xlink:href="#DejaVuSerif-25" transform="translate(1322.265625 0)"/>
      <use xlink:href="#DejaVuSerif-29" transform="translate(1417.285156 0)"/>
      <use xlink:href="#DejaVuSerif-20" transform="translate(1456.298828 0)"/>
     </g>
     <!--  (mean MB/s) -->
     <g style="fill: #262626" transform="translate(13.157375 52.754572) rotate(-90) scale(0.07 -0.07)">
      <defs>
       <path id="DejaVuSerif-4d" d="M 353 0 
L 353 331 
L 947 331 
L 947 4331 
L 319 4331 
L 319 4666 
L 1678 4666 
L 3316 1344 
L 4953 4666 
L 6228 4666 
L 6228 4331 
L 5606 4331 
L 5606 331 
L 6203 331 
L 6203 0 
L 4378 0 
L 4378 331 
L 4972 331 
L 4972 3938 
L 3372 684 
L 2931 684 
L 1331 3938 
L 1331 331 
L 1925 331 
L 1925 0 
L 353 0 
z
" transform="scale(0.015625)"/>
       <path id="DejaVuSerif-42" d="M 1581 331 
L 2516 331 
Q 3078 331 3337 575 
Q 3597 819 3597 1350 
Q 3597 1878 3339 2120 
Q 3081 2363 2516 2363 
L 1581 2363 
L 1581 331 
z
M 1581 2694 
L 2375 2694 
Q 2888 2694 3123 2891 
Q 3359 3088 3359 3513 
Q 3359 3941 3123 4136 
Q 2888 4331 2375 4331 
L 1581 4331 
L 1581 2694 
z
M 353 0 
L 353 331 
L 947 331 
L 947 4331 
L 353 4331 
L 353 4666 
L 2656 4666 
Q 3363 4666 3720 4377 
Q 4078 4088 4078 3513 
Q 4078 3097 3829 2850 
Q 3581 2603 3103 2547 
Q 3697 2472 4005 2167 
Q 4313 1863 4313 1350 
Q 4313 656 3875 328 
Q 3438 0 2509 0 
L 353 0 
z
" transform="scale(0.015625)"/>
       <path id="DejaVuSerif-2f" d="M 1656 4666 
L 2156 4666 
L 500 -594 
L 0 -594 
L 1656 4666 
z
" transform="scale(0.015625)"/>
      </defs>
      <use xlink:href="#DejaVuSerif-20"/>
      <use xlink:href="#DejaVuSerif-28" transform="translate(31.787109 0)"/>
      <use xlink:href="#DejaVuSerif-6d" transform="translate(70.800781 0)"/>
      <use xlink:href="#DejaVuSerif-65" transform="translate(165.625 0)"/>
      <use xlink:href="#DejaVuSerif-61" transform="translate(224.804688 0)"/>
      <use xlink:href="#DejaVuSerif-6e" transform="translate(284.423828 0)"/>
      <use xlink:href="#DejaVuSerif-20" transform="translate(348.828125 0)"/>
      <use xlink:href="#DejaVuSerif-4d" transform="translate(380.615234 0)"/>
      <use xlink:href="#DejaVuSerif-42" transform="translate(483.007812 0)"/>
      <use xlink:href="#DejaVuSerif-2f" transform="translate(556.494141 0)"/>
      <use xlink:href="#DejaVuSerif-73" transform="translate(590.185547 0)"/>
      <use xlink:href="#DejaVuSerif-29" transform="translate(641.503906 0)"/>
     </g>
    </g>
   </g>
   <g id="patch_3">
    <path d="M 40.956911 47.31461 
L 45.134078 47.31461 
L 45.134078 47.116052 
L 40.956911 47.116052 
z
" clip-path="url(#p780254a5e2)" style="fill: #fcd0cc; stroke: #fcd0cc; stroke-width: 0.25; stroke-linejoin: miter"/>
   </g>
   <g id="patch_4">
    <path d="M 64.880686 47.31461 
L 69.057853 47.31461 
L 69.057853 46.710717 
L 64.880686 46.710717 
z
" clip-path="url(#p780254a5e2)" style="fill: #fcd0cc; stroke: #fcd0cc; stroke-width: 0.25; stroke-linejoin: miter"/>
   </g>
   <g id="patch_5">
    <path d="M 88.804461 47.31461 
L 92.981628 47.31461 
L 92.981628 2.630593 
L 88.804461 2.630593 
z
" clip-path="url(#p780254a5e2)" style="fill: #fcd0cc; stroke: #fcd0cc; stroke-width: 0.25; stroke-linejoin: miter"/>
   </g>
   <g id="patch_6">
    <path d="M 112.728236 47.31461 
L 116.905403 47.31461 
L 116.905403 48.014784 
L 112.728236 48.014784 
z
" clip-path="url(#p780254a5e2)" style="fill: #fcd0cc; stroke: #fcd0cc; stroke-width: 0.25; stroke-linejoin: miter"/>
   </g>
   <g id="patch_7">
    <path d="M 136.652011 47.31461 
L 140.829178 47.31461 
L 140.829178 47.011941 
L 136.652011 47.011941 
z
" clip-path="url(#p780254a5e2)" style="fill: #fcd0cc; stroke: #fcd0cc; stroke-width: 0.25; stroke-linejoin: miter"/>
   </g>
   <g id="patch_8">
    <path d="M 160.575786 47.31461 
L 164.752953 47.31461 
L 164.752953 52.414353 
L 160.575786 52.414353 
z
" clip-path="url(#p780254a5e2)" style="fill: #fcd0cc; stroke: #fcd0cc; stroke-width: 0.25; stroke-linejoin: miter"/>
   </g>
   <g id="patch_9">
    <path d="M 184.499561 47.31461 
L 188.676728 47.31461 
L 188.676728 48.969148 
L 184.499561 48.969148 
z
" clip-path="url(#p780254a5e2)" style="fill: #fcd0cc; stroke: #fcd0cc; stroke-width: 0.25; stroke-linejoin: miter"/>
   </g>
   <g id="patch_10">
    <path d="M 208.423336 47.31461 
L 212.600503 47.31461 
L 212.600503 45.361673 
L 208.423336 45.361673 
z
" clip-path="url(#p780254a5e2)" style="fill: #fcd0cc; stroke: #fcd0cc; stroke-width: 0.25; stroke-linejoin: miter"/>
   </g>
   <g id="patch_11">
    <path d="M 45.134078 47.31461 
L 49.311245 47.31461 
L 49.311245 45.456678 
L 45.134078 45.456678 
z
" clip-path="url(#p780254a5e2)" style="fill: #f994b1; stroke: #f994b1; stroke-width: 0.25; stroke-linejoin: miter"/>
   </g>
   <g id="patch_12">
    <path d="M 69.057853 47.31461 
L 73.23502 47.31461 
L 73.23502 46.887135 
L 69.057853 46.887135 
z
" clip-path="url(#p780254a5e2)" style="fill: #f994b1; stroke: #f994b1; stroke-width: 0.25; stroke-linejoin: miter"/>
   </g>
   <g id="patch_13">
    <path d="M 92.981628 47.31461 
L 97.158795 47.31461 
L 97.158795 52.187707 
L 92.981628 52.187707 
z
" clip-path="url(#p780254a5e2)" style="fill: #f994b1; stroke: #f994b1; stroke-width: 0.25; stroke-linejoin: miter"/>
   </g>
   <g id="patch_14">
    <path d="M 116.905403 47.31461 
L 121.08257 47.31461 
L 121.08257 46.138856 
L 116.905403 46.138856 
z
" clip-path="url(#p780254a5e2)" style="fill: #f994b1; stroke: #f994b1; stroke-width: 0.25; stroke-linejoin: miter"/>
   </g>
   <g id="patch_15">
    <path d="M 140.829178 47.31461 
L 145.006345 47.31461 
L 145.006345 46.784939 
L 140.829178 46.784939 
z
" clip-path="url(#p780254a5e2)" style="fill: #f994b1; stroke: #f994b1; stroke-width: 0.25; stroke-linejoin: miter"/>
   </g>
   <g id="patch_16">
    <path d="M 164.752953 47.31461 
L 168.93012 47.31461 
L 168.93012 45.698943 
L 164.752953 45.698943 
z
" clip-path="url(#p780254a5e2)" style="fill: #f994b1; stroke: #f994b1; stroke-width: 0.25; stroke-linejoin: miter"/>
   </g>
   <g id="patch_17">
    <path d="M 188.676728 47.31461 
L 192.853895 47.31461 
L 192.853895 47.218206 
L 188.676728 47.218206 
z
" clip-path="url(#p780254a5e2)" style="fill: #f994b1; stroke: #f994b1; stroke-width: 0.25; stroke-linejoin: miter"/>
   </g>
   <g id="patch_18">
    <path d="M 212.600503 47.31461 
L 216.77767 47.31461 
L 216.77767 46.874889 
L 212.600503 46.874889 
z
" clip-path="url(#p780254a5e2)" style="fill: #f994b1; stroke: #f994b1; stroke-width: 0.25; stroke-linejoin: miter"/>
   </g>
   <g id="patch_19">
    <path d="M 49.311245 47.31461 
L 53.488412 47.31461 
L 53.488412 44.496983 
L 49.311245 44.496983 
z
" clip-path="url(#p780254a5e2)" style="fill: #e23e99; stroke: #e23e99; stroke-width: 0.25; stroke-linejoin: miter"/>
   </g>
   <g id="patch_20">
    <path d="M 73.23502 47.31461 
L 77.412187 47.31461 
L 77.412187 48.534836 
L 73.23502 48.534836 
z
" clip-path="url(#p780254a5e2)" style="fill: #e23e99; stroke: #e23e99; stroke-width: 0.25; stroke-linejoin: miter"/>
   </g>
   <g id="patch_21">
    <path d="M 97.158795 47.31461 
L 101.335962 47.31461 
L 101.335962 4.352106 
L 97.158795 4.352106 
z
" clip-path="url(#p780254a5e2)" style="fill: #e23e99; stroke: #e23e99; stroke-width: 0.25; stroke-linejoin: miter"/>
   </g>
   <g id="patch_22">
    <path d="M 121.08257 47.31461 
L 125.259737 47.31461 
L 125.259737 43.897404 
L 121.08257 43.897404 
z
" clip-path="url(#p780254a5e2)" style="fill: #e23e99; stroke: #e23e99; stroke-width: 0.25; stroke-linejoin: miter"/>
   </g>
   <g id="patch_23">
    <path d="M 145.006345 47.31461 
L 149.183512 47.31461 
L 149.183512 48.67662 
L 145.006345 48.67662 
z
" clip-path="url(#p780254a5e2)" style="fill: #e23e99; stroke: #e23e99; stroke-width: 0.25; stroke-linejoin: miter"/>
   </g>
   <g id="patch_24">
    <path d="M 168.93012 47.31461 
L 173.107287 47.31461 
L 173.107287 50.96167 
L 168.93012 50.96167 
z
" clip-path="url(#p780254a5e2)" style="fill: #e23e99; stroke: #e23e99; stroke-width: 0.25; stroke-linejoin: miter"/>
   </g>
   <g id="patch_25">
    <path d="M 192.853895 47.31461 
L 197.031062 47.31461 
L 197.031062 46.86874 
L 192.853895 46.86874 
z
" clip-path="url(#p780254a5e2)" style="fill: #e23e99; stroke: #e23e99; stroke-width: 0.25; stroke-linejoin: miter"/>
   </g>
   <g id="patch_26">
    <path d="M 216.77767 47.31461 
L 220.954837 47.31461 
L 220.954837 46.469796 
L 216.77767 46.469796 
z
" clip-path="url(#p780254a5e2)" style="fill: #e23e99; stroke: #e23e99; stroke-width: 0.25; stroke-linejoin: miter"/>
   </g>
   <g id="patch_27">
    <path d="M 53.488412 47.31461 
L 57.665579 47.31461 
L 57.665579 41.989011 
L 53.488412 41.989011 
z
" clip-path="url(#p780254a5e2)" style="fill: #abd0e6; stroke: #abd0e6; stroke-width: 0.25; stroke-linejoin: miter"/>
   </g>
   <g id="patch_28">
    <path d="M 77.412187 47.31461 
L 81.589354 47.31461 
L 81.589354 34.453041 
L 77.412187 34.453041 
z
" clip-path="url(#p780254a5e2)" style="fill: #abd0e6; stroke: #abd0e6; stroke-width: 0.25; stroke-linejoin: miter"/>
   </g>
   <g id="patch_29">
    <path d="M 101.335962 47.31461 
L 105.513129 47.31461 
L 105.513129 55.242457 
L 101.335962 55.242457 
z
" clip-path="url(#p780254a5e2)" style="fill: #abd0e6; stroke: #abd0e6; stroke-width: 0.25; stroke-linejoin: miter"/>
   </g>
   <g id="patch_30">
    <path d="M 125.259737 47.31461 
L 129.436904 47.31461 
L 129.436904 44.798765 
L 125.259737 44.798765 
z
" clip-path="url(#p780254a5e2)" style="fill: #abd0e6; stroke: #abd0e6; stroke-width: 0.25; stroke-linejoin: miter"/>
   </g>
   <g id="patch_31">
    <path d="M 149.183512 47.31461 
L 153.360679 47.31461 
L 153.360679 46.709272 
L 149.183512 46.709272 
z
" clip-path="url(#p780254a5e2)" style="fill: #abd0e6; stroke: #abd0e6; stroke-width: 0.25; stroke-linejoin: miter"/>
   </g>
   <g id="patch_32">
    <path d="M 173.107287 47.31461 
L 177.284454 47.31461 
L 177.284454 47.274454 
L 173.107287 47.274454 
z
" clip-path="url(#p780254a5e2)" style="fill: #abd0e6; stroke: #abd0e6; stroke-width: 0.25; stroke-linejoin: miter"/>
   </g>
   <g id="patch_33">
    <path d="M 197.031062 47.31461 
L 201.208229 47.31461 
L 201.208229 43.145126 
L 197.031062 43.145126 
z
" clip-path="url(#p780254a5e2)" style="fill: #abd0e6; stroke: #abd0e6; stroke-width: 0.25; stroke-linejoin: miter"/>
   </g>
   <g id="patch_34">
    <path d="M 220.954837 47.31461 
L 225.132004 47.31461 
L 225.132004 46.620073 
L 220.954837 46.620073 
z
" clip-path="url(#p780254a5e2)" style="fill: #abd0e6; stroke: #abd0e6; stroke-width: 0.25; stroke-linejoin: miter"/>
   </g>
   <g id="line2d_13">
    <path d="M 31.748156 47.31461 
L 234.340759 47.31461 
" clip-path="url(#p780254a5e2)" style="fill: none; stroke-dasharray: 1.11,0.48; stroke-dashoffset: 0; stroke: #808080; stroke-opacity: 0.25; stroke-width: 0.3"/>
   </g>
   <g id="patch_35">
    <path d="M 31.748156 57.87305 
L 31.748156 -0 
" style="fill: none; stroke: #262626; stroke-linejoin: miter; stroke-linecap: square"/>
   </g>
   <g id="patch_36">
    <path d="M 31.748156 57.87305 
L 234.340759 57.87305 
" style="fill: none; stroke: #262626; stroke-linejoin: miter; stroke-linecap: square"/>
   </g>
  </g>
 </g>
 <defs>
  <clipPath id="p780254a5e2">
   <rect x="31.748156" y="-0" width="202.592602" height="57.87305"/>
  </clipPath>
 </defs>
</svg>
